spectral-light.ufo
<glyph name="exclam" format="2">
  <advance width="250.0"/>
  <unicode hex="0021"/>
  <outline>
    <contour>
      <point x="114.5909090909091" y="200.0" type="line"/>
      <point x="135.4090909090909" y="200.0" type="line"/>
      <point x="171.8181818181818" y="660.0" type="line"/>
      <point x="78.18181818181819" y="660.0" type="line"/>
    </contour>
    <contour>
      <point x="125.0" y="-5.0" type="curve" smooth="yes"/>
      <point x="154.13636363636363" y="-5.0"/>
      <point x="179.45454545454547" y="21.545454545454547"/>
      <point x="179.45454545454547" y="49.86363636363636" type="curve" smooth="yes"/>
      <point x="179.45454545454547" y="79.18181818181819"/>
      <point x="154.13636363636363" y="104.72727272727272"/>
      <point x="125.0" y="104.72727272727272" type="curve" smooth="yes"/>
      <point x="95.27272727272727" y="104.72727272727272"/>
      <point x="70.54545454545455" y="79.18181818181819"/>
      <point x="70.54545454545455" y="49.86363636363636" type="curve" smooth="yes"/>
      <point x="70.54545454545455" y="21.545454545454547"/>
      <point x="95.27272727272727" y="-5.0"/>
    </contour>
  </outline>
</glyph>
<glyph name="numbersign" format="2">
  <advance width="500.0"/>
  <unicode hex="0023"/>
  <outline>
    <contour>
      <point x="42.86363636363636" y="0.0" type="line"/>
      <point x="87.13636363636364" y="0.0" type="line"/>
      <point x="279.1363636363636" y="660.0" type="line"/>
      <point x="234.86363636363637" y="660.0" type="line"/>
    </contour>
    <contour>
      <point x="222.86363636363637" y="0.0" type="line"/>
      <point x="267.1363636363636" y="0.0" type="line"/>
      <point x="459.1363636363636" y="660.0" type="line"/>
      <point x="414.8636363636364" y="660.0" type="line"/>
    </contour>
    <contour>
      <point x="62.68181818181818" y="408.72727272727275" type="line"/>
      <point x="496.95454545454544" y="408.72727272727275" type="line"/>
      <point x="496.95454545454544" y="450.0" type="line"/>
      <point x="62.68181818181818" y="450.0" type="line"/>
    </contour>
    <contour>
      <point x="3.0454545454545454" y="203.0" type="line"/>
      <point x="437.3181818181818" y="203.0" type="line"/>
      <point x="437.3181818181818" y="244.27272727272728" type="line"/>
      <point x="3.0454545454545454" y="244.27272727272728" type="line"/>
    </contour>
  </outline>
</glyph>
<glyph name="dollar" format="2">
  <advance width="500.0"/>
  <unicode hex="0024"/>
  <outline>
    <contour>
      <point x="244.0909090909091" y="-10.0" type="curve" smooth="yes"/>
      <point x="355.27272727272725" y="-10.0"/>
      <point x="447.09090909090907" y="63.54545454545455"/>
      <point x="447.09090909090907" y="172.63636363636363" type="curve" smooth="yes"/>
      <point x="447.09090909090907" y="267.54545454545456"/>
      <point x="400.1818181818182" y="311.6818181818182"/>
      <point x="270.90909090909093" y="372.6363636363636" type="curve" smooth="yes"/>
      <point x="166.8181818181818" y="422.0"/>
      <point x="133.04545454545456" y="447.72727272727275"/>
      <point x="133.04545454545456" y="518.0" type="curve" smooth="yes"/>
      <point x="133.04545454545456" y="580.6818181818181"/>
      <point x="181.45454545454547" y="628.9545454545455"/>
      <point x="259.59090909090907" y="628.9545454545455" type="curve" smooth="yes"/>
      <point x="331.5" y="628.9545454545455"/>
      <point x="371.54545454545456" y="597.8636363636364"/>
      <point x="371.54545454545456" y="542.2272727272727" type="curve" smooth="yes"/>
      <point x="371.54545454545456" y="512.7727272727273" type="line"/>
      <point x="376.95454545454544" y="508.3636363636364" type="line"/>
      <point x="401.6818181818182" y="508.3636363636364" type="line" smooth="yes"/>
      <point x="420.95454545454544" y="508.3636363636364"/>
      <point x="437.8181818181818" y="515.0"/>
      <point x="437.8181818181818" y="540.7727272727273" type="curve" smooth="yes"/>
      <point x="437.8181818181818" y="570.9545454545455"/>
      <point x="422.6363636363636" y="600.1363636363636"/>
      <point x="388.8181818181818" y="630.3636363636364" type="curve" smooth="yes"/>
      <point x="361.77272727272725" y="654.4090909090909"/>
      <point x="315.3181818181818" y="670.0"/>
      <point x="262.04545454545456" y="670.0" type="curve" smooth="yes"/>
      <point x="159.8181818181818" y="670.0"/>
      <point x="63.95454545454545" y="585.1818181818181"/>
      <point x="63.95454545454545" y="491.90909090909093" type="curve" smooth="yes"/>
      <point x="63.95454545454545" y="409.6363636363636"/>
      <point x="105.77272727272727" y="365.54545454545456"/>
      <point x="202.77272727272728" y="320.0" type="curve" smooth="yes"/>
      <point x="334.6818181818182" y="258.09090909090907"/>
      <point x="378.72727272727275" y="232.9090909090909"/>
      <point x="378.72727272727275" y="153.63636363636363" type="curve" smooth="yes"/>
      <point x="378.72727272727275" y="76.5"/>
      <point x="328.59090909090907" y="30.454545454545453"/>
      <point x="245.3181818181818" y="30.454545454545453" type="curve" smooth="yes"/>
      <point x="166.0909090909091" y="30.454545454545453"/>
      <point x="120.4090909090909" y="78.81818181818181"/>
      <point x="120.4090909090909" y="141.0" type="curve" smooth="yes"/>
      <point x="120.4090909090909" y="168.0" type="line"/>
      <point x="115.4090909090909" y="172.0" type="line"/>
      <point x="89.04545454545455" y="172.0" type="line" smooth="yes"/>
      <point x="74.27272727272727" y="172.0"/>
      <point x="52.90909090909091" y="167.0"/>
      <point x="52.90909090909091" y="140.0" type="curve" smooth="yes"/>
      <point x="52.90909090909091" y="109.0"/>
      <point x="67.68181818181819" y="72.63636363636364"/>
      <point x="101.9090909090909" y="43.0" type="curve" smooth="yes"/>
      <point x="133.1818181818182" y="14.545454545454547"/>
      <point x="194.5" y="-10.0"/>
    </contour>
    <contour>
      <point x="188.0" y="-80.0" type="line"/>
      <point x="223.4090909090909" y="-80.0" type="line"/>
      <point x="223.4090909090909" y="740.0" type="line"/>
      <point x="188.0" y="740.0" type="line"/>
    </contour>
    <contour>
      <point x="285.40909090909093" y="-80.0" type="line"/>
      <point x="320.8181818181818" y="-80.0" type="line"/>
      <point x="320.8181818181818" y="740.0" type="line"/>
      <point x="285.40909090909093" y="740.0" type="line"/>
    </contour>
  </outline>
</glyph>
<glyph name="ampersand" format="2">
  <advance width="704.8181818181819"/>
  <unicode hex="0026"/>
  <outline>
    <contour>
      <point x="528.3636363636364" y="0.0" type="line"/>
      <point x="669.3181818181819" y="0.0" type="line"/>
      <point x="669.3181818181819" y="19.68181818181818" type="line"/>
      <point x="590.0" y="48.31818181818182" type="line"/>
      <point x="291.3181818181818" y="346.0" type="line" smooth="yes"/>
      <point x="203.6818181818182" y="433.04545454545456"/>
      <point x="165.63636363636363" y="467.8181818181818"/>
      <point x="165.63636363636363" y="532.3636363636364" type="curve" smooth="yes"/>
      <point x="165.63636363636363" y="590.1818181818181"/>
      <point x="205.04545454545453" y="630.3181818181819"/>
      <point x="261.22727272727275" y="630.3181818181819" type="curve" smooth="yes"/>
      <point x="316.54545454545456" y="630.3181818181819"/>
      <point x="350.9090909090909" y="591.0"/>
      <point x="350.9090909090909" y="538.0" type="curve" smooth="yes"/>
      <point x="350.9090909090909" y="477.54545454545456"/>
      <point x="307.04545454545456" y="439.09090909090907"/>
      <point x="233.54545454545453" y="388.45454545454544" type="curve"/>
      <point x="252.77272727272728" y="366.6363636363636" type="line"/>
      <point x="359.22727272727275" y="429.22727272727275"/>
      <point x="422.8181818181818" y="474.90909090909093"/>
      <point x="422.8181818181818" y="543.2272727272727" type="curve" smooth="yes"/>
      <point x="422.8181818181818" y="615.7727272727273"/>
      <point x="366.5" y="670.0"/>
      <point x="268.6363636363636" y="670.0" type="curve" smooth="yes"/>
      <point x="162.9090909090909" y="670.0"/>
      <point x="93.36363636363636" y="585.2272727272727"/>
      <point x="93.36363636363636" y="514.0" type="curve" smooth="yes"/>
      <point x="93.36363636363636" y="428.45454545454544"/>
      <point x="140.63636363636363" y="389.3636363636364"/>
      <point x="268.1818181818182" y="261.40909090909093" type="curve" smooth="yes"/>
    </contour>
    <contour>
      <point x="223.45454545454544" y="-10.0" type="curve" smooth="yes"/>
      <point x="412.95454545454544" y="-10.0"/>
      <point x="510.72727272727275" y="168.63636363636363"/>
      <point x="617.6363636363636" y="425.54545454545456" type="curve"/>
      <point x="587.6363636363636" y="404.22727272727275" type="line"/>
      <point x="696.6363636363636" y="443.8636363636364" type="line"/>
      <point x="696.6363636363636" y="463.54545454545456" type="line"/>
      <point x="463.95454545454544" y="463.54545454545456" type="line"/>
      <point x="463.95454545454544" y="443.8636363636364" type="line"/>
      <point x="561.9545454545455" y="412.22727272727275" type="line"/>
      <point x="488.3181818181818" y="187.0"/>
      <point x="397.1363636363636" y="45.18181818181819"/>
      <point x="257.1363636363636" y="45.18181818181819" type="curve" smooth="yes"/>
      <point x="171.8616456535" y="45.18181818181819"/>
      <point x="112.81818181818181" y="96.7315340909091"/>
      <point x="112.81818181818181" y="182.9090909090909" type="curve" smooth="yes"/>
      <point x="112.81818181818181" y="249.78702115468184"/>
      <point x="129.8181818181818" y="287.6818181818182"/>
      <point x="206.8181818181818" y="342.22727272727275" type="curve"/>
      <point x="185.6818181818182" y="363.0" type="line"/>
      <point x="75.27272727272728" y="294.0"/>
      <point x="36.36363636363636" y="226.77272727272728"/>
      <point x="36.36363636363636" y="161.36363636363637" type="curve" smooth="yes"/>
      <point x="36.36363636363636" y="60.22727272727273"/>
      <point x="110.9090909090909" y="-10.0"/>
    </contour>
  </outline>
</glyph>
<glyph name="quotesingle" format="2">
  <advance width="225.45454545454544"/>
  <unicode hex="0027"/>
  <outline>
    <contour>
      <point x="102.72727272727272" y="490.0" type="line"/>
      <point x="122.72727272727272" y="490.0" type="line"/>
      <point x="152.4090909090909" y="740.0" type="line"/>
      <point x="73.04545454545455" y="740.0" type="line"/>
    </contour>
  </outline>
</glyph>
<glyph name="parenleft" format="2">
  <advance width="241.8181818181818"/>
  <unicode hex="0028"/>
  <outline>
    <contour>
      <point x="217.86363636363637" y="-150.0" type="curve"/>
      <point x="235.5909090909091" y="-150.0" type="line"/>
      <point x="235.5909090909091" y="-147.0" type="line"/>
      <point x="155.1818181818182" y="-16.181818181818183"/>
      <point x="110.95454545454545" y="112.0"/>
      <point x="110.95454545454545" y="295.0" type="curve" smooth="yes"/>
      <point x="110.95454545454545" y="478.0"/>
      <point x="155.1818181818182" y="608.1818181818181"/>
      <point x="235.5909090909091" y="737.0" type="curve"/>
      <point x="235.5909090909091" y="740.0" type="line"/>
      <point x="217.86363636363637" y="740.0" type="line"/>
      <point x="114.9090909090909" y="611.4545454545455"/>
      <point x="57.04545454545455" y="460.0"/>
      <point x="57.04545454545455" y="295.0" type="curve" smooth="yes"/>
      <point x="57.04545454545455" y="130.0"/>
      <point x="114.9090909090909" y="-21.454545454545453"/>
    </contour>
  </outline>
</glyph>
<glyph name="parenright" format="2">
  <advance width="241.8181818181818"/>
  <unicode hex="0029"/>
  <outline>
    <contour>
      <point x="6.227272727272727" y="-150.0" type="line"/>
      <point x="23.954545454545453" y="-150.0" type="line"/>
      <point x="126.9090909090909" y="-21.454545454545453"/>
      <point x="184.77272727272728" y="130.0"/>
      <point x="184.77272727272728" y="295.0" type="curve" smooth="yes"/>
      <point x="184.77272727272728" y="460.0"/>
      <point x="126.9090909090909" y="611.4545454545455"/>
      <point x="23.954545454545453" y="740.0" type="curve"/>
      <point x="6.227272727272727" y="740.0" type="line"/>
      <point x="6.227272727272727" y="737.0" type="line"/>
      <point x="86.63636363636364" y="607.3636363636364"/>
      <point x="130.86363636363637" y="478.0"/>
      <point x="130.86363636363637" y="295.0" type="curve" smooth="yes"/>
      <point x="130.86363636363637" y="112.0"/>
      <point x="86.63636363636364" y="-17.0"/>
      <point x="6.227272727272727" y="-147.0" type="curve"/>
    </contour>
  </outline>
</glyph>
<glyph name="asterisk" format="2">
  <advance width="350.0"/>
  <unicode hex="002A"/>
  <outline>
    <contour>
      <point x="59.09090909090909" y="465.54545454545456" type="line"/>
      <point x="102.0909090909091" y="434.8636363636364" type="line"/>
      <point x="175.0" y="559.6818181818181" type="line"/>
      <point x="247.9090909090909" y="434.8636363636364" type="line"/>
      <point x="290.90909090909093" y="465.54545454545456" type="line"/>
      <point x="191.54545454545453" y="574.8181818181819" type="line"/>
      <point x="334.3636363636364" y="604.9090909090909" type="line"/>
      <point x="317.6363636363636" y="654.0909090909091" type="line"/>
      <point x="184.77272727272728" y="595.1363636363636" type="line"/>
      <point x="200.9090909090909" y="740.0" type="line"/>
      <point x="149.0909090909091" y="740.0" type="line"/>
      <point x="165.22727272727272" y="595.1363636363636" type="line"/>
      <point x="32.36363636363637" y="654.0909090909091" type="line"/>
      <point x="15.636363636363637" y="604.9090909090909" type="line"/>
      <point x="158.45454545454547" y="574.8181818181819" type="line"/>
    </contour>
  </outline>
</glyph>
<glyph name="plus" format="2">
  <advance width="500.0"/>
  <unicode hex="002B"/>
  <outline>
    <contour>
      <point x="40.0" y="251.5" type="line"/>
      <point x="460.0" y="251.5" type="line"/>
      <point x="460.0" y="292.5" type="line"/>
      <point x="40.0" y="292.5" type="line"/>
    </contour>
    <contour>
      <point x="228.5" y="62.0" type="line"/>
      <point x="271.5" y="62.0" type="line"/>
      <point x="271.5" y="482.0" type="line"/>
      <point x="228.5" y="482.0" type="line"/>
    </contour>
  </outline>
</glyph>
<glyph name="comma" format="2">
  <advance width="240.1818181818182"/>
  <unicode hex="002C"/>
  <outline>
    <contour>
      <point x="58.13636363636364" y="-199.27272727272728" type="line"/>
      <point x="153.45454545454547" y="-156.54545454545453"/>
      <point x="189.1818181818182" y="-94.5909090909091"/>
      <point x="189.1818181818182" y="-30.727272727272727" type="curve" smooth="yes"/>
      <point x="189.1818181818182" y="16.81818181818182"/>
      <point x="167.63636363636363" y="60.59090909090909"/>
      <point x="128.0909090909091" y="83.77272727272728" type="curve" smooth="yes"/>
      <point x="117.5" y="89.77272727272728"/>
      <point x="109.9090909090909" y="92.36363636363636"/>
      <point x="104.31818181818181" y="92.36363636363636" type="curve" smooth="yes"/>
      <point x="93.72727272727273" y="92.36363636363636"/>
      <point x="88.31818181818181" y="84.54545454545455"/>
      <point x="80.13636363636364" y="71.18181818181819" type="curve" smooth="yes"/>
      <point x="56.86363636363636" y="32.22727272727273" type="line"/>
      <point x="58.63636363636363" y="23.863636363636363" type="line"/>
      <point x="90.18181818181819" y="5.454545454545454" type="line" smooth="yes"/>
      <point x="119.5" y="-12.136363636363637"/>
      <point x="138.95454545454547" y="-34.31818181818182"/>
      <point x="138.95454545454547" y="-72.13636363636364" type="curve" smooth="yes"/>
      <point x="138.95454545454547" y="-116.18181818181819"/>
      <point x="113.31818181818181" y="-149.9090909090909"/>
      <point x="58.13636363636364" y="-179.0909090909091" type="curve"/>
    </contour>
  </outline>
</glyph>
<glyph name="hyphen" format="2">
  <advance width="375.0"/>
  <unicode hex="002D"/>
  <outline>
    <contour>
      <point x="50.0" y="228.13636363636363" type="line"/>
      <point x="325.0" y="228.13636363636363" type="line"/>
      <point x="325.0" y="285.8636363636364" type="line"/>
      <point x="50.0" y="285.8636363636364" type="line"/>
    </contour>
  </outline>
</glyph>
<glyph name="period" format="2">
  <advance width="236.9090909090909"/>
  <unicode hex="002E"/>
  <outline>
    <contour>
      <point x="118.45454545454545" y="-4.590909090909091" type="curve" smooth="yes"/>
      <point x="148.1818181818182" y="-4.590909090909091"/>
      <point x="172.9090909090909" y="20.545454545454547"/>
      <point x="172.9090909090909" y="49.86363636363636" type="curve" smooth="yes"/>
      <point x="172.9090909090909" y="79.18181818181819"/>
      <point x="148.1818181818182" y="104.31818181818181"/>
      <point x="118.45454545454545" y="104.31818181818181" type="curve" smooth="yes"/>
      <point x="88.72727272727273" y="104.31818181818181"/>
      <point x="64.0" y="79.18181818181819"/>
      <point x="64.0" y="49.86363636363636" type="curve" smooth="yes"/>
      <point x="64.0" y="20.545454545454547"/>
      <point x="88.72727272727273" y="-4.590909090909091"/>
    </contour>
  </outline>
</glyph>
<glyph name="slash" format="2">
  <advance width="241.8181818181818"/>
  <unicode hex="002F"/>
  <outline>
    <contour>
      <point x="0.0" y="-120.0" type="line"/>
      <point x="41.81818181818182" y="-120.0" type="line"/>
      <point x="241.8181818181818" y="750.0" type="line"/>
      <point x="200.0" y="750.0" type="line"/>
    </contour>
  </outline>
</glyph>
<glyph name="zero" format="2">
  <advance width="500.0"/>
  <unicode hex="0030"/>
  <outline>
    <contour>
      <point x="250.0" y="-10.0" type="curve" smooth="yes"/>
      <point x="374.1363636363636" y="-10.0"/>
      <point x="460.8636363636364" y="138.27272727272728"/>
      <point x="460.8636363636364" y="329.1818181818182" type="curve" smooth="yes"/>
      <point x="460.8636363636364" y="536.3181818181819"/>
      <point x="384.72727272727275" y="670.0"/>
      <point x="249.5909090909091" y="670.0" type="curve" smooth="yes"/>
      <point x="125.27272727272727" y="670.0"/>
      <point x="38.72727272727273" y="522.5454545454545"/>
      <point x="38.72727272727273" y="330.8181818181818" type="curve" smooth="yes"/>
      <point x="38.72727272727273" y="124.5"/>
      <point x="115.27272727272727" y="-10.0"/>
    </contour>
    <contour>
      <point x="266.5" y="32.90909090909091" type="curve" smooth="yes"/>
      <point x="168.99449913136363" y="32.90909090909091"/>
      <point x="115.18181818181819" y="157.72727272727272"/>
      <point x="115.18181818181819" y="358.09090909090907" type="curve" smooth="yes"/>
      <point x="115.18181818181819" y="513.4090909090909"/>
      <point x="162.06417112309092" y="627.6818181818181"/>
      <point x="235.45454545454547" y="627.6818181818181" type="curve" smooth="yes"/>
      <point x="331.6016213085" y="627.6818181818181"/>
      <point x="384.40909090909093" y="503.6818181818182"/>
      <point x="384.40909090909093" y="303.09090909090907" type="curve" smooth="yes"/>
      <point x="384.40909090909093" y="148.0"/>
      <point x="339.1236631017727" y="32.90909090909091"/>
    </contour>
  </outline>
</glyph>
<glyph name="one" format="2">
  <advance width="500.0"/>
  <unicode hex="0031"/>
  <outline>
    <contour>
      <point x="154.63636363636363" y="0.0" type="line"/>
      <point x="394.5" y="0.0" type="line"/>
      <point x="394.5" y="19.68181818181818" type="line"/>
      <point x="315.3181818181818" y="50.27272727272727" type="line"/>
      <point x="315.3181818181818" y="660.0" type="line"/>
      <point x="297.3636363636364" y="660.0" type="line"/>
      <point x="79.86363636363636" y="520.6363636363636" type="line"/>
      <point x="79.86363636363636" y="488.5" type="line"/>
      <point x="243.8181818181818" y="576.0909090909091" type="line"/>
      <point x="243.8181818181818" y="50.27272727272727" type="line"/>
      <point x="154.63636363636363" y="19.68181818181818" type="line"/>
    </contour>
  </outline>
</glyph>
<glyph name="two" format="2">
  <advance width="500.0"/>
  <unicode hex="0032"/>
  <outline>
    <contour>
      <point x="53.63636363636363" y="0.0" type="line"/>
      <point x="442.1818181818182" y="0.0" type="line"/>
      <point x="452.1818181818182" y="165.9090909090909" type="line"/>
      <point x="434.1363636363636" y="165.9090909090909" type="line"/>
      <point x="392.3181818181818" y="67.68181818181819" type="line"/>
      <point x="111.63636363636364" y="67.68181818181819" type="line"/>
      <point x="125.95454545454545" y="48.04545454545455" type="line"/>
      <point x="379.40909090909093" y="346.90909090909093"/>
      <point x="435.1363636363636" y="379.0"/>
      <point x="435.1363636363636" y="493.0" type="curve" smooth="yes"/>
      <point x="435.1363636363636" y="592.0454545454545"/>
      <point x="365.8636363636364" y="670.0"/>
      <point x="263.22727272727275" y="670.0" type="curve" smooth="yes"/>
      <point x="190.54545454545453" y="670.0"/>
      <point x="154.77272727272728" y="647.9090909090909"/>
      <point x="105.63636363636364" y="608.4545454545455" type="curve" smooth="yes"/>
      <point x="64.86363636363636" y="575.5909090909091"/>
      <point x="42.63636363636363" y="540.4545454545455"/>
      <point x="42.63636363636363" y="498.90909090909093" type="curve" smooth="yes"/>
      <point x="42.63636363636363" y="465.59090909090907"/>
      <point x="54.40909090909091" y="461.0"/>
      <point x="78.54545454545455" y="461.0" type="curve" smooth="yes"/>
      <point x="113.0909090909091" y="461.0" type="line"/>
      <point x="118.5" y="467.59090909090907" type="line"/>
      <point x="118.5" y="511.3636363636364" type="line" smooth="yes"/>
      <point x="118.5" y="585.1818181818181"/>
      <point x="164.04545454545456" y="626.6818181818181"/>
      <point x="233.45454545454547" y="626.6818181818181" type="curve" smooth="yes"/>
      <point x="306.3181818181818" y="626.6818181818181"/>
      <point x="354.5" y="575.8636363636364"/>
      <point x="354.5" y="491.0" type="curve" smooth="yes"/>
      <point x="354.5" y="390.40909090909093"/>
      <point x="336.27272727272725" y="357.1818181818182"/>
      <point x="53.63636363636363" y="24.59090909090909" type="curve"/>
    </contour>
  </outline>
</glyph>
<glyph name="three" format="2">
  <advance width="500.0"/>
  <unicode hex="0033"/>
  <outline>
    <contour>
      <point x="241.95454545454547" y="-10.0" type="curve" smooth="yes"/>
      <point x="366.5" y="-10.0"/>
      <point x="463.90909090909093" y="76.18181818181819"/>
      <point x="463.90909090909093" y="178.27272727272728" type="curve" smooth="yes"/>
      <point x="463.90909090909093" y="289.04545454545456"/>
      <point x="383.77272727272725" y="361.3636363636364"/>
      <point x="225.1818181818182" y="361.3636363636364" type="curve"/>
      <point x="220.45454545454547" y="344.3181818181818" type="line"/>
      <point x="348.3181818181818" y="350.45454545454544"/>
      <point x="429.3181818181818" y="427.22727272727275"/>
      <point x="429.3181818181818" y="512.0" type="curve" smooth="yes"/>
      <point x="429.3181818181818" y="603.0454545454545"/>
      <point x="357.6363636363636" y="670.0"/>
      <point x="256.6818181818182" y="670.0" type="curve" smooth="yes"/>
      <point x="199.86363636363637" y="670.0"/>
      <point x="167.54545454545453" y="654.7727272727273"/>
      <point x="123.77272727272727" y="627.1818181818181" type="curve" smooth="yes"/>
      <point x="73.35849144337273" y="596.2499393045"/>
      <point x="53.81818181818182" y="560.1818181818181"/>
      <point x="53.81818181818182" y="525.7727272727273" type="curve" smooth="yes"/>
      <point x="53.81818181818182" y="492.77840909090907"/>
      <point x="65.5909090909091" y="488.3181818181818"/>
      <point x="89.13636363636364" y="488.3181818181818" type="curve" smooth="yes"/>
      <point x="121.72727272727272" y="488.3181818181818" type="line"/>
      <point x="128.9090909090909" y="495.5" type="line"/>
      <point x="128.9090909090909" y="530.2727272727273" type="line"/>
      <point x="128.9090909090909" y="589.8181818181819"/>
      <point x="171.36363636363637" y="627.8636363636364"/>
      <point x="232.22727272727272" y="627.8636363636364" type="curve" smooth="yes"/>
      <point x="306.1818181818182" y="627.8636363636364"/>
      <point x="348.6818181818182" y="586.9545454545455"/>
      <point x="348.6818181818182" y="505.0" type="curve" smooth="yes"/>
      <point x="348.6818181818182" y="413.54545454545456"/>
      <point x="279.6818181818182" y="360.54545454545456"/>
      <point x="187.54545454545453" y="360.54545454545456" type="curve"/>
      <point x="152.77272727272728" y="360.54545454545456" type="line"/>
      <point x="152.77272727272728" y="321.45454545454544" type="line"/>
      <point x="213.8181818181818" y="321.45454545454544" type="line" smooth="yes"/>
      <point x="340.04545454545456" y="321.45454545454544"/>
      <point x="382.6818181818182" y="264.8636363636364"/>
      <point x="382.6818181818182" y="172.4090909090909" type="curve" smooth="yes"/>
      <point x="382.6818181818182" y="88.54545454545455"/>
      <point x="331.22727272727275" y="30.090909090909093"/>
      <point x="241.5" y="30.090909090909093" type="curve" smooth="yes"/>
      <point x="156.72727272727272" y="30.090909090909093"/>
      <point x="110.95454545454545" y="64.9090909090909"/>
      <point x="110.95454545454545" y="116.9090909090909" type="curve" smooth="yes"/>
      <point x="110.95454545454545" y="145.4090909090909" type="line"/>
      <point x="104.36363636363636" y="152.0" type="line"/>
      <point x="69.81818181818181" y="152.0" type="line" smooth="yes"/>
      <point x="45.81818181818182" y="152.0"/>
      <point x="33.81818181818182" y="148.0"/>
      <point x="33.81818181818182" y="120.0" type="curve" smooth="yes"/>
      <point x="33.81818181818182" y="92.0"/>
      <point x="52.81818181818182" y="64.0"/>
      <point x="89.81818181818181" y="36.0" type="curve" smooth="yes"/>
      <point x="130.5909090909091" y="4.818181818181818"/>
      <point x="174.6818181818182" y="-10.0"/>
    </contour>
  </outline>
</glyph>
<glyph name="four" format="2">
  <advance width="500.0"/>
  <unicode hex="0034"/>
  <outline>
    <contour>
      <point x="194.63636363636363" y="0.0" type="line"/>
      <point x="434.5" y="0.0" type="line"/>
      <point x="434.5" y="19.68181818181818" type="line"/>
      <point x="355.3181818181818" y="50.27272727272727" type="line"/>
      <point x="355.3181818181818" y="660.0" type="line"/>
      <point x="337.77272727272725" y="660.0" type="line"/>
      <point x="4.318181818181818" y="210.95454545454547" type="line"/>
      <point x="4.318181818181818" y="193.0" type="line"/>
      <point x="474.3181818181818" y="193.0" type="line"/>
      <point x="474.3181818181818" y="247.72727272727272" type="line"/>
      <point x="57.5" y="247.72727272727272" type="line"/>
      <point x="66.5" y="221.0909090909091" type="line"/>
      <point x="314.1363636363636" y="564.9090909090909" type="line"/>
      <point x="283.8181818181818" y="564.9090909090909" type="line"/>
      <point x="283.8181818181818" y="50.27272727272727" type="line"/>
      <point x="194.63636363636363" y="19.68181818181818" type="line"/>
    </contour>
  </outline>
</glyph>
<glyph name="five" format="2">
  <advance width="500.0"/>
  <unicode hex="0035"/>
  <outline>
    <contour>
      <point x="191.13636363636363" y="-10.0" type="curve" smooth="yes"/>
      <point x="332.3181818181818" y="-10.0"/>
      <point x="442.54545454545456" y="85.68181818181819"/>
      <point x="442.54545454545456" y="226.04545454545456" type="curve" smooth="yes"/>
      <point x="442.54545454545456" y="325.90909090909093"/>
      <point x="379.59090909090907" y="423.1818181818182"/>
      <point x="188.5" y="423.1818181818182" type="curve" smooth="yes"/>
      <point x="169.3181818181818" y="423.1818181818182"/>
      <point x="149.13636363636363" y="421.77272727272725"/>
      <point x="126.77272727272727" y="419.77272727272725" type="curve"/>
      <point x="132.77272727272728" y="399.95454545454544" type="line"/>
      <point x="132.77272727272728" y="626.0" type="line"/>
      <point x="117.77272727272727" y="594.0454545454545" type="line"/>
      <point x="396.8181818181818" y="594.0454545454545" type="line"/>
      <point x="396.8181818181818" y="660.0" type="line"/>
      <point x="89.27272727272727" y="660.0" type="line"/>
      <point x="89.27272727272727" y="347.04545454545456" type="line"/>
      <point x="126.27272727272727" y="353.04545454545456"/>
      <point x="158.27272727272728" y="355.6363636363636"/>
      <point x="186.27272727272728" y="355.6363636363636" type="curve" smooth="yes"/>
      <point x="334.54545454545456" y="355.6363636363636"/>
      <point x="376.90909090909093" y="276.22727272727275"/>
      <point x="376.90909090909093" y="197.04545454545453" type="curve" smooth="yes"/>
      <point x="376.90909090909093" y="101.08949745906818"/>
      <point x="314.95454545454544" y="35.31818181818182"/>
      <point x="228.45454545454547" y="35.31818181818182" type="curve" smooth="yes"/>
      <point x="180.88636363636363" y="35.31818181818182"/>
      <point x="144.13636363636363" y="53.81818181818182"/>
      <point x="124.72727272727273" y="84.81818181818181" type="curve" smooth="yes"/>
      <point x="113.0909090909091" y="103.86363636363636" type="line"/>
      <point x="103.5" y="103.86363636363636" type="line"/>
      <point x="76.27272727272727" y="83.4090909090909" type="line" smooth="yes"/>
      <point x="64.27272727272727" y="74.81818181818181"/>
      <point x="57.86363636363636" y="67.04545454545455"/>
      <point x="57.86363636363636" y="56.81818181818182" type="curve" smooth="yes"/>
      <point x="57.86363636363636" y="50.81818181818182"/>
      <point x="60.86363636363636" y="43.40909090909091"/>
      <point x="66.27272727272727" y="36.0" type="curve" smooth="yes"/>
      <point x="86.04940827197727" y="7.548812551084545"/>
      <point x="130.4090909090909" y="-10.0"/>
    </contour>
  </outline>
</glyph>
<glyph name="seven" format="2">
  <advance width="500.0"/>
  <unicode hex="0037"/>
  <outline>
    <contour>
      <point x="97.31818181818181" y="0.0" type="curve"/>
      <point x="192.13636363636363" y="0.0" type="line"/>
      <point x="245.0" y="237.04545454545456"/>
      <point x="362.27272727272725" y="462.1363636363636"/>
      <point x="456.27272727272725" y="640.8181818181819" type="curve"/>
      <point x="456.27272727272725" y="660.0" type="line"/>
      <point x="55.27272727272727" y="660.0" type="line"/>
      <point x="55.27272727272727" y="594.8636363636364" type="line"/>
      <point x="417.1818181818182" y="594.8636363636364" type="line"/>
      <point x="406.1363636363636" y="626.0" type="line"/>
      <point x="190.07633706409092" y="236.2745391128182"/>
      <point x="169.23236996059092" y="171.7569782776818"/>
    </contour>
  </outline>
</glyph>
<glyph name="eight" format="2">
  <advance width="500.0"/>
  <unicode hex="0038"/>
  <outline>
    <contour>
      <point x="252.4090909090909" y="-10.0" type="curve" smooth="yes"/>
      <point x="343.03662842027273" y="-10.0"/>
      <point x="452.04545454545456" y="50.40909090909091"/>
      <point x="452.04545454545456" y="165.6818181818182" type="curve" smooth="yes"/>
      <point x="452.04545454545456" y="258.5"/>
      <point x="395.8059089215" y="306.966976052"/>
      <point x="274.5" y="373.72727272727275" type="curve" smooth="yes"/>
      <point x="163.27272727272728" y="435.1363636363636"/>
      <point x="139.45454545454547" y="471.54545454545456"/>
      <point x="139.45454545454547" y="527.9545454545455" type="curve" smooth="yes"/>
      <point x="139.45454545454547" y="588.1818181818181"/>
      <point x="186.13636363636363" y="626.8636363636364"/>
      <point x="244.63636363636363" y="626.8636363636364" type="curve" smooth="yes"/>
      <point x="312.5860389609545" y="626.8636363636364"/>
      <point x="363.3636363636364" y="583.6363636363636"/>
      <point x="363.3636363636364" y="499.90909090909093" type="curve" smooth="yes"/>
      <point x="363.3636363636364" y="441.45454545454544"/>
      <point x="321.33325792968185" y="402.7466060035909"/>
      <point x="258.8181818181818" y="367.54545454545456" type="curve"/>
      <point x="283.5" y="344.09090909090907" type="line"/>
      <point x="377.6561411275455" y="392.4160546068182"/>
      <point x="435.22727272727275" y="444.09090909090907"/>
      <point x="435.22727272727275" y="508.54545454545456" type="curve" smooth="yes"/>
      <point x="435.22727272727275" y="602.2727272727273"/>
      <point x="353.8688995215" y="670.0"/>
      <point x="252.8181818181818" y="670.0" type="curve" smooth="yes"/>
      <point x="154.8181818181818" y="670.0"/>
      <point x="65.77272727272727" y="593.8636363636364"/>
      <point x="65.77272727272727" y="504.3181818181818" type="curve" smooth="yes"/>
      <point x="65.77272727272727" y="424.1363636363636"/>
      <point x="103.77272727272727" y="381.95454545454544"/>
      <point x="214.77272727272728" y="318.95454545454544" type="curve" smooth="yes"/>
      <point x="317.63889634331815" y="261.2086355985909"/>
      <point x="381.72727272727275" y="227.72727272727272"/>
      <point x="381.72727272727275" y="143.8181818181818" type="curve" smooth="yes"/>
      <point x="381.72727272727275" y="74.0"/>
      <point x="330.36745607304545" y="31.363636363636363"/>
      <point x="255.5909090909091" y="31.363636363636363" type="curve" smooth="yes"/>
      <point x="180.36363636363637" y="31.363636363636363"/>
      <point x="121.77272727272728" y="77.5"/>
      <point x="121.77272727272728" y="163.9090909090909" type="curve" smooth="yes"/>
      <point x="121.77272727272728" y="231.0909090909091"/>
      <point x="144.22727272727272" y="267.54545454545456"/>
      <point x="221.77272727272728" y="319.1363636363636" type="curve"/>
      <point x="199.04545454545453" y="341.3181818181818" type="line"/>
      <point x="75.31818181818181" y="269.45454545454544"/>
      <point x="47.54545454545455" y="213.45454545454547"/>
      <point x="47.54545454545455" y="143.77272727272728" type="curve" smooth="yes"/>
      <point x="47.54545454545455" y="52.22727272727273"/>
      <point x="143.27272727272728" y="-10.0"/>
    </contour>
  </outline>
</glyph>
<glyph name="nine" format="2">
  <advance width="500.0"/>
  <unicode hex="0039"/>
  <outline>
    <contour>
      <point x="87.95454545454545" y="-10.0" type="line"/>
      <point x="316.59090909090907" y="53.95454545454545"/>
      <point x="458.27272727272725" y="216.0"/>
      <point x="458.27272727272725" y="426.0" type="curve" smooth="yes"/>
      <point x="458.27272727272725" y="566.6363636363636"/>
      <point x="371.27272727272725" y="670.0"/>
      <point x="246.4090909090909" y="670.0" type="curve" smooth="yes"/>
      <point x="108.36363636363636" y="670.0"/>
      <point x="38.18181818181818" y="565.1818181818181"/>
      <point x="38.18181818181818" y="460.3181818181818" type="curve" smooth="yes"/>
      <point x="38.18181818181818" y="351.95454545454544"/>
      <point x="107.18181818181819" y="271.1818181818182"/>
      <point x="214.5909090909091" y="271.1818181818182" type="curve" smooth="yes"/>
      <point x="318.1818181818182" y="271.1818181818182"/>
      <point x="391.22727272727275" y="346.22727272727275"/>
      <point x="410.95454545454544" y="443.8181818181818" type="curve"/>
      <point x="400.95454545454544" y="469.6363636363636" type="line"/>
      <point x="391.54545454545456" y="391.45454545454544"/>
      <point x="328.09090909090907" y="329.1818181818182"/>
      <point x="245.8181818181818" y="329.1818181818182" type="curve" smooth="yes"/>
      <point x="161.13636363636363" y="329.1818181818182"/>
      <point x="116.68181818181819" y="378.40909090909093"/>
      <point x="116.68181818181819" y="479.8636363636364" type="curve" smooth="yes"/>
      <point x="116.68181818181819" y="558.4545454545455"/>
      <point x="160.54545454545453" y="630.1363636363636"/>
      <point x="243.5909090909091" y="630.1363636363636" type="curve" smooth="yes"/>
      <point x="317.1363636363636" y="630.1363636363636"/>
      <point x="377.1818181818182" y="565.5909090909091"/>
      <point x="377.1818181818182" y="417.0" type="curve" smooth="yes"/>
      <point x="377.1818181818182" y="224.95454545454547"/>
      <point x="272.3636363636364" y="77.0"/>
      <point x="87.95454545454545" y="19.0" type="curve"/>
    </contour>
  </outline>
</glyph>
<glyph name="less" format="2">
  <advance width="500.0"/>
  <unicode hex="003C"/>
  <outline>
    <contour>
      <point x="460.0" y="62.0" type="line"/>
      <point x="460.0" y="107.18181818181819" type="line"/>
      <point x="70.0" y="284.09090909090907" type="line"/>
      <point x="70.0" y="259.90909090909093" type="line"/>
      <point x="460.0" y="436.8181818181818" type="line"/>
      <point x="460.0" y="482.0" type="line"/>
      <point x="40.0" y="292.09090909090907" type="line"/>
      <point x="40.0" y="251.9090909090909" type="line"/>
    </contour>
  </outline>
</glyph>
<glyph name="equal" format="2">
  <advance width="500.0"/>
  <unicode hex="003D"/>
  <outline>
    <contour>
      <point x="40.0" y="353.5" type="line"/>
      <point x="460.0" y="353.5" type="line"/>
      <point x="460.0" y="394.5" type="line"/>
      <point x="40.0" y="394.5" type="line"/>
    </contour>
    <contour>
      <point x="40.0" y="149.5" type="line"/>
      <point x="460.0" y="149.5" type="line"/>
      <point x="460.0" y="190.5" type="line"/>
      <point x="40.0" y="190.5" type="line"/>
    </contour>
  </outline>
</glyph>
<glyph name="question" format="2">
  <advance width="475.3181818181818"/>
  <unicode hex="003F"/>
  <outline>
    <contour>
      <point x="204.5" y="200.0" type="line"/>
      <point x="225.3181818181818" y="200.0" type="line"/>
      <point x="237.63636363636363" y="335.1818181818182" type="line"/>
      <point x="212.54545454545453" y="276.3181818181818" type="line"/>
      <point x="367.22727272727275" y="340.09090909090907"/>
      <point x="420.54545454545456" y="409.90909090909093"/>
      <point x="420.54545454545456" y="495.8636363636364" type="curve" smooth="yes"/>
      <point x="420.54545454545456" y="600.6363636363636"/>
      <point x="344.72727272727275" y="670.0"/>
      <point x="247.63636363636363" y="670.0" type="curve" smooth="yes"/>
      <point x="182.6818181818182" y="670.0"/>
      <point x="145.36363636363637" y="642.3636363636364"/>
      <point x="101.4090909090909" y="607.3181818181819" type="curve" smooth="yes"/>
      <point x="65.31818181818181" y="579.7272727272727"/>
      <point x="46.72727272727273" y="541.1363636363636"/>
      <point x="46.72727272727273" y="503.5" type="curve" smooth="yes"/>
      <point x="46.72727272727273" y="473.40909090909093"/>
      <point x="56.27272727272727" y="468.0"/>
      <point x="79.4090909090909" y="468.0" type="curve" smooth="yes"/>
      <point x="113.86363636363636" y="468.0" type="line"/>
      <point x="121.04545454545455" y="476.3636363636364" type="line"/>
      <point x="121.04545454545455" y="513.9090909090909" type="line" smooth="yes"/>
      <point x="121.04545454545455" y="588.1818181818181"/>
      <point x="161.63636363636363" y="627.4545454545455"/>
      <point x="224.1818181818182" y="627.4545454545455" type="curve" smooth="yes"/>
      <point x="290.6363636363636" y="627.4545454545455"/>
      <point x="341.6363636363636" y="587.0454545454545"/>
      <point x="341.6363636363636" y="495.09090909090907" type="curve" smooth="yes"/>
      <point x="341.6363636363636" y="422.54545454545456"/>
      <point x="287.3181818181818" y="375.90909090909093"/>
      <point x="183.8181818181818" y="339.6818181818182" type="curve"/>
    </contour>
    <contour>
      <point x="214.9090909090909" y="-5.0" type="curve" smooth="yes"/>
      <point x="244.04545454545453" y="-5.0"/>
      <point x="269.3636363636364" y="21.545454545454547"/>
      <point x="269.3636363636364" y="49.86363636363636" type="curve" smooth="yes"/>
      <point x="269.3636363636364" y="79.18181818181819"/>
      <point x="244.04545454545453" y="104.72727272727272"/>
      <point x="214.9090909090909" y="104.72727272727272" type="curve" smooth="yes"/>
      <point x="185.1818181818182" y="104.72727272727272"/>
      <point x="160.45454545454544" y="79.18181818181819"/>
      <point x="160.45454545454544" y="49.86363636363636" type="curve" smooth="yes"/>
      <point x="160.45454545454544" y="21.545454545454547"/>
      <point x="185.1818181818182" y="-5.0"/>
    </contour>
  </outline>
</glyph>
<glyph name="at" format="2">
  <advance width="813.0"/>
  <unicode hex="0040"/>
  <outline>
    <contour>
      <point x="376.6363636363636" y="-118.0" type="curve" smooth="yes"/>
      <point x="474.8181818181818" y="-118.0"/>
      <point x="550.2272727272727" y="-92.81818181818181"/>
      <point x="619.0" y="-48.0" type="curve"/>
      <point x="610.8181818181819" y="-30.272727272727273" type="line"/>
      <point x="550.5909090909091" y="-71.86363636363636"/>
      <point x="487.77272727272725" y="-93.45454545454545"/>
      <point x="399.1363636363636" y="-93.45454545454545" type="curve" smooth="yes"/>
      <point x="233.41036236509092" y="-93.45454545454545"/>
      <point x="122.45454545454545" y="9.772727272727273"/>
      <point x="122.45454545454545" y="187.63636363636363" type="curve" smooth="yes"/>
      <point x="122.45454545454545" y="381.22727272727275"/>
      <point x="248.48965704968182" y="536.8181818181819"/>
      <point x="441.8181818181818" y="536.8181818181819" type="curve" smooth="yes"/>
      <point x="603.3227272728636" y="536.8181818181819"/>
      <point x="703.6363636363636" y="427.27272727272725"/>
      <point x="703.6363636363636" y="281.0" type="curve" smooth="yes"/>
      <point x="703.6363636363636" y="152.36363636363637"/>
      <point x="631.8181818181819" y="50.40909090909091"/>
      <point x="552.4545454545455" y="50.40909090909091" type="curve" smooth="yes"/>
      <point x="515.5454545454545" y="50.40909090909091"/>
      <point x="510.3181818181818" y="68.0909090909091"/>
      <point x="523.3636363636364" y="140.36363636363637" type="curve" smooth="yes"/>
      <point x="574.7272727272727" y="425.3181818181818" type="line"/>
      <point x="555.8636363636364" y="425.3181818181818" type="line"/>
      <point x="521.5" y="399.59090909090907" type="line"/>
      <point x="548.0454545454545" y="392.6363636363636" type="line"/>
      <point x="529.2272727272727" y="412.40909090909093"/>
      <point x="491.6818181818182" y="429.0"/>
      <point x="454.40909090909093" y="429.0" type="curve" smooth="yes"/>
      <point x="338.22727272727275" y="429.0"/>
      <point x="232.77272727272728" y="275.8181818181818"/>
      <point x="232.77272727272728" y="137.3181818181818" type="curve" smooth="yes"/>
      <point x="232.77272727272728" y="60.59090909090909"/>
      <point x="267.3636363636364" y="21.0"/>
      <point x="312.95454545454544" y="21.0" type="curve" smooth="yes"/>
      <point x="365.72727272727275" y="21.0"/>
      <point x="415.1818181818182" y="60.31818181818182"/>
      <point x="472.5" y="145.95454545454547" type="curve"/>
      <point x="481.8181818181818" y="181.3181818181818" type="line"/>
      <point x="438.0" y="114.36363636363636"/>
      <point x="387.04545454545456" y="68.36363636363636"/>
      <point x="344.54545454545456" y="68.36363636363636" type="curve" smooth="yes"/>
      <point x="307.59090909090907" y="68.36363636363636"/>
      <point x="291.3181818181818" y="93.22727272727273"/>
      <point x="291.3181818181818" y="160.27272727272728" type="curve" smooth="yes"/>
      <point x="291.3181818181818" y="284.3636363636364"/>
      <point x="351.40909090909093" y="399.5"/>
      <point x="431.8636363636364" y="399.5" type="curve" smooth="yes"/>
      <point x="470.6363636363636" y="399.5"/>
      <point x="489.04545454545456" y="380.59090909090907"/>
      <point x="508.8181818181818" y="356.9090909090909" type="curve"/>
      <point x="506.8181818181818" y="372.72727272727275" type="line"/>
      <point x="460.0" y="107.0" type="line" smooth="yes"/>
      <point x="450.40909090909093" y="51.04545454545455"/>
      <point x="468.77272727272725" y="21.0"/>
      <point x="526.0" y="21.0" type="curve" smooth="yes"/>
      <point x="656.8636363636364" y="21.0"/>
      <point x="743.0" y="149.5"/>
      <point x="743.0" y="284.0" type="curve" smooth="yes"/>
      <point x="743.0" y="445.0"/>
      <point x="634.5909090909091" y="562.0"/>
      <point x="461.77272727272725" y="562.0" type="curve" smooth="yes"/>
      <point x="244.5909090909091" y="562.0"/>
      <point x="70.0" y="381.0"/>
      <point x="70.0" y="167.0" type="curve" smooth="yes"/>
      <point x="70.0" y="-5.0"/>
      <point x="194.8181818181818" y="-118.0"/>
    </contour>
  </outline>
</glyph>
<glyph name="A" format="2">
  <advance width="733.2272727272727"/>
  <unicode hex="0041"/>
  <anchor x="361.6818181818182" y="0.0" name="bottom"/>
  <anchor x="366.1818181818182" y="710.0" name="top"/>
  <anchor x="610.7272727272727" y="0.0" name="right"/>
  <outline>
    <contour>
      <point x="33.0" y="0.0" type="line"/>
      <point x="236.72727272727272" y="0.0" type="line"/>
      <point x="236.72727272727272" y="19.68181818181818" type="line"/>
      <point x="141.77272727272728" y="48.04545454545455" type="line"/>
      <point x="143.72727272727272" y="28.0" type="line"/>
      <point x="367.5909090909091" y="594.5" type="line"/>
      <point x="332.95454545454544" y="594.5" type="line"/>
      <point x="560.2727272727273" y="28.40909090909091" type="line"/>
      <point x="568.1818181818181" y="50.22727272727273" type="line"/>
      <point x="466.54545454545456" y="19.68181818181818" type="line"/>
      <point x="466.54545454545456" y="0.0" type="line"/>
      <point x="700.2272727272727" y="0.0" type="line"/>
      <point x="700.2272727272727" y="19.68181818181818" type="line"/>
      <point x="596.0909090909091" y="62.36363636363637" type="line"/>
      <point x="643.6363636363636" y="28.0" type="line"/>
      <point x="383.27272727272725" y="665.0" type="line"/>
      <point x="348.09090909090907" y="665.0" type="line"/>
      <point x="85.54545454545455" y="28.0" type="line"/>
      <point x="113.27272727272728" y="53.22727272727273" type="line"/>
      <point x="33.0" y="19.68181818181818" type="line"/>
    </contour>
    <contour>
      <point x="200.72727272727272" y="241.13636363636363" type="line"/>
      <point x="507.6363636363636" y="241.13636363636363" type="line"/>
      <point x="507.6363636363636" y="287.95454545454544" type="line"/>
      <point x="200.72727272727272" y="287.95454545454544" type="line"/>
    </contour>
  </outline>
</glyph>
<glyph name="B" format="2">
  <advance width="631.4090909090909"/>
  <unicode hex="0042"/>
  <outline>
    <contour>
      <point x="65.0" y="0.0" type="line"/>
      <point x="221.9090909090909" y="0.0" type="line"/>
      <point x="221.9090909090909" y="660.0" type="line"/>
      <point x="65.0" y="660.0" type="line"/>
      <point x="65.0" y="640.3181818181819" type="line"/>
      <point x="144.1818181818182" y="609.7272727272727" type="line"/>
      <point x="144.1818181818182" y="50.27272727272727" type="line"/>
      <point x="65.0" y="19.68181818181818" type="line"/>
    </contour>
    <contour>
      <point x="316.45454545454544" y="0.0" type="line" smooth="yes"/>
      <point x="467.22727272727275" y="0.0"/>
      <point x="579.4090909090909" y="82.0"/>
      <point x="579.4090909090909" y="192.0" type="curve" smooth="yes"/>
      <point x="579.4090909090909" y="295.54545454545456"/>
      <point x="479.5909090909091" y="359.3181818181818"/>
      <point x="316.95454545454544" y="359.3181818181818" type="curve"/>
      <point x="308.95454545454544" y="344.3181818181818" type="line"/>
      <point x="445.0" y="344.3181818181818"/>
      <point x="522.0" y="423.95454545454544"/>
      <point x="522.0" y="512.0" type="curve" smooth="yes"/>
      <point x="522.0" y="611.0"/>
      <point x="420.3181818181818" y="660.0"/>
      <point x="288.54545454545456" y="660.0" type="curve" smooth="yes"/>
      <point x="169.3181818181818" y="660.0" type="line"/>
      <point x="169.3181818181818" y="612.7727272727273" type="line"/>
      <point x="278.22727272727275" y="612.7727272727273" type="line" smooth="yes"/>
      <point x="383.22727272727275" y="612.7727272727273"/>
      <point x="439.3181818181818" y="569.7272727272727"/>
      <point x="439.3181818181818" y="486.04545454545456" type="curve" smooth="yes"/>
      <point x="439.3181818181818" y="408.95454545454544"/>
      <point x="379.22727272727275" y="363.90909090909093"/>
      <point x="284.22727272727275" y="363.90909090909093" type="curve" smooth="yes"/>
      <point x="177.3181818181818" y="363.90909090909093" type="line"/>
      <point x="177.3181818181818" y="317.09090909090907" type="line"/>
      <point x="316.22727272727275" y="317.09090909090907" type="line" smooth="yes"/>
      <point x="429.22727272727275" y="317.09090909090907"/>
      <point x="496.3181818181818" y="275.6363636363636"/>
      <point x="496.3181818181818" y="181.54545454545453" type="curve" smooth="yes"/>
      <point x="496.3181818181818" y="102.68181818181819"/>
      <point x="428.22727272727275" y="46.40909090909091"/>
      <point x="323.22727272727275" y="46.40909090909091" type="curve" smooth="yes"/>
      <point x="197.3181818181818" y="46.40909090909091" type="line"/>
      <point x="197.3181818181818" y="0.0" type="line"/>
    </contour>
  </outline>
</glyph>
<glyph name="C" format="2">
  <advance width="721.0909090909091"/>
  <unicode hex="0043"/>
  <anchor x="395.1363636363636" y="710.0" name="top"/>
  <anchor x="397.54545454545456" y="0.0" name="bottom"/>
  <outline>
    <contour>
      <point x="397.1363636363636" y="-10.0" type="curve" smooth="yes"/>
      <point x="506.3181818181818" y="-10.0"/>
      <point x="560.3181818181819" y="10.0"/>
      <point x="618.9090909090909" y="39.0" type="curve"/>
      <point x="629.0909090909091" y="193.9090909090909" type="line"/>
      <point x="610.8636363636364" y="193.9090909090909" type="line"/>
      <point x="539.5909090909091" y="53.40909090909091" type="line"/>
      <point x="575.9545454545455" y="94.54545454545455" type="line"/>
      <point x="532.1363636363636" y="64.13636363636364"/>
      <point x="484.3636363636364" y="33.22727272727273"/>
      <point x="401.6818181818182" y="33.22727272727273" type="curve" smooth="yes"/>
      <point x="259.40909090909093" y="33.22727272727273"/>
      <point x="147.45454545454547" y="153.22727272727272"/>
      <point x="147.45454545454547" y="346.09090909090907" type="curve" smooth="yes"/>
      <point x="147.45454545454547" y="506.04545454545456"/>
      <point x="256.72727272727275" y="627.7727272727273"/>
      <point x="408.5" y="627.7727272727273" type="curve" smooth="yes"/>
      <point x="466.1818181818182" y="627.7727272727273"/>
      <point x="506.09090909090907" y="605.3181818181819"/>
      <point x="569.5" y="557.2727272727273" type="curve"/>
      <point x="534.3181818181819" y="602.6818181818181" type="line"/>
      <point x="599.2727272727273" y="454.77272727272725" type="line"/>
      <point x="618.5" y="454.77272727272725" type="line"/>
      <point x="613.5" y="621.5909090909091" type="line"/>
      <point x="559.0368290278636" y="648.1191103778636"/>
      <point x="510.5" y="670.0"/>
      <point x="412.95454545454544" y="670.0" type="curve" smooth="yes"/>
      <point x="226.36363636363637" y="670.0"/>
      <point x="70.0" y="507.00544441622725"/>
      <point x="70.0" y="312.0" type="curve" smooth="yes"/>
      <point x="70.0" y="127.22727272727273"/>
      <point x="199.5" y="-10.0"/>
    </contour>
  </outline>
</glyph>
<glyph name="E" format="2">
  <advance width="635.2272727272727"/>
  <unicode hex="0045"/>
  <anchor x="332.1363636363636" y="710.0" name="top"/>
  <anchor x="341.0" y="0.0" name="bottom"/>
  <anchor x="497.22727272727275" y="0.0" name="right"/>
  <outline>
    <contour>
      <point x="65.0" y="0.0" type="line"/>
      <point x="221.9090909090909" y="0.0" type="line"/>
      <point x="221.9090909090909" y="660.0" type="line"/>
      <point x="65.0" y="660.0" type="line"/>
      <point x="65.0" y="640.3181818181819" type="line"/>
      <point x="144.1818181818182" y="609.7272727272727" type="line"/>
      <point x="144.1818181818182" y="50.27272727272727" type="line"/>
      <point x="65.0" y="19.68181818181818" type="line"/>
    </contour>
    <contour>
      <point x="519.5909090909091" y="492.09090909090907" type="line"/>
      <point x="537.2272727272727" y="492.09090909090907" type="line"/>
      <point x="537.2272727272727" y="660.0" type="line"/>
      <point x="177.9090909090909" y="660.0" type="line"/>
      <point x="177.9090909090909" y="613.1818181818181" type="line"/>
      <point x="465.77272727272725" y="613.1818181818181" type="line"/>
    </contour>
    <contour>
      <point x="436.5909090909091" y="236.0909090909091" type="line"/>
      <point x="454.22727272727275" y="236.0909090909091" type="line"/>
      <point x="454.22727272727275" y="446.90909090909093" type="line"/>
      <point x="436.5909090909091" y="446.90909090909093" type="line"/>
      <point x="396.8181818181818" y="363.90909090909093" type="line"/>
      <point x="182.63636363636363" y="363.90909090909093" type="line"/>
      <point x="182.63636363636363" y="317.09090909090907" type="line"/>
      <point x="396.8181818181818" y="317.09090909090907" type="line"/>
    </contour>
    <contour>
      <point x="565.2272727272727" y="0.0" type="line"/>
      <point x="565.2272727272727" y="177.9090909090909" type="line"/>
      <point x="547.5909090909091" y="177.9090909090909" type="line"/>
      <point x="493.77272727272725" y="46.81818181818182" type="line"/>
      <point x="194.45454545454547" y="46.81818181818182" type="line"/>
      <point x="194.45454545454547" y="0.0" type="line"/>
    </contour>
  </outline>
</glyph>
<glyph name="F" format="2">
  <advance width="602.1363636363636"/>
  <unicode hex="0046"/>
  <outline>
    <contour>
      <point x="65.0" y="0.0" type="line"/>
      <point x="313.1363636363636" y="0.0" type="line"/>
      <point x="313.1363636363636" y="19.68181818181818" type="line"/>
      <point x="222.72727272727272" y="50.27272727272727" type="line"/>
      <point x="222.72727272727272" y="660.0" type="line"/>
      <point x="65.81818181818181" y="660.0" type="line"/>
      <point x="65.81818181818181" y="640.3181818181819" type="line"/>
      <point x="145.0" y="609.7272727272727" type="line"/>
      <point x="145.0" y="50.27272727272727" type="line"/>
      <point x="65.0" y="19.68181818181818" type="line"/>
    </contour>
    <contour>
      <point x="514.5" y="492.09090909090907" type="line"/>
      <point x="532.1363636363636" y="492.09090909090907" type="line"/>
      <point x="532.1363636363636" y="660.0" type="line"/>
      <point x="172.8181818181818" y="660.0" type="line"/>
      <point x="172.8181818181818" y="613.1818181818181" type="line"/>
      <point x="460.6818181818182" y="613.1818181818181" type="line"/>
    </contour>
    <contour>
      <point x="431.5" y="236.0909090909091" type="line"/>
      <point x="449.1363636363636" y="236.0909090909091" type="line"/>
      <point x="449.1363636363636" y="446.90909090909093" type="line"/>
      <point x="431.5" y="446.90909090909093" type="line"/>
      <point x="391.72727272727275" y="363.90909090909093" type="line"/>
      <point x="177.54545454545453" y="363.90909090909093" type="line"/>
      <point x="177.54545454545453" y="317.09090909090907" type="line"/>
      <point x="391.72727272727275" y="317.09090909090907" type="line"/>
    </contour>
  </outline>
</glyph>
<glyph name="G" format="2">
  <advance width="759.4090909090909"/>
  <unicode hex="0047"/>
  <anchor x="406.1363636363636" y="710.0" name="top"/>
  <anchor x="410.09090909090907" y="0.0" name="bottom"/>
  <outline>
    <contour>
      <point x="403.0" y="-10.0" type="curve" smooth="yes"/>
      <point x="484.90909090909093" y="-10.0"/>
      <point x="578.5909090909091" y="21.363636363636363"/>
      <point x="636.7272727272727" y="69.9090909090909" type="curve"/>
      <point x="636.7272727272727" y="237.95454545454544" type="line"/>
      <point x="709.4090909090909" y="270.3181818181818" type="line"/>
      <point x="709.4090909090909" y="290.0" type="line"/>
      <point x="470.8181818181818" y="290.0" type="line"/>
      <point x="470.8181818181818" y="270.3181818181818" type="line"/>
      <point x="559.0" y="238.5" type="line"/>
      <point x="559.0" y="52.81818181818182" type="line"/>
      <point x="588.0" y="75.86363636363636" type="line"/>
      <point x="529.7272727272727" y="46.22727272727273"/>
      <point x="479.6818181818182" y="40.22727272727273"/>
      <point x="424.22727272727275" y="40.22727272727273" type="curve" smooth="yes"/>
      <point x="270.59090909090907" y="40.22727272727273"/>
      <point x="145.0909090909091" y="158.0909090909091"/>
      <point x="145.0909090909091" y="357.90909090909093" type="curve" smooth="yes"/>
      <point x="145.0909090909091" y="507.54545454545456"/>
      <point x="255.6818181818182" y="627.7727272727273"/>
      <point x="417.45454545454544" y="627.7727272727273" type="curve" smooth="yes"/>
      <point x="479.77272727272725" y="627.7727272727273"/>
      <point x="519.7272727272727" y="609.3181818181819"/>
      <point x="588.9090909090909" y="557.2727272727273" type="curve"/>
      <point x="552.5454545454545" y="602.0909090909091" type="line"/>
      <point x="621.0454545454545" y="460.6818181818182" type="line"/>
      <point x="639.0909090909091" y="460.6818181818182" type="line"/>
      <point x="634.0909090909091" y="621.5909090909091" type="line"/>
      <point x="577.0909090909091" y="649.5909090909091"/>
      <point x="526.0909090909091" y="670.0"/>
      <point x="421.09090909090907" y="670.0" type="curve" smooth="yes"/>
      <point x="227.95454545454547" y="670.0"/>
      <point x="70.0" y="517.0"/>
      <point x="70.0" y="312.0" type="curve" smooth="yes"/>
      <point x="70.0" y="126.0"/>
      <point x="211.0" y="-10.0"/>
    </contour>
  </outline>
</glyph>
<glyph name="H" format="2">
  <advance width="799.3636363636364"/>
  <unicode hex="0048"/>
  <anchor x="399.6818181818182" y="710.0" name="top"/>
  <anchor x="399.6818181818182" y="0.0" name="bottom"/>
  <outline>
    <contour>
      <point x="65.0" y="0.0" type="line"/>
      <point x="304.3636363636364" y="0.0" type="line"/>
      <point x="304.3636363636364" y="19.68181818181818" type="line"/>
      <point x="221.9090909090909" y="50.27272727272727" type="line"/>
      <point x="221.9090909090909" y="609.7272727272727" type="line"/>
      <point x="304.3636363636364" y="640.3181818181819" type="line"/>
      <point x="304.3636363636364" y="660.0" type="line"/>
      <point x="65.0" y="660.0" type="line"/>
      <point x="65.0" y="640.3181818181819" type="line"/>
      <point x="144.1818181818182" y="609.7272727272727" type="line"/>
      <point x="144.1818181818182" y="50.27272727272727" type="line"/>
      <point x="65.0" y="19.68181818181818" type="line"/>
    </contour>
    <contour>
      <point x="185.9090909090909" y="317.09090909090907" type="line"/>
      <point x="615.9090909090909" y="317.09090909090907" type="line"/>
      <point x="615.9090909090909" y="363.90909090909093" type="line"/>
      <point x="185.9090909090909" y="363.90909090909093" type="line"/>
    </contour>
    <contour>
      <point x="495.0" y="0.0" type="line"/>
      <point x="734.3636363636364" y="0.0" type="line"/>
      <point x="734.3636363636364" y="19.68181818181818" type="line"/>
      <point x="655.1818181818181" y="50.27272727272727" type="line"/>
      <point x="655.1818181818181" y="609.7272727272727" type="line"/>
      <point x="734.3636363636364" y="640.3181818181819" type="line"/>
      <point x="734.3636363636364" y="660.0" type="line"/>
      <point x="495.0" y="660.0" type="line"/>
      <point x="495.0" y="640.3181818181819" type="line"/>
      <point x="577.4545454545455" y="609.7272727272727" type="line"/>
      <point x="577.4545454545455" y="50.27272727272727" type="line"/>
      <point x="495.0" y="19.68181818181818" type="line"/>
    </contour>
  </outline>
</glyph>
<glyph name="I" format="2">
  <advance width="376.0909090909091"/>
  <unicode hex="0049"/>
  <anchor x="188.04545454545456" y="710.0" name="top"/>
  <anchor x="188.45454545454547" y="0.0" name="bottom"/>
  <anchor x="202.1818181818182" y="0.0" name="right"/>
  <outline>
    <contour>
      <point x="70.0" y="0.0" type="line"/>
      <point x="306.0909090909091" y="0.0" type="line"/>
      <point x="306.0909090909091" y="19.68181818181818" type="line"/>
      <point x="226.9090909090909" y="50.27272727272727" type="line"/>
      <point x="226.9090909090909" y="609.7272727272727" type="line"/>
      <point x="306.0909090909091" y="640.3181818181819" type="line"/>
      <point x="306.0909090909091" y="660.0" type="line"/>
      <point x="70.0" y="660.0" type="line"/>
      <point x="70.0" y="640.3181818181819" type="line"/>
      <point x="149.1818181818182" y="609.7272727272727" type="line"/>
      <point x="149.1818181818182" y="50.27272727272727" type="line"/>
      <point x="70.0" y="19.68181818181818" type="line"/>
    </contour>
  </outline>
</glyph>
<glyph name="J" format="2">
  <advance width="377.72727272727275"/>
  <unicode hex="004A"/>
  <anchor x="188.86363636363637" y="710.0" name="top"/>
  <outline>
    <contour>
      <point x="46.0" y="-173.0" type="curve" smooth="yes"/>
      <point x="83.8656126482" y="-173.0"/>
      <point x="98.44773324090454" y="-164.2535886389091"/>
      <point x="154.86363636363637" y="-102.68181818181819" type="curve" smooth="yes"/>
      <point x="209.65950785631819" y="-43.10910349063182"/>
      <point x="227.72727272727272" y="71.9437836045"/>
      <point x="227.72727272727272" y="227.72727272727272" type="curve" smooth="yes"/>
      <point x="227.72727272727272" y="609.7272727272727" type="line"/>
      <point x="307.72727272727275" y="640.3181818181819" type="line"/>
      <point x="307.72727272727275" y="660.0" type="line"/>
      <point x="70.0" y="660.0" type="line"/>
      <point x="70.0" y="640.3181818181819" type="line"/>
      <point x="150.0" y="609.7272727272727" type="line"/>
      <point x="150.0" y="51.0" type="line" smooth="yes"/>
      <point x="150.0" y="-83.0"/>
      <point x="122.5909090909091" y="-103.27272727272727"/>
      <point x="79.5909090909091" y="-103.27272727272727" type="curve" smooth="yes"/>
      <point x="61.59090909090909" y="-103.27272727272727"/>
      <point x="51.59090909090909" y="-100.27272727272727"/>
      <point x="28.59090909090909" y="-94.27272727272727" type="curve"/>
      <point x="22.59090909090909" y="-94.27272727272727" type="line"/>
      <point x="14.227272727272727" y="-134.9090909090909"/>
      <point x="13.0" y="-142.0"/>
      <point x="13.0" y="-145.0" type="curve" smooth="yes"/>
      <point x="13.0" y="-166.0"/>
      <point x="29.0" y="-173.0"/>
    </contour>
  </outline>
</glyph>
<glyph name="K" format="2">
  <advance width="712.4545454545455"/>
  <unicode hex="004B"/>
  <anchor x="371.5" y="710.0" name="top"/>
  <anchor x="371.5" y="0.0" name="bottom"/>
  <outline>
    <contour>
      <point x="65.0" y="0.0" type="line"/>
      <point x="302.72727272727275" y="0.0" type="line"/>
      <point x="302.72727272727275" y="19.68181818181818" type="line"/>
      <point x="222.72727272727272" y="50.27272727272727" type="line"/>
      <point x="222.72727272727272" y="609.7272727272727" type="line"/>
      <point x="302.72727272727275" y="640.3181818181819" type="line"/>
      <point x="302.72727272727275" y="660.0" type="line"/>
      <point x="65.0" y="660.0" type="line"/>
      <point x="65.0" y="640.3181818181819" type="line"/>
      <point x="145.0" y="609.7272727272727" type="line"/>
      <point x="145.0" y="50.27272727272727" type="line"/>
      <point x="65.0" y="19.68181818181818" type="line"/>
    </contour>
    <contour>
      <point x="221.27272727272728" y="338.0" type="line"/>
      <point x="557.5454545454545" y="0.0" type="line"/>
      <point x="689.2727272727273" y="0.0" type="line"/>
      <point x="689.2727272727273" y="19.68181818181818" type="line"/>
      <point x="588.8636363636364" y="52.45454545454545" type="line"/>
      <point x="640.5" y="25.681818181818183" type="line"/>
      <point x="278.8636363636364" y="380.6818181818182" type="line"/>
      <point x="277.6363636363636" y="337.59090909090907" type="line"/>
      <point x="591.8181818181819" y="635.5454545454545" type="line"/>
      <point x="556.9545454545455" y="614.6818181818181" type="line"/>
      <point x="637.2727272727273" y="640.3181818181819" type="line"/>
      <point x="637.2727272727273" y="660.0" type="line"/>
      <point x="432.1818181818182" y="660.0" type="line"/>
      <point x="432.1818181818182" y="640.3181818181819" type="line"/>
      <point x="524.6818181818181" y="605.6818181818181" type="line"/>
      <point x="522.2272727272727" y="629.0454545454545" type="line"/>
    </contour>
  </outline>
</glyph>
<glyph name="L" format="2">
  <advance width="623.4090909090909"/>
  <unicode hex="004C"/>
  <anchor x="338.8636363636364" y="0.0" name="bottom"/>
  <anchor x="183.45454545454547" y="710.0" name="top"/>
  <anchor x="469.6818181818182" y="660.0" name="right"/>
  <anchor x="485.5" y="344.1363636363636" name="mid"/>
  <outline>
    <contour>
      <point x="65.0" y="0.0" type="line"/>
      <point x="553.4090909090909" y="0.0" type="line"/>
      <point x="553.4090909090909" y="217.9090909090909" type="line"/>
      <point x="535.7727272727273" y="217.9090909090909" type="line"/>
      <point x="476.3636363636364" y="46.81818181818182" type="line"/>
      <point x="221.9090909090909" y="46.81818181818182" type="line"/>
      <point x="221.9090909090909" y="609.7272727272727" type="line"/>
      <point x="311.90909090909093" y="640.3181818181819" type="line"/>
      <point x="311.90909090909093" y="660.0" type="line"/>
      <point x="65.0" y="660.0" type="line"/>
      <point x="65.0" y="640.3181818181819" type="line"/>
      <point x="144.1818181818182" y="609.7272727272727" type="line"/>
      <point x="144.1818181818182" y="50.27272727272727" type="line"/>
      <point x="65.0" y="19.68181818181818" type="line"/>
    </contour>
  </outline>
</glyph>
<glyph name="M" format="2">
  <advance width="949.1818181818181"/>
  <unicode hex="004D"/>
  <anchor x="467.09090909090907" y="0.0" name="bottom"/>
  <outline>
    <contour>
      <point x="60.0" y="0.0" type="line"/>
      <point x="274.6363636363636" y="0.0" type="line"/>
      <point x="274.6363636363636" y="19.68181818181818" type="line"/>
      <point x="193.63636363636363" y="49.27272727272727" type="line"/>
      <point x="208.4090909090909" y="639.9545454545455" type="line"/>
      <point x="161.0" y="639.9545454545455" type="line"/>
      <point x="139.0" y="50.27272727272727" type="line"/>
      <point x="60.0" y="19.68181818181818" type="line"/>
    </contour>
    <contour>
      <point x="449.0" y="-5.0" type="line"/>
      <point x="484.1818181818182" y="-5.0" type="line"/>
      <point x="748.2727272727273" y="602.7272727272727" type="line"/>
      <point x="787.1818181818181" y="602.7272727272727" type="line"/>
      <point x="886.1818181818181" y="640.3181818181819" type="line"/>
      <point x="886.1818181818181" y="660.0" type="line"/>
      <point x="720.0" y="660.0" type="line"/>
      <point x="462.54545454545456" y="66.9090909090909" type="line"/>
      <point x="500.5" y="71.0" type="line"/>
      <point x="246.72727272727272" y="660.0" type="line"/>
      <point x="74.0" y="660.0" type="line"/>
      <point x="74.0" y="640.3181818181819" type="line"/>
      <point x="173.0" y="602.7272727272727" type="line"/>
      <point x="189.5909090909091" y="602.7272727272727" type="line"/>
    </contour>
    <contour>
      <point x="669.0" y="0.0" type="line"/>
      <point x="889.1818181818181" y="0.0" type="line"/>
      <point x="889.1818181818181" y="19.68181818181818" type="line"/>
      <point x="819.1818181818181" y="50.27272727272727" type="line"/>
      <point x="801.1818181818181" y="639.9545454545455" type="line"/>
      <point x="731.0" y="639.9545454545455" type="line"/>
      <point x="743.0" y="49.27272727272727" type="line"/>
      <point x="669.0" y="19.68181818181818" type="line"/>
    </contour>
  </outline>
</glyph>
<glyph name="N" format="2">
  <advance width="792.8636363636364"/>
  <unicode hex="004E"/>
  <anchor x="402.6363636363636" y="710.0" name="top"/>
  <anchor x="408.54545454545456" y="0.0" name="bottom"/>
  <outline>
    <contour>
      <point x="62.04545454545455" y="0.0" type="line"/>
      <point x="295.27272727272725" y="0.0" type="line"/>
      <point x="295.27272727272725" y="19.68181818181818" type="line"/>
      <point x="198.95454545454547" y="50.90909090909091" type="line"/>
      <point x="198.95454545454547" y="577.3636363636364" type="line"/>
      <point x="169.9090909090909" y="577.3636363636364" type="line"/>
      <point x="621.3636363636364" y="-5.0" type="line"/>
      <point x="652.2272727272727" y="-5.0" type="line"/>
      <point x="652.2272727272727" y="610.3181818181819" type="line"/>
      <point x="730.8181818181819" y="640.3181818181819" type="line"/>
      <point x="730.8181818181819" y="660.0" type="line"/>
      <point x="501.04545454545456" y="660.0" type="line"/>
      <point x="501.04545454545456" y="640.3181818181819" type="line"/>
      <point x="595.3181818181819" y="610.9090909090909" type="line"/>
      <point x="595.3181818181819" y="84.04545454545455" type="line"/>
      <point x="647.4545454545455" y="84.04545454545455" type="line"/>
      <point x="203.0909090909091" y="660.0" type="line"/>
      <point x="62.63636363636363" y="660.0" type="line"/>
      <point x="62.63636363636363" y="640.3181818181819" type="line"/>
      <point x="141.22727272727272" y="608.5454545454545" type="line"/>
      <point x="141.22727272727272" y="50.27272727272727" type="line"/>
      <point x="62.04545454545455" y="19.68181818181818" type="line"/>
    </contour>
  </outline>
</glyph>
<glyph name="O" format="2">
  <advance width="790.6363636363636"/>
  <unicode hex="004F"/>
  <anchor x="388.1363636363636" y="710.0" name="top"/>
  <anchor x="403.5" y="0.0" name="bottom"/>
  <anchor x="428.95454545454544" y="0.0" name="right"/>
  <outline>
    <contour>
      <point x="394.8181818181818" y="-10.0" type="curve" smooth="yes"/>
      <point x="582.3181818181819" y="-10.0"/>
      <point x="720.6363636363636" y="134.0"/>
      <point x="720.6363636363636" y="330.0" type="curve" smooth="yes"/>
      <point x="720.6363636363636" y="526.0"/>
      <point x="582.3181818181819" y="670.0"/>
      <point x="394.8181818181818" y="670.0" type="curve" smooth="yes"/>
      <point x="208.3181818181818" y="670.0"/>
      <point x="70.0" y="526.0"/>
      <point x="70.0" y="330.0" type="curve" smooth="yes"/>
      <point x="70.0" y="134.0"/>
      <point x="208.3181818181818" y="-10.0"/>
    </contour>
    <contour>
      <point x="415.8181818181818" y="31.81818181818182" type="curve" smooth="yes"/>
      <point x="269.3175109023636" y="31.81818181818182"/>
      <point x="152.6818181818182" y="163.0909090909091"/>
      <point x="152.6818181818182" y="363.0" type="curve" smooth="yes"/>
      <point x="152.6818181818182" y="525.9090909090909"/>
      <point x="246.30667186895454" y="629.1818181818181"/>
      <point x="377.8181818181818" y="629.1818181818181" type="curve" smooth="yes"/>
      <point x="523.0909090909091" y="629.1818181818181"/>
      <point x="637.9545454545455" y="498.90909090909093"/>
      <point x="637.9545454545455" y="299.0" type="curve" smooth="yes"/>
      <point x="637.9545454545455" y="136.0909090909091"/>
      <point x="547.5" y="31.81818181818182"/>
    </contour>
  </outline>
</glyph>
<glyph name="P" format="2">
  <advance width="613.4545454545455"/>
  <unicode hex="0050"/>
  <outline>
    <contour>
      <point x="65.0" y="0.0" type="line"/>
      <point x="312.72727272727275" y="0.0" type="line"/>
      <point x="312.72727272727275" y="19.68181818181818" type="line"/>
      <point x="222.72727272727272" y="50.27272727272727" type="line"/>
      <point x="222.72727272727272" y="613.1818181818181" type="line"/>
      <point x="296.6363636363636" y="613.1818181818181" type="line" smooth="yes"/>
      <point x="409.6363636363636" y="613.1818181818181"/>
      <point x="476.72727272727275" y="571.7272727272727"/>
      <point x="476.72727272727275" y="473.0" type="curve" smooth="yes"/>
      <point x="476.72727272727275" y="393.09090909090907"/>
      <point x="408.6363636363636" y="337.8181818181818"/>
      <point x="303.6363636363636" y="337.8181818181818" type="curve" smooth="yes"/>
      <point x="197.72727272727272" y="337.8181818181818" type="line"/>
      <point x="197.72727272727272" y="291.0" type="line"/>
      <point x="280.95454545454544" y="291.0" type="line" smooth="yes"/>
      <point x="443.95454545454544" y="291.0"/>
      <point x="561.4545454545455" y="372.0"/>
      <point x="561.4545454545455" y="481.0" type="curve" smooth="yes"/>
      <point x="561.4545454545455" y="605.0"/>
      <point x="457.45454545454544" y="660.0"/>
      <point x="300.45454545454544" y="660.0" type="curve" smooth="yes"/>
      <point x="65.0" y="660.0" type="line"/>
      <point x="65.0" y="640.3181818181819" type="line"/>
      <point x="145.0" y="609.7272727272727" type="line"/>
      <point x="145.0" y="50.27272727272727" type="line"/>
      <point x="65.0" y="19.68181818181818" type="line"/>
    </contour>
  </outline>
</glyph>
<glyph name="Q" format="2">
  <advance width="794.7272727272727"/>
  <unicode hex="0051"/>
  <outline>
    <contour>
      <point x="394.8181818181818" y="-10.0" type="curve" smooth="yes"/>
      <point x="582.3181818181819" y="-10.0"/>
      <point x="720.6363636363636" y="134.0"/>
      <point x="720.6363636363636" y="330.0" type="curve" smooth="yes"/>
      <point x="720.6363636363636" y="526.0"/>
      <point x="582.3181818181819" y="670.0"/>
      <point x="394.8181818181818" y="670.0" type="curve" smooth="yes"/>
      <point x="208.3181818181818" y="670.0"/>
      <point x="70.0" y="526.0"/>
      <point x="70.0" y="330.0" type="curve" smooth="yes"/>
      <point x="70.0" y="134.0"/>
      <point x="208.3181818181818" y="-10.0"/>
    </contour>
    <contour>
      <point x="415.8181818181818" y="31.81818181818182" type="curve" smooth="yes"/>
      <point x="269.1363636363636" y="31.81818181818182"/>
      <point x="152.6818181818182" y="163.0909090909091"/>
      <point x="152.6818181818182" y="363.0" type="curve" smooth="yes"/>
      <point x="152.6818181818182" y="525.9090909090909"/>
      <point x="246.13636363636363" y="629.1818181818181"/>
      <point x="377.8181818181818" y="629.1818181818181" type="curve" smooth="yes"/>
      <point x="523.0909090909091" y="629.1818181818181"/>
      <point x="637.9545454545455" y="498.90909090909093"/>
      <point x="637.9545454545455" y="299.0" type="curve" smooth="yes"/>
      <point x="637.9545454545455" y="136.0909090909091"/>
      <point x="547.5" y="31.81818181818182"/>
    </contour>
    <contour>
      <point x="673.4090909090909" y="-149.0" type="curve" smooth="yes"/>
      <point x="721.7727272727273" y="-149.0"/>
      <point x="765.3636363636364" y="-136.77272727272728"/>
      <point x="794.7272727272727" y="-122.0" type="curve"/>
      <point x="794.7272727272727" y="-103.54545454545455" type="line"/>
      <point x="775.0080624955909" y="-110.74783325290909"/>
      <point x="750.1363636363636" y="-115.0"/>
      <point x="721.7272727272727" y="-115.0" type="curve" smooth="yes"/>
      <point x="648.8636363636364" y="-115.0"/>
      <point x="588.8181818181819" y="-88.31818181818181"/>
      <point x="453.95454545454544" y="16.0" type="curve"/>
      <point x="341.27272727272725" y="16.0" type="line"/>
      <point x="510.5" y="-126.81818181818181"/>
      <point x="589.5909090909091" y="-149.0"/>
    </contour>
  </outline>
</glyph>
<glyph name="R" format="2">
  <advance width="637.2727272727273"/>
  <unicode hex="0052"/>
  <anchor x="308.8181818181818" y="710.0" name="top"/>
  <anchor x="358.8181818181818" y="0.0" name="bottom"/>
  <outline>
    <contour>
      <point x="65.0" y="0.0" type="line"/>
      <point x="297.72727272727275" y="0.0" type="line"/>
      <point x="297.72727272727275" y="19.68181818181818" type="line"/>
      <point x="222.72727272727272" y="51.27272727272727" type="line"/>
      <point x="222.72727272727272" y="660.0" type="line"/>
      <point x="65.0" y="660.0" type="line"/>
      <point x="65.0" y="640.3181818181819" type="line"/>
      <point x="145.0" y="609.7272727272727" type="line"/>
      <point x="145.0" y="50.27272727272727" type="line"/>
      <point x="65.0" y="19.68181818181818" type="line"/>
    </contour>
    <contour>
      <point x="524.4545454545455" y="497.0" type="curve" smooth="yes"/>
      <point x="524.4545454545455" y="598.0"/>
      <point x="438.45454545454544" y="660.0"/>
      <point x="298.45454545454544" y="660.0" type="curve" smooth="yes"/>
      <point x="182.0" y="660.0" type="line"/>
      <point x="182.0" y="613.1818181818181" type="line"/>
      <point x="287.72727272727275" y="613.1818181818181" type="line" smooth="yes"/>
      <point x="381.72727272727275" y="613.1818181818181"/>
      <point x="439.72727272727275" y="563.9090909090909"/>
      <point x="439.72727272727275" y="484.0" type="curve" smooth="yes"/>
      <point x="439.72727272727275" y="408.54545454545456"/>
      <point x="377.72727272727275" y="353.90909090909093"/>
      <point x="293.72727272727275" y="353.90909090909093" type="curve"/>
      <point x="190.0" y="353.90909090909093" type="line"/>
      <point x="190.0" y="307.09090909090907" type="line"/>
      <point x="322.77272727272725" y="307.09090909090907" type="line"/>
      <point x="322.77272727272725" y="316.09090909090907" type="line"/>
      <point x="439.40909090909093" y="331.77272727272725"/>
      <point x="524.4545454545455" y="402.22727272727275"/>
    </contour>
    <contour>
      <point x="509.72727272727275" y="0.0" type="line"/>
      <point x="642.2727272727273" y="0.0" type="line"/>
      <point x="642.2727272727273" y="19.68181818181818" type="line"/>
      <point x="576.2727272727273" y="46.27272727272727" type="line"/>
      <point x="378.27272727272725" y="341.0" type="line"/>
      <point x="291.72727272727275" y="341.0" type="line"/>
    </contour>
  </outline>
</glyph>
<glyph name="S" format="2">
  <advance width="524.8636363636364"/>
  <unicode hex="0053"/>
  <anchor x="271.1818181818182" y="710.0" name="top"/>
  <anchor x="267.5" y="0.0" name="bottom"/>
  <outline>
    <contour>
      <point x="259.90909090909093" y="-10.0" type="curve" smooth="yes"/>
      <point x="356.40909090909093" y="-10.0"/>
      <point x="469.8636363636364" y="58.27272727272727"/>
      <point x="469.8636363636364" y="172.63636363636363" type="curve" smooth="yes"/>
      <point x="469.8636363636364" y="275.45454545454544"/>
      <point x="414.6818181818182" y="313.6818181818182"/>
      <point x="293.6818181818182" y="372.27272727272725" type="curve" smooth="yes"/>
      <point x="201.5909090909091" y="417.3181818181818"/>
      <point x="159.13636363636363" y="447.54545454545456"/>
      <point x="159.13636363636363" y="518.8181818181819" type="curve" smooth="yes"/>
      <point x="159.13636363636363" y="581.0909090909091"/>
      <point x="202.36363636363637" y="629.3636363636364"/>
      <point x="270.77272727272725" y="629.3636363636364" type="curve" smooth="yes"/>
      <point x="320.0" y="629.3636363636364"/>
      <point x="351.0" y="612.5454545454545"/>
      <point x="399.54545454545456" y="570.5" type="curve"/>
      <point x="375.8181818181818" y="606.5" type="line"/>
      <point x="430.40909090909093" y="472.09090909090907" type="line"/>
      <point x="447.22727272727275" y="472.09090909090907" type="line"/>
      <point x="437.22727272727275" y="628.0" type="line"/>
      <point x="384.04545454545456" y="654.5909090909091"/>
      <point x="336.6818181818182" y="670.0"/>
      <point x="275.90909090909093" y="670.0" type="curve" smooth="yes"/>
      <point x="177.36363636363637" y="670.0"/>
      <point x="82.63636363636364" y="579.0454545454545"/>
      <point x="82.63636363636364" y="491.09090909090907" type="curve" smooth="yes"/>
      <point x="82.63636363636364" y="400.72727272727275"/>
      <point x="132.77272727272728" y="363.1363636363636"/>
      <point x="223.9090909090909" y="317.3636363636364" type="curve" smooth="yes"/>
      <point x="328.8181818181818" y="264.90909090909093"/>
      <point x="394.90909090909093" y="243.9090909090909"/>
      <point x="394.90909090909093" y="153.63636363636363" type="curve" smooth="yes"/>
      <point x="394.90909090909093" y="76.5"/>
      <point x="348.3181818181818" y="30.454545454545453"/>
      <point x="265.22727272727275" y="30.454545454545453" type="curve" smooth="yes"/>
      <point x="215.0" y="30.454545454545453"/>
      <point x="167.5909090909091" y="46.18181818181819"/>
      <point x="113.77272727272727" y="93.4090909090909" type="curve"/>
      <point x="144.04545454545453" y="47.40909090909091" type="line"/>
      <point x="76.81818181818181" y="195.9090909090909" type="line"/>
      <point x="60.0" y="195.9090909090909" type="line"/>
      <point x="70.0" y="36.0" type="line"/>
      <point x="130.77272727272728" y="5.409090909090909"/>
      <point x="179.54545454545453" y="-10.0"/>
    </contour>
  </outline>
</glyph>
<glyph name="T" format="2">
  <advance width="669.9090909090909"/>
  <unicode hex="0054"/>
  <anchor x="334.95454545454544" y="710.0" name="top"/>
  <anchor x="334.95454545454544" y="0.0" name="bottom"/>
  <outline>
    <contour>
      <point x="196.0909090909091" y="0.0" type="line"/>
      <point x="473.8181818181818" y="0.0" type="line"/>
      <point x="473.8181818181818" y="19.68181818181818" type="line"/>
      <point x="373.8181818181818" y="50.27272727272727" type="line"/>
      <point x="373.8181818181818" y="613.1818181818181" type="line"/>
      <point x="549.9090909090909" y="613.1818181818181" type="line"/>
      <point x="607.2727272727273" y="466.1818181818182" type="line"/>
      <point x="624.9090909090909" y="466.1818181818182" type="line"/>
      <point x="624.9090909090909" y="660.0" type="line"/>
      <point x="45.0" y="660.0" type="line"/>
      <point x="45.0" y="466.1818181818182" type="line"/>
      <point x="62.63636363636363" y="466.1818181818182" type="line"/>
      <point x="120.0" y="613.1818181818181" type="line"/>
      <point x="296.09090909090907" y="613.1818181818181" type="line"/>
      <point x="296.09090909090907" y="50.27272727272727" type="line"/>
      <point x="196.0909090909091" y="19.68181818181818" type="line"/>
    </contour>
  </outline>
</glyph>
<glyph name="V" format="2">
  <advance width="720.7727272727273"/>
  <unicode hex="0056"/>
  <outline>
    <contour>
      <point x="349.04545454545456" y="-5.0" type="line"/>
      <point x="378.3181818181818" y="-5.0" type="line"/>
      <point x="636.7727272727273" y="632.0" type="line"/>
      <point x="613.1818181818181" y="611.1363636363636" type="line"/>
      <point x="685.7727272727273" y="640.3181818181819" type="line"/>
      <point x="685.7727272727273" y="660.0" type="line"/>
      <point x="485.59090909090907" y="660.0" type="line"/>
      <point x="485.59090909090907" y="640.3181818181819" type="line"/>
      <point x="570.0454545454545" y="614.5" type="line"/>
      <point x="570.0454545454545" y="610.9090909090909" type="line"/>
      <point x="367.6818181818182" y="87.95454545454545" type="line"/>
      <point x="398.72727272727275" y="124.36363636363637" type="line"/>
      <point x="359.04545454545456" y="124.36363636363637" type="line"/>
      <point x="390.5" y="87.95454545454545" type="line"/>
      <point x="184.6818181818182" y="608.5454545454545" type="line"/>
      <point x="184.6818181818182" y="612.7272727272727" type="line"/>
      <point x="269.8636363636364" y="640.3181818181819" type="line"/>
      <point x="269.8636363636364" y="660.0" type="line"/>
      <point x="35.0" y="660.0" type="line"/>
      <point x="35.0" y="640.3181818181819" type="line"/>
      <point x="140.3181818181818" y="596.5909090909091" type="line"/>
      <point x="92.77272727272727" y="632.0" type="line"/>
    </contour>
  </outline>
</glyph>
<glyph name="W" format="2">
  <advance width="969.9545454545455"/>
  <unicode hex="0057"/>
  <anchor x="499.8636363636364" y="710.0" name="top"/>
  <outline>
    <contour>
      <point x="271.54545454545456" y="-5.0" type="line"/>
      <point x="300.8181818181818" y="-5.0" type="line"/>
      <point x="502.59090909090907" y="552.0" type="line"/>
      <point x="467.72727272727275" y="502.59090909090907" type="line"/>
      <point x="507.0" y="502.59090909090907" type="line"/>
      <point x="471.72727272727275" y="552.0" type="line"/>
      <point x="675.5454545454545" y="-5.0" type="line"/>
      <point x="704.8181818181819" y="-5.0" type="line"/>
      <point x="894.9545454545455" y="632.0" type="line"/>
      <point x="864.9545454545455" y="601.9545454545455" type="line"/>
      <point x="954.9545454545455" y="640.3181818181819" type="line"/>
      <point x="954.9545454545455" y="660.0" type="line"/>
      <point x="745.0" y="660.0" type="line"/>
      <point x="745.0" y="640.3181818181819" type="line"/>
      <point x="854.4090909090909" y="602.7727272727273" type="line"/>
      <point x="838.0" y="632.0" type="line"/>
      <point x="692.7727272727273" y="114.27272727272728" type="line"/>
      <point x="719.8636363636364" y="149.04545454545456" type="line"/>
      <point x="680.5909090909091" y="149.04545454545456" type="line"/>
      <point x="710.0454545454545" y="114.27272727272728" type="line"/>
      <point x="514.5909090909091" y="665.0" type="line"/>
      <point x="484.1363636363636" y="665.0" type="line"/>
      <point x="295.59090909090907" y="112.18181818181819" type="line"/>
      <point x="325.22727272727275" y="149.45454545454544" type="line"/>
      <point x="285.95454545454544" y="149.45454545454544" type="line"/>
      <point x="315.0" y="112.18181818181819" type="line"/>
      <point x="165.95454545454547" y="632.0" type="line"/>
      <point x="129.95454545454547" y="599.7727272727273" type="line"/>
      <point x="257.95454545454544" y="640.3181818181819" type="line"/>
      <point x="257.95454545454544" y="660.0" type="line"/>
      <point x="15.0" y="660.0" type="line"/>
      <point x="15.0" y="640.3181818181819" type="line"/>
      <point x="125.22727272727273" y="599.7727272727273" type="line"/>
      <point x="83.0" y="632.0" type="line"/>
    </contour>
  </outline>
</glyph>
<glyph name="Y" format="2">
  <advance width="705.7272727272727"/>
  <unicode hex="0059"/>
  <anchor x="356.8636363636364" y="0.0" name="bottom"/>
  <anchor x="366.22727272727275" y="710.0" name="top"/>
  <outline>
    <contour>
      <point x="228.0" y="0.0" type="line"/>
      <point x="485.72727272727275" y="0.0" type="line"/>
      <point x="485.72727272727275" y="19.68181818181818" type="line"/>
      <point x="395.72727272727275" y="50.27272727272727" type="line"/>
      <point x="395.72727272727275" y="328.72727272727275" type="line"/>
      <point x="374.72727272727275" y="279.09090909090907" type="line"/>
      <point x="621.7272727272727" y="636.5" type="line"/>
      <point x="589.0" y="608.5909090909091" type="line"/>
      <point x="670.7272727272727" y="640.3181818181819" type="line"/>
      <point x="670.7272727272727" y="660.0" type="line"/>
      <point x="469.3636363636364" y="660.0" type="line"/>
      <point x="469.3636363636364" y="640.3181818181819" type="line"/>
      <point x="541.9545454545455" y="613.3181818181819" type="line"/>
      <point x="541.9545454545455" y="609.3181818181819" type="line"/>
      <point x="365.45454545454544" y="338.6363636363636" type="line"/>
      <point x="388.04545454545456" y="338.6363636363636" type="line"/>
      <point x="192.54545454545456" y="609.9090909090909" type="line"/>
      <point x="192.54545454545456" y="613.9090909090909" type="line"/>
      <point x="263.0909090909091" y="640.3181818181819" type="line"/>
      <point x="263.0909090909091" y="660.0" type="line"/>
      <point x="35.0" y="660.0" type="line"/>
      <point x="35.0" y="640.3181818181819" type="line"/>
      <point x="130.0" y="599.7727272727273" type="line"/>
      <point x="81.22727272727273" y="636.5" type="line"/>
      <point x="340.8181818181818" y="279.09090909090907" type="line"/>
      <point x="318.0" y="328.72727272727275" type="line"/>
      <point x="318.0" y="50.27272727272727" type="line"/>
      <point x="228.0" y="19.68181818181818" type="line"/>
    </contour>
  </outline>
</glyph>
<glyph name="Z" format="2">
  <advance width="638.2272727272727"/>
  <unicode hex="005A"/>
  <anchor x="325.22727272727275" y="710.0" name="top"/>
  <anchor x="325.22727272727275" y="0.0" name="bottom"/>
  <outline>
    <contour>
      <point x="90.0" y="0.0" type="line"/>
      <point x="548.2272727272727" y="0.0" type="line"/>
      <point x="548.2272727272727" y="187.9090909090909" type="line"/>
      <point x="530.5909090909091" y="187.9090909090909" type="line"/>
      <point x="476.77272727272725" y="46.81818181818182" type="line"/>
      <point x="169.72727272727272" y="46.81818181818182" type="line"/>
      <point x="169.72727272727272" y="16.954545454545453" type="line"/>
      <point x="537.2272727272727" y="637.0454545454545" type="line"/>
      <point x="537.2272727272727" y="660.0" type="line"/>
      <point x="102.0" y="660.0" type="line"/>
      <point x="102.0" y="482.09090909090907" type="line"/>
      <point x="119.63636363636364" y="482.09090909090907" type="line"/>
      <point x="173.45454545454547" y="613.1818181818181" type="line"/>
      <point x="456.90909090909093" y="613.1818181818181" type="line"/>
      <point x="456.90909090909093" y="643.8636363636364" type="line"/>
      <point x="90.0" y="22.954545454545453" type="line"/>
    </contour>
  </outline>
</glyph>
<glyph name="bracketleft" format="2">
  <advance width="241.8181818181818"/>
  <unicode hex="005B"/>
  <outline>
    <contour>
      <point x="60.90909090909091" y="-150.0" type="line"/>
      <point x="113.04545454545455" y="-150.0" type="line"/>
      <point x="113.04545454545455" y="740.0" type="line"/>
      <point x="60.90909090909091" y="740.0" type="line"/>
    </contour>
    <contour>
      <point x="62.90909090909091" y="740.0" type="line"/>
      <point x="62.90909090909091" y="719.0454545454545" type="line"/>
      <point x="233.54545454545456" y="719.0454545454545" type="line"/>
      <point x="233.54545454545456" y="740.0" type="line"/>
    </contour>
    <contour>
      <point x="62.90909090909091" y="-150.0" type="line"/>
      <point x="233.54545454545456" y="-150.0" type="line"/>
      <point x="233.54545454545456" y="-129.04545454545453" type="line"/>
      <point x="62.90909090909091" y="-129.04545454545453" type="line"/>
    </contour>
  </outline>
</glyph>
<glyph name="bracketright" format="2">
  <advance width="241.8181818181818"/>
  <unicode hex="005D"/>
  <outline>
    <contour>
      <point x="128.77272727272728" y="-150.0" type="line"/>
      <point x="180.9090909090909" y="-150.0" type="line"/>
      <point x="180.9090909090909" y="740.0" type="line"/>
      <point x="128.77272727272728" y="740.0" type="line"/>
    </contour>
    <contour>
      <point x="8.272727272727273" y="740.0" type="line"/>
      <point x="8.272727272727273" y="719.0454545454545" type="line"/>
      <point x="178.9090909090909" y="719.0454545454545" type="line"/>
      <point x="178.9090909090909" y="740.0" type="line"/>
    </contour>
    <contour>
      <point x="8.272727272727273" y="-150.0" type="line"/>
      <point x="178.9090909090909" y="-150.0" type="line"/>
      <point x="178.9090909090909" y="-129.04545454545453" type="line"/>
      <point x="8.272727272727273" y="-129.04545454545453" type="line"/>
    </contour>
  </outline>
</glyph>
<glyph name="asciicircum" format="2">
  <advance width="500.0"/>
  <unicode hex="005E"/>
  <outline>
    <contour>
      <point x="40.0" y="250.0" type="line"/>
      <point x="85.18181818181819" y="250.0" type="line"/>
      <point x="262.09090909090907" y="640.0" type="line"/>
      <point x="237.9090909090909" y="640.0" type="line"/>
      <point x="414.8181818181818" y="250.0" type="line"/>
      <point x="460.0" y="250.0" type="line"/>
      <point x="270.09090909090907" y="670.0" type="line"/>
      <point x="229.9090909090909" y="670.0" type="line"/>
    </contour>
  </outline>
</glyph>
<glyph name="underscore" format="2">
  <advance width="500.0"/>
  <unicode hex="005F"/>
  <outline>
    <contour>
      <point x="25.0" y="-135.9090909090909" type="line"/>
      <point x="475.0" y="-135.9090909090909" type="line"/>
      <point x="475.0" y="-94.0909090909091" type="line"/>
      <point x="25.0" y="-94.0909090909091" type="line"/>
    </contour>
  </outline>
</glyph>
<glyph name="a" format="2">
  <advance width="473.8636363636364"/>
  <unicode hex="0061"/>
  <anchor x="221.3181818181818" y="510.0" name="top"/>
  <anchor x="395.8636363636364" y="0.0" name="right"/>
  <anchor x="229.22727272727272" y="0.0" name="bottom"/>
  <outline>
    <contour>
      <point x="156.0" y="-10.0" type="curve" smooth="yes"/>
      <point x="211.5909090909091" y="-10.0"/>
      <point x="263.95454545454544" y="16.0"/>
      <point x="298.95454545454544" y="50.0" type="curve"/>
      <point x="315.3181818181818" y="50.0" type="line"/>
      <point x="315.3181818181818" y="78.0909090909091" type="line"/>
      <point x="271.04545454545456" y="53.04545454545455"/>
      <point x="231.6818181818182" y="43.0"/>
      <point x="194.27272727272728" y="43.0" type="curve" smooth="yes"/>
      <point x="143.0" y="43.0"/>
      <point x="113.95454545454545" y="66.45454545454545"/>
      <point x="113.95454545454545" y="113.18181818181819" type="curve" smooth="yes"/>
      <point x="113.95454545454545" y="165.27272727272728"/>
      <point x="139.5" y="197.4090909090909"/>
      <point x="330.54545454545456" y="232.27272727272728" type="curve"/>
      <point x="330.54545454545456" y="262.54545454545456" type="line"/>
      <point x="202.3181818181818" y="231.3181818181818" type="line" smooth="yes"/>
      <point x="90.5909090909091" y="204.3181818181818"/>
      <point x="47.40909090909091" y="158.5909090909091"/>
      <point x="47.40909090909091" y="94.0" type="curve" smooth="yes"/>
      <point x="47.40909090909091" y="29.0"/>
      <point x="93.4090909090909" y="-10.0"/>
    </contour>
    <contour>
      <point x="380.90909090909093" y="-10.0" type="curve" smooth="yes"/>
      <point x="422.22727272727275" y="-10.0"/>
      <point x="449.72727272727275" y="12.727272727272727"/>
      <point x="462.8636363636364" y="35.59090909090909" type="curve"/>
      <point x="462.8636363636364" y="38.18181818181819" type="line"/>
      <point x="460.6818181818182" y="39.77272727272727" type="line"/>
      <point x="416.95454545454544" y="39.77272727272727" type="line" smooth="yes"/>
      <point x="391.45454545454544" y="39.77272727272727"/>
      <point x="376.0909090909091" y="46.36363636363637"/>
      <point x="366.27272727272725" y="55.95454545454545" type="curve"/>
      <point x="366.27272727272725" y="351.0" type="line" smooth="yes"/>
      <point x="366.27272727272725" y="431.3181818181818"/>
      <point x="303.09090909090907" y="460.0"/>
      <point x="228.4090909090909" y="460.0" type="curve" smooth="yes"/>
      <point x="187.72727272727272" y="460.0"/>
      <point x="147.95454545454547" y="441.59090909090907"/>
      <point x="111.36363636363636" y="418.0" type="curve" smooth="yes"/>
      <point x="76.18181818181819" y="395.8181818181818"/>
      <point x="59.18181818181818" y="364.8636363636364"/>
      <point x="59.18181818181818" y="337.09090909090907" type="curve" smooth="yes"/>
      <point x="59.18181818181818" y="315.1363636363636"/>
      <point x="64.77272727272727" y="310.72727272727275"/>
      <point x="85.18181818181819" y="310.72727272727275" type="curve" smooth="yes"/>
      <point x="126.54545454545455" y="310.72727272727275" type="line"/>
      <point x="131.54545454545456" y="315.72727272727275" type="line"/>
      <point x="131.54545454545456" y="349.04545454545456" type="line" smooth="yes"/>
      <point x="131.54545454545456" y="392.59090909090907"/>
      <point x="149.77272727272728" y="419.95454545454544"/>
      <point x="203.63636363636363" y="419.95454545454544" type="curve" smooth="yes"/>
      <point x="252.5" y="419.95454545454544"/>
      <point x="298.54545454545456" y="382.1363636363636"/>
      <point x="298.54545454545456" y="331.6363636363636" type="curve" smooth="yes"/>
      <point x="298.54545454545456" y="64.86363636363636" type="line"/>
      <point x="300.54545454545456" y="64.86363636363636" type="line"/>
      <point x="305.7269917153636" y="22.593297693404548"/>
      <point x="331.35500575363636" y="-10.0"/>
    </contour>
  </outline>
</glyph>
<glyph name="b" format="2">
  <advance width="552.6363636363636"/>
  <unicode hex="0062"/>
  <outline>
    <contour>
      <point x="108.31818181818181" y="-5.909090909090909" type="line"/>
      <point x="115.54545454545455" y="-5.909090909090909" type="line"/>
      <point x="176.04545454545456" y="60.90909090909091" type="line"/>
      <point x="176.04545454545456" y="750.0" type="line"/>
      <point x="168.4090909090909" y="750.0" type="line"/>
      <point x="43.0" y="709.7272727272727" type="line"/>
      <point x="43.0" y="699.4545454545455" type="line"/>
      <point x="108.31818181818181" y="663.0" type="line"/>
    </contour>
    <contour>
      <point x="269.6363636363636" y="-10.0" type="curve" smooth="yes"/>
      <point x="400.0" y="-10.0"/>
      <point x="503.6363636363636" y="83.0"/>
      <point x="503.6363636363636" y="247.0" type="curve" smooth="yes"/>
      <point x="503.6363636363636" y="379.0"/>
      <point x="430.6363636363636" y="460.0"/>
      <point x="330.04545454545456" y="460.0" type="curve" smooth="yes"/>
      <point x="276.04545454545456" y="460.0"/>
      <point x="231.04545454545456" y="441.0"/>
      <point x="180.04545454545456" y="398.0" type="curve"/>
      <point x="166.04545454545456" y="398.0" type="line"/>
      <point x="166.04545454545456" y="359.3181818181818" type="line"/>
      <point x="201.6818181818182" y="389.22727272727275"/>
      <point x="243.13636363636363" y="405.3181818181818"/>
      <point x="286.5" y="405.3181818181818" type="curve" smooth="yes"/>
      <point x="366.45454545454544" y="405.3181818181818"/>
      <point x="437.1363636363636" y="350.6363636363636"/>
      <point x="437.1363636363636" y="226.86363636363637" type="curve" smooth="yes"/>
      <point x="437.1363636363636" y="83.86363636363636"/>
      <point x="373.22727272727275" y="29.0"/>
      <point x="299.3181818181818" y="29.0" type="curve" smooth="yes"/>
      <point x="248.3181818181818" y="29.0"/>
      <point x="209.9090909090909" y="42.81818181818182"/>
      <point x="168.0909090909091" y="76.54545454545455" type="curve"/>
      <point x="125.86363636363636" y="27.772727272727273" type="line"/>
      <point x="166.0" y="6.681818181818182"/>
      <point x="217.4090909090909" y="-10.0"/>
    </contour>
  </outline>
</glyph>
<glyph name="d" format="2">
  <advance width="552.8636363636364"/>
  <unicode hex="0064"/>
  <anchor x="554.5" y="740.0" name="right"/>
  <anchor x="260.77272727272725" y="0.0" name="bottom"/>
  <outline>
    <contour>
      <point x="219.22727272727272" y="-10.0" type="curve" smooth="yes"/>
      <point x="274.45454545454544" y="-10.0"/>
      <point x="320.09090909090907" y="10.045454545454545"/>
      <point x="368.6363636363636" y="51.0" type="curve"/>
      <point x="383.6363636363636" y="51.0" type="line"/>
      <point x="383.6363636363636" y="91.9090909090909" type="line"/>
      <point x="347.59090909090907" y="59.54545454545455"/>
      <point x="304.09090909090907" y="44.68181818181819"/>
      <point x="262.77272727272725" y="44.68181818181819" type="curve" smooth="yes"/>
      <point x="182.8181818181818" y="44.68181818181819"/>
      <point x="112.13636363636364" y="97.5909090909091"/>
      <point x="112.13636363636364" y="217.8181818181818" type="curve" smooth="yes"/>
      <point x="112.13636363636364" y="364.3636363636364"/>
      <point x="181.36363636363637" y="420.40909090909093"/>
      <point x="261.77272727272725" y="420.40909090909093" type="curve" smooth="yes"/>
      <point x="312.04545454545456" y="420.40909090909093"/>
      <point x="348.3636363636364" y="400.22727272727275"/>
      <point x="393.6363636363636" y="365.5" type="curve"/>
      <point x="423.40909090909093" y="422.22727272727275" type="line"/>
      <point x="385.6363636363636" y="443.3181818181818"/>
      <point x="343.6818181818182" y="460.0"/>
      <point x="283.77272727272725" y="460.0" type="curve"/>
      <point x="154.5909090909091" y="460.0"/>
      <point x="45.63636363636363" y="365.22727272727275"/>
      <point x="45.63636363636363" y="197.6818181818182" type="curve" smooth="yes"/>
      <point x="45.63636363636363" y="69.22727272727273"/>
      <point x="118.63636363636364" y="-10.0"/>
    </contour>
    <contour>
      <point x="383.22727272727275" y="0.0" type="line"/>
      <point x="511.95454545454544" y="0.0" type="line"/>
      <point x="511.95454545454544" y="15.590909090909092" type="line"/>
      <point x="440.95454545454544" y="39.68181818181818" type="line"/>
      <point x="440.95454545454544" y="750.0" type="line"/>
      <point x="433.3181818181818" y="750.0" type="line"/>
      <point x="304.95454545454544" y="711.7727272727273" type="line"/>
      <point x="304.95454545454544" y="701.5" type="line"/>
      <point x="373.22727272727275" y="663.0" type="line"/>
      <point x="373.22727272727275" y="60.0" type="line"/>
    </contour>
  </outline>
</glyph>
<glyph name="e" format="2">
  <advance width="482.77272727272725"/>
  <unicode hex="0065"/>
  <anchor x="257.95454545454544" y="510.0" name="top"/>
  <anchor x="363.3181818181818" y="0.0" name="right"/>
  <anchor x="265.22727272727275" y="0.0" name="bottom"/>
  <outline>
    <contour>
      <point x="262.27272727272725" y="-10.0" type="curve" smooth="yes"/>
      <point x="340.8181818181818" y="-10.0"/>
      <point x="401.77272727272725" y="31.681818181818183"/>
      <point x="432.3636363636364" y="85.18181818181819" type="curve"/>
      <point x="432.3636363636364" y="96.4090909090909" type="line"/>
      <point x="429.3636363636364" y="96.4090909090909" type="line"/>
      <point x="387.95454545454544" y="67.36363636363636"/>
      <point x="340.6363636363636" y="51.5"/>
      <point x="293.40909090909093" y="51.5" type="curve" smooth="yes"/>
      <point x="168.95454545454547" y="51.5"/>
      <point x="117.13636363636364" y="137.4090909090909"/>
      <point x="117.13636363636364" y="242.0" type="curve" smooth="yes"/>
      <point x="117.13636363636364" y="357.04545454545456"/>
      <point x="171.13636363636363" y="425.0"/>
      <point x="245.36363636363637" y="425.0" type="curve" smooth="yes"/>
      <point x="314.1818181818182" y="425.0"/>
      <point x="351.59090909090907" y="377.8181818181818"/>
      <point x="365.3636363636364" y="281.95454545454544" type="curve"/>
      <point x="383.3636363636364" y="285.95454545454544" type="line"/>
      <point x="105.9090909090909" y="285.95454545454544" type="line"/>
      <point x="105.9090909090909" y="249.77272727272728" type="line"/>
      <point x="428.0" y="249.77272727272728" type="line"/>
      <point x="432.1818181818182" y="253.95454545454544" type="line"/>
      <point x="428.09090909090907" y="385.22727272727275"/>
      <point x="365.1363636363636" y="460.0"/>
      <point x="259.72727272727275" y="460.0" type="curve" smooth="yes"/>
      <point x="147.95454545454547" y="460.0"/>
      <point x="50.0" y="352.77272727272725"/>
      <point x="50.0" y="209.5" type="curve" smooth="yes"/>
      <point x="50.0" y="80.31818181818181"/>
      <point x="127.95454545454545" y="-10.0"/>
    </contour>
  </outline>
</glyph>
<glyph name="g" format="2">
  <advance width="529.6363636363636"/>
  <unicode hex="0067"/>
  <anchor x="251.54545454545456" y="510.0" name="top"/>
  <outline>
    <contour>
      <point x="246.95454545454547" y="145.6818181818182" type="curve" smooth="yes"/>
      <point x="344.04545454545456" y="145.6818181818182"/>
      <point x="415.54545454545456" y="212.86363636363637"/>
      <point x="415.54545454545456" y="302.6363636363636" type="curve" smooth="yes"/>
      <point x="415.54545454545456" y="348.45454545454544"/>
      <point x="394.8181818181818" y="398.5"/>
      <point x="364.8636363636364" y="417.27272727272725" type="curve"/>
      <point x="339.54545454545456" y="439.40909090909093" type="line"/>
      <point x="316.54545454545456" y="451.0"/>
      <point x="276.54545454545456" y="460.0"/>
      <point x="246.95454545454547" y="460.0" type="curve" smooth="yes"/>
      <point x="149.86363636363637" y="460.0"/>
      <point x="77.95454545454545" y="391.8181818181818"/>
      <point x="77.95454545454545" y="302.6363636363636" type="curve" smooth="yes"/>
      <point x="77.95454545454545" y="212.86363636363637"/>
      <point x="149.86363636363637" y="145.6818181818182"/>
    </contour>
    <contour>
      <point x="256.95454545454544" y="178.0909090909091" type="curve" smooth="yes"/>
      <point x="192.9090909090909" y="178.0909090909091"/>
      <point x="147.27272727272728" y="226.51908396972726"/>
      <point x="147.27272727272728" y="305.6363636363636" type="curve" smooth="yes"/>
      <point x="147.27272727272728" y="376.68782161222725"/>
      <point x="180.9090909090909" y="428.59090909090907"/>
      <point x="239.95454545454547" y="428.59090909090907" type="curve" smooth="yes"/>
      <point x="300.0" y="428.59090909090907"/>
      <point x="346.22727272727275" y="380.82713498613634"/>
      <point x="346.22727272727275" y="300.04545454545456" type="curve" smooth="yes"/>
      <point x="346.22727272727275" y="228.79220779195455"/>
      <point x="312.0" y="178.0909090909091"/>
    </contour>
    <contour>
      <point x="479.6363636363636" y="401.3181818181818" type="line"/>
      <point x="479.6363636363636" y="450.0" type="line"/>
      <point x="324.59090909090907" y="441.0" type="line"/>
      <point x="324.59090909090907" y="395.1818181818182" type="line"/>
      <point x="369.8181818181818" y="395.1818181818182" type="line"/>
      <point x="383.3636363636364" y="407.72727272727275" type="line"/>
    </contour>
    <contour>
      <point x="232.86363636363637" y="-240.0" type="curve" smooth="yes"/>
      <point x="373.1818181818182" y="-240.0"/>
      <point x="462.77272727272725" y="-155.22727272727272"/>
      <point x="462.77272727272725" y="-70.86363636363636" type="curve" smooth="yes"/>
      <point x="462.77272727272725" y="5.363636363636365"/>
      <point x="418.59090909090907" y="47.13636363636364"/>
      <point x="328.95454545454544" y="47.13636363636364" type="curve" smooth="yes"/>
      <point x="211.8181818181818" y="47.13636363636364" type="line" smooth="yes"/>
      <point x="155.45454545454547" y="47.13636363636364"/>
      <point x="129.77272727272728" y="63.77272727272727"/>
      <point x="129.77272727272728" y="102.86363636363636" type="curve" smooth="yes"/>
      <point x="129.77272727272728" y="127.72727272727273"/>
      <point x="143.4090909090909" y="147.72727272727272"/>
      <point x="181.72727272727272" y="161.4090909090909" type="curve"/>
      <point x="181.72727272727272" y="180.04545454545453" type="line"/>
      <point x="151.22727272727272" y="180.04545454545453" type="line"/>
      <point x="151.22727272727272" y="166.1818181818182" type="line"/>
      <point x="95.18181818181819" y="135.3181818181818" type="line"/>
      <point x="78.4090909090909" y="118.54545454545455"/>
      <point x="70.81818181818181" y="99.36363636363636"/>
      <point x="70.81818181818181" y="75.0" type="curve" smooth="yes"/>
      <point x="70.81818181818181" y="24.0"/>
      <point x="112.81818181818181" y="-10.0"/>
      <point x="185.8181818181818" y="-10.0" type="curve" smooth="yes"/>
      <point x="292.0" y="-10.0" type="line" smooth="yes"/>
      <point x="374.22727272727275" y="-10.0"/>
      <point x="401.6363636363636" y="-29.40909090909091"/>
      <point x="401.6363636363636" y="-90.45454545454545" type="curve" smooth="yes"/>
      <point x="401.6363636363636" y="-154.45454545454547"/>
      <point x="337.95454545454544" y="-214.45454545454547"/>
      <point x="246.5" y="-214.45454545454547" type="curve" smooth="yes"/>
      <point x="176.22727272727272" y="-214.45454545454547"/>
      <point x="121.77272727272728" y="-170.22727272727272"/>
      <point x="121.77272727272728" y="-110.0" type="curve" smooth="yes"/>
      <point x="121.77272727272728" y="-58.0"/>
      <point x="136.77272727272728" y="-24.0"/>
      <point x="184.77272727272728" y="-2.0" type="curve"/>
      <point x="184.77272727272728" y="5.409090909090909" type="line"/>
      <point x="143.5" y="5.409090909090909" type="line"/>
      <point x="143.5" y="-8.954545454545455" type="line"/>
      <point x="77.77272727272727" y="-57.0" type="line"/>
      <point x="66.5909090909091" y="-75.0"/>
      <point x="61.0" y="-96.0"/>
      <point x="61.0" y="-121.0" type="curve" smooth="yes"/>
      <point x="61.0" y="-188.0"/>
      <point x="110.36363636363636" y="-240.0"/>
    </contour>
  </outline>
</glyph>
<glyph name="h" format="2">
  <advance width="573.8181818181819"/>
  <unicode hex="0068"/>
  <anchor x="293.95454545454544" y="765.0" name="top"/>
  <anchor x="293.95454545454544" y="0.0" name="bottom"/>
  <outline>
    <contour>
      <point x="52.09090909090909" y="0.0" type="line"/>
      <point x="253.8181818181818" y="0.0" type="line"/>
      <point x="253.8181818181818" y="15.590909090909092" type="line"/>
      <point x="182.8181818181818" y="39.68181818181818" type="line"/>
      <point x="182.8181818181818" y="750.0" type="line"/>
      <point x="175.1818181818182" y="750.0" type="line"/>
      <point x="49.77272727272727" y="711.7727272727273" type="line"/>
      <point x="49.77272727272727" y="701.5" type="line"/>
      <point x="115.0909090909091" y="663.0" type="line"/>
      <point x="115.0909090909091" y="41.45454545454545" type="line"/>
      <point x="52.09090909090909" y="15.590909090909092" type="line"/>
    </contour>
    <contour>
      <point x="334.09090909090907" y="0.0" type="line"/>
      <point x="535.8181818181819" y="0.0" type="line"/>
      <point x="535.8181818181819" y="15.590909090909092" type="line"/>
      <point x="472.8181818181818" y="41.45454545454545" type="line"/>
      <point x="472.8181818181818" y="334.8181818181818" type="line" smooth="yes"/>
      <point x="472.8181818181818" y="417.1363636363636"/>
      <point x="415.1818181818182" y="460.0"/>
      <point x="334.72727272727275" y="460.0" type="curve" smooth="yes"/>
      <point x="278.95454545454544" y="460.0"/>
      <point x="236.1818181818182" y="437.40909090909093"/>
      <point x="186.0" y="386.8181818181818" type="curve"/>
      <point x="174.8181818181818" y="386.8181818181818" type="line"/>
      <point x="174.8181818181818" y="346.5" type="line"/>
      <point x="198.45454545454547" y="381.22727272727275"/>
      <point x="256.6818181818182" y="399.9090909090909"/>
      <point x="298.3181818181818" y="399.9090909090909" type="curve" smooth="yes"/>
      <point x="361.22727272727275" y="399.9090909090909"/>
      <point x="405.09090909090907" y="364.0"/>
      <point x="405.09090909090907" y="296.0" type="curve" smooth="yes"/>
      <point x="405.09090909090907" y="39.68181818181818" type="line"/>
      <point x="334.09090909090907" y="15.590909090909092" type="line"/>
    </contour>
  </outline>
</glyph>
<glyph name="i" format="2">
  <advance width="308.5"/>
  <unicode hex="0069"/>
  <anchor x="154.95454545454547" y="510.0" name="top"/>
  <anchor x="154.95454545454547" y="0.0" name="bottom"/>
  <anchor x="178.6818181818182" y="0.0" name="right"/>
  <outline>
    <contour>
      <point x="58.09090909090909" y="0.0" type="line"/>
      <point x="255.0909090909091" y="0.0" type="line"/>
      <point x="255.0909090909091" y="15.590909090909092" type="line"/>
      <point x="188.8181818181818" y="41.45454545454545" type="line"/>
      <point x="188.8181818181818" y="460.0" type="line"/>
      <point x="181.1818181818182" y="460.0" type="line"/>
      <point x="55.77272727272727" y="421.77272727272725" type="line"/>
      <point x="55.77272727272727" y="411.5" type="line"/>
      <point x="121.0909090909091" y="373.0" type="line"/>
      <point x="121.0909090909091" y="41.45454545454545" type="line"/>
      <point x="58.09090909090909" y="15.590909090909092" type="line"/>
    </contour>
    <contour>
      <point x="147.45454545454547" y="596.1363636363636" type="curve" smooth="yes"/>
      <point x="176.54545454545456" y="596.1363636363636"/>
      <point x="198.45454545454547" y="618.0454545454545"/>
      <point x="198.45454545454547" y="647.1363636363636" type="curve" smooth="yes"/>
      <point x="198.45454545454547" y="676.8181818181819"/>
      <point x="176.54545454545456" y="698.1363636363636"/>
      <point x="147.45454545454547" y="698.1363636363636" type="curve" smooth="yes"/>
      <point x="117.77272727272727" y="698.1363636363636"/>
      <point x="96.45454545454545" y="676.8181818181819"/>
      <point x="96.45454545454545" y="647.1363636363636" type="curve" smooth="yes"/>
      <point x="96.45454545454545" y="618.0454545454545"/>
      <point x="117.77272727272727" y="596.1363636363636"/>
    </contour>
  </outline>
</glyph>
<glyph name="j" format="2">
  <advance width="298.8636363636364"/>
  <unicode hex="006A"/>
  <anchor x="154.95454545454547" y="510.0" name="top"/>
  <outline>
    <contour>
      <point x="58.09090909090909" y="-230.0" type="line"/>
      <point x="165.22727272727272" y="-175.77272727272728"/>
      <point x="188.8181818181818" y="-101.0"/>
      <point x="188.8181818181818" y="0.0" type="curve" smooth="yes"/>
      <point x="188.8181818181818" y="460.0" type="line"/>
      <point x="181.1818181818182" y="460.0" type="line"/>
      <point x="55.77272727272727" y="421.77272727272725" type="line"/>
      <point x="55.77272727272727" y="411.5" type="line"/>
      <point x="121.0909090909091" y="373.0" type="line"/>
      <point x="121.0909090909091" y="-5.909090909090909" type="line" smooth="yes"/>
      <point x="121.0909090909091" y="-117.9090909090909"/>
      <point x="109.4090909090909" y="-166.0909090909091"/>
      <point x="58.09090909090909" y="-214.0" type="curve"/>
    </contour>
    <contour>
      <point x="147.45454545454547" y="596.1363636363636" type="curve" smooth="yes"/>
      <point x="176.54545454545456" y="596.1363636363636"/>
      <point x="198.45454545454547" y="618.0454545454545"/>
      <point x="198.45454545454547" y="647.1363636363636" type="curve" smooth="yes"/>
      <point x="198.45454545454547" y="676.8181818181819"/>
      <point x="176.54545454545456" y="698.1363636363636"/>
      <point x="147.45454545454547" y="698.1363636363636" type="curve" smooth="yes"/>
      <point x="117.77272727272727" y="698.1363636363636"/>
      <point x="96.45454545454545" y="676.8181818181819"/>
      <point x="96.45454545454545" y="647.1363636363636" type="curve" smooth="yes"/>
      <point x="96.45454545454545" y="618.0454545454545"/>
      <point x="117.77272727272727" y="596.1363636363636"/>
    </contour>
  </outline>
</glyph>
<glyph name="k" format="2">
  <advance width="545.7272727272727"/>
  <unicode hex="006B"/>
  <anchor x="292.1363636363636" y="0.0" name="bottom"/>
  <outline>
    <contour>
      <point x="52.09090909090909" y="0.0" type="line"/>
      <point x="253.8181818181818" y="0.0" type="line"/>
      <point x="253.8181818181818" y="15.590909090909092" type="line"/>
      <point x="182.8181818181818" y="39.68181818181818" type="line"/>
      <point x="182.8181818181818" y="750.0" type="line"/>
      <point x="175.1818181818182" y="750.0" type="line"/>
      <point x="49.77272727272727" y="711.7727272727273" type="line"/>
      <point x="49.77272727272727" y="701.5" type="line"/>
      <point x="115.0909090909091" y="663.0" type="line"/>
      <point x="115.0909090909091" y="41.45454545454545" type="line"/>
      <point x="52.09090909090909" y="15.590909090909092" type="line"/>
    </contour>
    <contour>
      <point x="396.3636363636364" y="0.0" type="line"/>
      <point x="517.7272727272727" y="0.0" type="line"/>
      <point x="517.7272727272727" y="15.590909090909092" type="line"/>
      <point x="454.1363636363636" y="42.63636363636364" type="line"/>
      <point x="229.27272727272728" y="285.8181818181818" type="line"/>
      <point x="218.63636363636363" y="251.6818181818182" type="line"/>
      <point x="416.72727272727275" y="405.95454545454544" type="line"/>
      <point x="480.72727272727275" y="434.40909090909093" type="line"/>
      <point x="480.72727272727275" y="450.0" type="line"/>
      <point x="303.0" y="450.0" type="line"/>
      <point x="303.0" y="434.40909090909093" type="line"/>
      <point x="352.0" y="404.95454545454544" type="line"/>
      <point x="352.0" y="398.95454545454544" type="line"/>
      <point x="182.8181818181818" y="253.36363636363637" type="line"/>
      <point x="182.8181818181818" y="241.63636363636363" type="line"/>
      <point x="362.8636363636364" y="44.63636363636364" type="line"/>
    </contour>
  </outline>
</glyph>
<glyph name="l" format="2">
  <advance width="289.09090909090907"/>
  <unicode hex="006C"/>
  <anchor x="144.95454545454547" y="765.0" name="top"/>
  <anchor x="292.95454545454544" y="740.0" name="right"/>
  <anchor x="289.6818181818182" y="300.0" name="mid"/>
  <anchor x="144.95454545454547" y="0.0" name="bottom"/>
  <outline>
    <contour>
      <point x="48.09090909090909" y="0.0" type="line"/>
      <point x="245.0909090909091" y="0.0" type="line"/>
      <point x="245.0909090909091" y="15.590909090909092" type="line"/>
      <point x="178.8181818181818" y="41.45454545454545" type="line"/>
      <point x="178.8181818181818" y="750.0" type="line"/>
      <point x="171.1818181818182" y="750.0" type="line"/>
      <point x="45.77272727272727" y="711.7727272727273" type="line"/>
      <point x="45.77272727272727" y="701.5" type="line"/>
      <point x="111.0909090909091" y="663.0" type="line"/>
      <point x="111.0909090909091" y="41.45454545454545" type="line"/>
      <point x="48.09090909090909" y="15.590909090909092" type="line"/>
    </contour>
  </outline>
</glyph>
<glyph name="m" format="2">
  <advance width="835.0454545454545"/>
  <unicode hex="006D"/>
  <anchor x="422.40909090909093" y="0.0" name="bottom"/>
  <outline>
    <contour>
      <point x="49.63636363636363" y="0.0" type="line"/>
      <point x="247.8181818181818" y="0.0" type="line"/>
      <point x="247.8181818181818" y="15.590909090909092" type="line"/>
      <point x="180.36363636363637" y="41.45454545454545" type="line"/>
      <point x="180.36363636363637" y="380.0" type="line"/>
      <point x="172.4090909090909" y="460.0" type="line"/>
      <point x="164.77272727272728" y="460.0" type="line"/>
      <point x="47.31818181818182" y="417.6818181818182" type="line"/>
      <point x="47.31818181818182" y="407.40909090909093" type="line"/>
      <point x="112.63636363636364" y="373.0" type="line"/>
      <point x="112.63636363636364" y="41.45454545454545" type="line"/>
      <point x="49.63636363636363" y="15.590909090909092" type="line"/>
    </contour>
    <contour>
      <point x="319.90909090909093" y="0.0" type="line"/>
      <point x="522.8181818181819" y="0.0" type="line"/>
      <point x="522.8181818181819" y="15.590909090909092" type="line"/>
      <point x="456.27272727272725" y="41.45454545454545" type="line"/>
      <point x="456.27272727272725" y="334.8181818181818" type="line" smooth="yes"/>
      <point x="456.27272727272725" y="417.1363636363636"/>
      <point x="401.45454545454544" y="460.0"/>
      <point x="325.22727272727275" y="460.0" type="curve" smooth="yes"/>
      <point x="272.27272727272725" y="460.0"/>
      <point x="232.3181818181818" y="436.59090909090907"/>
      <point x="183.54545454545456" y="386.8181818181818" type="curve"/>
      <point x="172.36363636363637" y="386.8181818181818" type="line"/>
      <point x="172.36363636363637" y="346.5" type="line"/>
      <point x="195.5909090909091" y="380.8181818181818"/>
      <point x="249.5909090909091" y="399.9090909090909"/>
      <point x="288.8181818181818" y="399.9090909090909" type="curve" smooth="yes"/>
      <point x="347.5" y="399.9090909090909"/>
      <point x="388.54545454545456" y="364.0"/>
      <point x="388.54545454545456" y="296.0" type="curve" smooth="yes"/>
      <point x="388.54545454545456" y="41.45454545454545" type="line"/>
      <point x="319.90909090909093" y="15.590909090909092" type="line"/>
    </contour>
    <contour>
      <point x="597.3636363636364" y="0.0" type="line"/>
      <point x="799.0909090909091" y="0.0" type="line"/>
      <point x="799.0909090909091" y="15.590909090909092" type="line"/>
      <point x="736.0909090909091" y="41.45454545454545" type="line"/>
      <point x="736.0909090909091" y="334.8181818181818" type="line" smooth="yes"/>
      <point x="736.0909090909091" y="417.1363636363636"/>
      <point x="680.4545454545455" y="460.0"/>
      <point x="603.0" y="460.0" type="curve" smooth="yes"/>
      <point x="546.8636363636364" y="460.0"/>
      <point x="504.90909090909093" y="434.6363636363636"/>
      <point x="452.1818181818182" y="379.72727272727275" type="curve"/>
      <point x="441.5909090909091" y="379.72727272727275" type="line"/>
      <point x="441.5909090909091" y="338.22727272727275" type="line"/>
      <point x="466.40909090909093" y="378.27272727272725"/>
      <point x="517.6818181818181" y="399.9090909090909"/>
      <point x="566.5909090909091" y="399.9090909090909" type="curve" smooth="yes"/>
      <point x="626.5" y="399.9090909090909"/>
      <point x="668.3636363636364" y="364.0"/>
      <point x="668.3636363636364" y="296.0" type="curve" smooth="yes"/>
      <point x="668.3636363636364" y="41.45454545454545" type="line"/>
      <point x="597.3636363636364" y="15.590909090909092" type="line"/>
    </contour>
  </outline>
</glyph>
<glyph name="n" format="2">
  <advance width="573.8181818181819"/>
  <unicode hex="006E"/>
  <anchor x="293.95454545454544" y="510.0" name="top"/>
  <anchor x="293.95454545454544" y="0.0" name="bottom"/>
  <outline>
    <contour>
      <point x="52.09090909090909" y="0.0" type="line"/>
      <point x="253.8181818181818" y="0.0" type="line"/>
      <point x="253.8181818181818" y="15.590909090909092" type="line"/>
      <point x="182.8181818181818" y="41.45454545454545" type="line"/>
      <point x="182.8181818181818" y="380.0" type="line"/>
      <point x="174.86363636363637" y="460.0" type="line"/>
      <point x="167.22727272727272" y="460.0" type="line"/>
      <point x="49.77272727272727" y="417.6818181818182" type="line"/>
      <point x="49.77272727272727" y="407.40909090909093" type="line"/>
      <point x="115.0909090909091" y="373.0" type="line"/>
      <point x="115.0909090909091" y="41.45454545454545" type="line"/>
      <point x="52.09090909090909" y="15.590909090909092" type="line"/>
    </contour>
    <contour>
      <point x="334.09090909090907" y="0.0" type="line"/>
      <point x="535.8181818181819" y="0.0" type="line"/>
      <point x="535.8181818181819" y="15.590909090909092" type="line"/>
      <point x="472.8181818181818" y="41.45454545454545" type="line"/>
      <point x="472.8181818181818" y="334.8181818181818" type="line" smooth="yes"/>
      <point x="472.8181818181818" y="417.1363636363636"/>
      <point x="415.1818181818182" y="460.0"/>
      <point x="334.72727272727275" y="460.0" type="curve" smooth="yes"/>
      <point x="278.95454545454544" y="460.0"/>
      <point x="236.1818181818182" y="437.40909090909093"/>
      <point x="186.0" y="386.8181818181818" type="curve"/>
      <point x="174.8181818181818" y="386.8181818181818" type="line"/>
      <point x="174.8181818181818" y="346.5" type="line"/>
      <point x="198.45454545454547" y="381.22727272727275"/>
      <point x="256.6818181818182" y="399.9090909090909"/>
      <point x="298.3181818181818" y="399.9090909090909" type="curve" smooth="yes"/>
      <point x="361.22727272727275" y="399.9090909090909"/>
      <point x="405.09090909090907" y="364.0"/>
      <point x="405.09090909090907" y="296.0" type="curve" smooth="yes"/>
      <point x="405.09090909090907" y="41.45454545454545" type="line"/>
      <point x="334.09090909090907" y="15.590909090909092" type="line"/>
    </contour>
  </outline>
</glyph>
<glyph name="o" format="2">
  <advance width="527.7272727272727"/>
  <unicode hex="006F"/>
  <anchor x="262.09090909090907" y="510.0" name="top"/>
  <anchor x="294.1363636363636" y="0.0" name="right"/>
  <anchor x="269.45454545454544" y="0.0" name="bottom"/>
  <outline>
    <contour>
      <point x="263.8636363636364" y="-10.0" type="curve" smooth="yes"/>
      <point x="391.1818181818182" y="-10.0"/>
      <point x="477.72727272727275" y="91.0"/>
      <point x="477.72727272727275" y="225.0" type="curve" smooth="yes"/>
      <point x="477.72727272727275" y="359.0"/>
      <point x="391.1818181818182" y="460.0"/>
      <point x="263.8636363636364" y="460.0" type="curve" smooth="yes"/>
      <point x="136.54545454545453" y="460.0"/>
      <point x="50.0" y="359.0"/>
      <point x="50.0" y="225.0" type="curve" smooth="yes"/>
      <point x="50.0" y="91.0"/>
      <point x="136.54545454545453" y="-10.0"/>
    </contour>
    <contour>
      <point x="277.8636363636364" y="24.81818181818182" type="curve" smooth="yes"/>
      <point x="175.05203761763636" y="24.81818181818182"/>
      <point x="123.63636363636364" y="130.1818181818182"/>
      <point x="123.63636363636364" y="246.0" type="curve" smooth="yes"/>
      <point x="123.63636363636364" y="341.1818181818182"/>
      <point x="167.0" y="426.1818181818182"/>
      <point x="251.86363636363637" y="426.1818181818182" type="curve" smooth="yes"/>
      <point x="355.72727272727275" y="426.1818181818182"/>
      <point x="404.09090909090907" y="320.40909090909093"/>
      <point x="404.09090909090907" y="205.0" type="curve" smooth="yes"/>
      <point x="404.09090909090907" y="113.68181818181819"/>
      <point x="363.54040404031815" y="24.81818181818182"/>
    </contour>
  </outline>
</glyph>
<glyph name="q" format="2">
  <advance width="545.3181818181819"/>
  <unicode hex="0071"/>
  <outline>
    <contour>
      <point x="302.1363636363636" y="-230.0" type="line"/>
      <point x="506.3181818181818" y="-230.0" type="line"/>
      <point x="506.3181818181818" y="-214.4090909090909" type="line"/>
      <point x="443.3181818181818" y="-189.13636363636363" type="line"/>
      <point x="443.3181818181818" y="460.0" type="line"/>
      <point x="436.0909090909091" y="460.0" type="line"/>
      <point x="379.1363636363636" y="418.0" type="line"/>
      <point x="427.54545454545456" y="420.45454545454544" type="line"/>
      <point x="380.3181818181818" y="443.3181818181818"/>
      <point x="337.1818181818182" y="460.0"/>
      <point x="286.1363636363636" y="460.0" type="curve" smooth="yes"/>
      <point x="156.95454545454547" y="460.0"/>
      <point x="48.0" y="365.22727272727275"/>
      <point x="48.0" y="197.6818181818182" type="curve" smooth="yes"/>
      <point x="48.0" y="69.22727272727273"/>
      <point x="121.0" y="-10.0"/>
      <point x="221.5909090909091" y="-10.0" type="curve" smooth="yes"/>
      <point x="272.54545454545456" y="-10.0"/>
      <point x="320.3181818181818" y="7.545454545454546"/>
      <point x="370.8181818181818" y="50.81818181818182" type="curve"/>
      <point x="391.6818181818182" y="50.81818181818182" type="line"/>
      <point x="391.6818181818182" y="95.77272727272727" type="line"/>
      <point x="351.3181818181818" y="59.72727272727273"/>
      <point x="304.6818181818182" y="44.68181818181819"/>
      <point x="265.1363636363636" y="44.68181818181819" type="curve" smooth="yes"/>
      <point x="185.1818181818182" y="44.68181818181819"/>
      <point x="114.5" y="97.5909090909091"/>
      <point x="114.5" y="217.8181818181818" type="curve" smooth="yes"/>
      <point x="114.5" y="364.3636363636364"/>
      <point x="180.77272727272728" y="420.40909090909093"/>
      <point x="258.22727272727275" y="420.40909090909093" type="curve" smooth="yes"/>
      <point x="296.27272727272725" y="420.40909090909093"/>
      <point x="330.27272727272725" y="412.3636363636364"/>
      <point x="360.72727272727275" y="390.8181818181818" type="curve" smooth="yes"/>
      <point x="374.1818181818182" y="381.8181818181818"/>
      <point x="375.59090909090907" y="379.8181818181818"/>
      <point x="375.59090909090907" y="328.3636363636364" type="curve" smooth="yes"/>
      <point x="375.59090909090907" y="-190.9090909090909" type="line"/>
      <point x="302.1363636363636" y="-214.4090909090909" type="line"/>
    </contour>
  </outline>
</glyph>
<glyph name="r" format="2">
  <advance width="382.27272727272725"/>
  <unicode hex="0072"/>
  <anchor x="225.27272727272728" y="510.0" name="top"/>
  <anchor x="152.95454545454547" y="0.0" name="bottom"/>
  <outline>
    <contour>
      <point x="56.09090909090909" y="0.0" type="line"/>
      <point x="260.27272727272725" y="0.0" type="line"/>
      <point x="260.27272727272725" y="15.590909090909092" type="line"/>
      <point x="186.8181818181818" y="41.45454545454545" type="line"/>
      <point x="186.8181818181818" y="366.59090909090907" type="line"/>
      <point x="178.86363636363637" y="460.0" type="line"/>
      <point x="171.22727272727272" y="460.0" type="line"/>
      <point x="53.77272727272727" y="417.6818181818182" type="line"/>
      <point x="53.77272727272727" y="407.40909090909093" type="line"/>
      <point x="119.0909090909091" y="373.0" type="line"/>
      <point x="119.0909090909091" y="41.45454545454545" type="line"/>
      <point x="56.09090909090909" y="15.590909090909092" type="line"/>
    </contour>
    <contour>
      <point x="276.22727272727275" y="393.54545454545456" type="curve" smooth="yes"/>
      <point x="290.04545454545456" y="393.54545454545456"/>
      <point x="303.22727272727275" y="392.1363636363636"/>
      <point x="316.1818181818182" y="386.54545454545456" type="curve" smooth="yes"/>
      <point x="346.40909090909093" y="374.0" type="line"/>
      <point x="351.3636363636364" y="374.0" type="line"/>
      <point x="367.27272727272725" y="413.59090909090907" type="line" smooth="yes"/>
      <point x="369.8636363636364" y="419.77272727272725"/>
      <point x="370.45454545454544" y="424.54545454545456"/>
      <point x="370.45454545454544" y="428.72727272727275" type="curve" smooth="yes"/>
      <point x="370.45454545454544" y="439.09090909090907"/>
      <point x="359.1363636363636" y="446.22727272727275"/>
      <point x="344.95454545454544" y="452.22727272727275" type="curve" smooth="yes"/>
      <point x="336.77272727272725" y="455.8181818181818"/>
      <point x="321.59090909090907" y="460.0"/>
      <point x="311.0" y="460.0" type="curve" smooth="yes"/>
      <point x="275.77272727272725" y="460.0"/>
      <point x="248.9090909090909" y="451.6363636363636"/>
      <point x="189.4090909090909" y="373.3636363636364" type="curve"/>
      <point x="178.8181818181818" y="373.3636363636364" type="line"/>
      <point x="178.8181818181818" y="326.5" type="line"/>
      <point x="208.0" y="373.9090909090909"/>
      <point x="240.13636363636363" y="393.54545454545456"/>
    </contour>
  </outline>
</glyph>
<glyph name="s" format="2">
  <advance width="420.95454545454544"/>
  <unicode hex="0073"/>
  <anchor x="208.86363636363637" y="510.0" name="top"/>
  <anchor x="206.4090909090909" y="0.0" name="bottom"/>
  <outline>
    <contour>
      <point x="200.3181818181818" y="-10.0" type="curve" smooth="yes"/>
      <point x="277.77272727272725" y="-10.0"/>
      <point x="352.95454545454544" y="41.90909090909091"/>
      <point x="352.95454545454544" y="122.31818181818181" type="curve" smooth="yes"/>
      <point x="352.95454545454544" y="208.96317186454547"/>
      <point x="299.13636719199997" y="231.57176865077273"/>
      <point x="229.72727272727272" y="261.90909090909093" type="curve" smooth="yes"/>
      <point x="165.72229461522727" y="289.8134864015"/>
      <point x="134.95454545454547" y="309.54545454545456"/>
      <point x="134.95454545454547" y="356.1818181818182" type="curve" smooth="yes"/>
      <point x="134.95454545454547" y="400.27272727272725"/>
      <point x="164.26865671640908" y="427.95454545454544"/>
      <point x="212.0" y="427.95454545454544" type="curve" smooth="yes"/>
      <point x="245.72676200186365" y="427.95454545454544"/>
      <point x="278.4577274951364" y="411.54723104786365"/>
      <point x="297.3181818181818" y="371.22727272727275" type="curve" smooth="yes"/>
      <point x="322.1363636363636" y="322.3181818181818" type="line"/>
      <point x="335.3181818181818" y="322.3181818181818" type="line"/>
      <point x="335.3181818181818" y="428.45454545454544" type="line"/>
      <point x="299.04545454545456" y="447.0"/>
      <point x="259.8636363636364" y="460.0"/>
      <point x="210.45454545454547" y="460.0" type="curve" smooth="yes"/>
      <point x="141.6818181818182" y="460.0"/>
      <point x="75.0" y="403.45454545454544"/>
      <point x="75.0" y="333.54545454545456" type="curve" smooth="yes"/>
      <point x="75.0" y="265.98727272727274"/>
      <point x="112.42333113786364" y="235.3945776495"/>
      <point x="185.5" y="203.9090909090909" type="curve" smooth="yes"/>
      <point x="257.60437040795455" y="172.57376894"/>
      <point x="293.3636363636364" y="154.75000000022726"/>
      <point x="293.3636363636364" y="99.86363636363636" type="curve" smooth="yes"/>
      <point x="293.3636363636364" y="50.13636363636364"/>
      <point x="259.90909090909093" y="20.681818181818183"/>
      <point x="201.8181818181818" y="20.681818181818183" type="curve" smooth="yes"/>
      <point x="149.72727272727272" y="20.681818181818183"/>
      <point x="118.13636363636364" y="41.54545454545455"/>
      <point x="100.81818181818181" y="79.77272727272727" type="curve" smooth="yes"/>
      <point x="76.18181818181819" y="130.6818181818182" type="line"/>
      <point x="63.0" y="130.6818181818182" type="line"/>
      <point x="63.0" y="21.954545454545453" type="line"/>
      <point x="106.31818181818181" y="0.0"/>
      <point x="143.86363636363637" y="-10.0"/>
    </contour>
  </outline>
</glyph>
<glyph name="u" format="2">
  <advance width="547.9090909090909"/>
  <unicode hex="0075"/>
  <anchor x="267.54545454545456" y="510.0" name="top"/>
  <anchor x="266.72727272727275" y="0.0" name="bottom"/>
  <anchor x="452.5" y="0.0" name="right"/>
  <outline>
    <contour>
      <point x="230.3181818181818" y="-10.0" type="curve" smooth="yes"/>
      <point x="284.27272727272725" y="-10.0"/>
      <point x="326.22727272727275" y="12.409090909090908"/>
      <point x="376.0" y="62.18181818181818" type="curve"/>
      <point x="388.1818181818182" y="62.18181818181818" type="line"/>
      <point x="388.1818181818182" y="103.5" type="line"/>
      <point x="364.54545454545456" y="68.77272727272728"/>
      <point x="307.54545454545456" y="50.09090909090909"/>
      <point x="266.72727272727275" y="50.09090909090909" type="curve" smooth="yes"/>
      <point x="205.04545454545456" y="50.09090909090909"/>
      <point x="162.0" y="86.0"/>
      <point x="162.0" y="154.0" type="curve" smooth="yes"/>
      <point x="162.0" y="450.0" type="line"/>
      <point x="28.0" y="450.0" type="line"/>
      <point x="28.0" y="434.40909090909093" type="line"/>
      <point x="94.27272727272727" y="409.1363636363636" type="line"/>
      <point x="94.27272727272727" y="115.18181818181819" type="line" smooth="yes"/>
      <point x="94.27272727272727" y="32.86363636363636"/>
      <point x="151.0909090909091" y="-10.0"/>
    </contour>
    <contour>
      <point x="380.1818181818182" y="0.0" type="line"/>
      <point x="518.9090909090909" y="0.0" type="line"/>
      <point x="518.9090909090909" y="15.590909090909092" type="line"/>
      <point x="447.90909090909093" y="39.68181818181818" type="line"/>
      <point x="447.90909090909093" y="450.0" type="line"/>
      <point x="305.09090909090907" y="450.0" type="line"/>
      <point x="305.09090909090907" y="434.40909090909093" type="line"/>
      <point x="380.1818181818182" y="409.1363636363636" type="line"/>
    </contour>
  </outline>
</glyph>
<glyph name="v" format="2">
  <advance width="457.0909090909091"/>
  <unicode hex="0076"/>
  <outline>
    <contour>
      <point x="217.5909090909091" y="-2.0454545454545454" type="line"/>
      <point x="229.72727272727272" y="-2.0454545454545454" type="line"/>
      <point x="257.95454545454544" y="67.04545454545455" type="line"/>
      <point x="257.95454545454544" y="96.9090909090909" type="line"/>
      <point x="245.63636363636363" y="96.9090909090909" type="line"/>
      <point x="117.22727272727273" y="404.95454545454544" type="line"/>
      <point x="117.22727272727273" y="409.72727272727275" type="line"/>
      <point x="197.1818181818182" y="434.40909090909093" type="line"/>
      <point x="197.1818181818182" y="450.0" type="line"/>
      <point x="-22.59090909090909" y="450.0" type="line"/>
      <point x="-22.59090909090909" y="434.40909090909093" type="line"/>
      <point x="42.77272727272727" y="408.3181818181818" type="line"/>
    </contour>
    <contour>
      <point x="234.0909090909091" y="-2.0454545454545454" type="line"/>
      <point x="410.5909090909091" y="405.95454545454544" type="line"/>
      <point x="480.5" y="434.40909090909093" type="line"/>
      <point x="480.5" y="450.0" type="line"/>
      <point x="292.27272727272725" y="450.0" type="line"/>
      <point x="292.27272727272725" y="434.40909090909093" type="line"/>
      <point x="367.95454545454544" y="405.77272727272725" type="line"/>
      <point x="367.95454545454544" y="401.0" type="line"/>
      <point x="224.77272727272728" y="34.81818181818182" type="line"/>
      <point x="224.77272727272728" y="-2.0454545454545454" type="line"/>
    </contour>
  </outline>
</glyph>
<glyph name="w" format="2">
  <advance width="722.3181818181819"/>
  <unicode hex="0077"/>
  <anchor x="376.5909090909091" y="510.0" name="top"/>
  <outline>
    <contour>
      <point x="192.4090909090909" y="-2.0454545454545454" type="line"/>
      <point x="204.54545454545456" y="-2.0454545454545454" type="line"/>
      <point x="233.1818181818182" y="66.27272727272728" type="line"/>
      <point x="233.1818181818182" y="99.31818181818181" type="line"/>
      <point x="221.63636363636363" y="99.31818181818181" type="line"/>
      <point x="116.81818181818181" y="404.95454545454544" type="line"/>
      <point x="116.81818181818181" y="409.72727272727275" type="line"/>
      <point x="196.77272727272728" y="434.40909090909093" type="line"/>
      <point x="196.77272727272728" y="450.0" type="line"/>
      <point x="-23.0" y="450.0" type="line"/>
      <point x="-23.0" y="434.40909090909093" type="line"/>
      <point x="42.36363636363637" y="408.3181818181818" type="line"/>
    </contour>
    <contour>
      <point x="366.8181818181818" y="450.0" type="line"/>
      <point x="200.1818181818182" y="36.59090909090909" type="line"/>
      <point x="200.1818181818182" y="-2.0454545454545454" type="line"/>
      <point x="208.9090909090909" y="-2.0454545454545454" type="line"/>
      <point x="371.40909090909093" y="372.72727272727275" type="line"/>
      <point x="343.40909090909093" y="372.72727272727275" type="line"/>
      <point x="500.0909090909091" y="-2.0454545454545454" type="line"/>
      <point x="511.8181818181818" y="-2.0454545454545454" type="line"/>
      <point x="536.0909090909091" y="79.22727272727273" type="line"/>
      <point x="385.3636363636364" y="450.0" type="line"/>
    </contour>
    <contour>
      <point x="516.5909090909091" y="-2.0454545454545454" type="line"/>
      <point x="675.4090909090909" y="405.95454545454544" type="line"/>
      <point x="745.3181818181819" y="434.40909090909093" type="line"/>
      <point x="745.3181818181819" y="450.0" type="line"/>
      <point x="557.0909090909091" y="450.0" type="line"/>
      <point x="557.0909090909091" y="434.40909090909093" type="line"/>
      <point x="632.7727272727273" y="405.77272727272725" type="line"/>
      <point x="632.7727272727273" y="401.0" type="line"/>
      <point x="530.5454545454545" y="102.31818181818181" type="line"/>
      <point x="508.40909090909093" y="102.31818181818181" type="line"/>
      <point x="508.40909090909093" y="-2.0454545454545454" type="line"/>
    </contour>
  </outline>
</glyph>
<glyph name="x" format="2">
  <advance width="483.72727272727275"/>
  <unicode hex="0078"/>
  <outline>
    <contour>
      <point x="276.0" y="0.0" type="line"/>
      <point x="457.72727272727275" y="0.0" type="line"/>
      <point x="457.72727272727275" y="15.590909090909092" type="line"/>
      <point x="412.6363636363636" y="41.27272727272727" type="line"/>
      <point x="159.77272727272728" y="404.95454545454544" type="line"/>
      <point x="159.77272727272728" y="409.72727272727275" type="line"/>
      <point x="225.72727272727272" y="434.40909090909093" type="line"/>
      <point x="225.72727272727272" y="450.0" type="line"/>
      <point x="31.0" y="450.0" type="line"/>
      <point x="31.0" y="434.40909090909093" type="line"/>
      <point x="82.5" y="408.72727272727275" type="line"/>
      <point x="334.95454545454544" y="45.04545454545455" type="line"/>
      <point x="334.95454545454544" y="40.27272727272727" type="line"/>
      <point x="276.0" y="15.590909090909092" type="line"/>
    </contour>
    <contour>
      <point x="26.0" y="0.0" type="line"/>
      <point x="190.77272727272728" y="0.0" type="line"/>
      <point x="190.77272727272728" y="15.590909090909092" type="line"/>
      <point x="132.04545454545456" y="43.81818181818182" type="line"/>
      <point x="132.04545454545456" y="48.59090909090909" type="line"/>
      <point x="241.5909090909091" y="224.0" type="line"/>
      <point x="227.36363636363637" y="247.0" type="line"/>
      <point x="81.63636363636364" y="42.81818181818182" type="line"/>
      <point x="26.0" y="15.590909090909092" type="line"/>
    </contour>
    <contour>
      <point x="440.72727272727275" y="450.0" type="line"/>
      <point x="284.95454545454544" y="450.0" type="line"/>
      <point x="284.95454545454544" y="434.40909090909093" type="line"/>
      <point x="341.1363636363636" y="406.1818181818182" type="line"/>
      <point x="341.1363636363636" y="401.40909090909093" type="line"/>
      <point x="240.13636363636363" y="243.0" type="line"/>
      <point x="253.36363636363637" y="220.0" type="line"/>
      <point x="387.3181818181818" y="404.72727272727275" type="line"/>
      <point x="440.72727272727275" y="434.40909090909093" type="line"/>
    </contour>
  </outline>
</glyph>
<glyph name="y" format="2">
  <advance width="457.0909090909091"/>
  <unicode hex="0079"/>
  <anchor x="246.0" y="510.0" name="top"/>
  <anchor x="274.27272727272725" y="-37.0" name="bottom"/>
  <outline>
    <contour>
      <point x="-23.0" y="450.0" type="line"/>
      <point x="-23.0" y="434.40909090909093" type="line"/>
      <point x="42.36363636363637" y="408.3181818181818" type="line"/>
      <point x="222.4090909090909" y="-2.0454545454545454" type="line"/>
      <point x="263.95454545454544" y="66.27272727272728" type="line"/>
      <point x="263.95454545454544" y="93.27272727272728" type="line"/>
      <point x="250.22727272727272" y="93.27272727272728" type="line"/>
      <point x="116.81818181818181" y="404.95454545454544" type="line"/>
      <point x="116.81818181818181" y="409.1363636363636" type="line"/>
      <point x="196.77272727272728" y="434.40909090909093" type="line"/>
      <point x="196.77272727272728" y="450.0" type="line"/>
    </contour>
    <contour>
      <point x="65.81818181818181" y="-241.0" type="curve" smooth="yes"/>
      <point x="99.22727272727273" y="-241.0"/>
      <point x="133.4090909090909" y="-222.63636363636363"/>
      <point x="157.54545454545456" y="-188.3181818181818" type="curve" smooth="yes"/>
      <point x="182.22727272727272" y="-153.27272727272728"/>
      <point x="189.9090909090909" y="-135.0"/>
      <point x="207.6818181818182" y="-90.86363636363636" type="curve" smooth="yes"/>
      <point x="409.5909090909091" y="406.54545454545456" type="line"/>
      <point x="480.0909090909091" y="434.40909090909093" type="line"/>
      <point x="480.0909090909091" y="450.0" type="line"/>
      <point x="291.8636363636364" y="450.0" type="line"/>
      <point x="291.8636363636364" y="434.40909090909093" type="line"/>
      <point x="369.3181818181818" y="405.77272727272725" type="line"/>
      <point x="369.3181818181818" y="401.0" type="line"/>
      <point x="239.27272727272728" y="56.77272727272727" type="line"/>
      <point x="175.63636363636363" y="-81.86363636363636" type="line" smooth="yes"/>
      <point x="136.63636363636363" y="-166.04545454545453"/>
      <point x="131.63636363636363" y="-168.63636363636363"/>
      <point x="82.63636363636364" y="-168.63636363636363" type="curve" smooth="yes"/>
      <point x="37.45454545454545" y="-168.63636363636363" type="line"/>
      <point x="32.63636363636364" y="-173.45454545454544" type="line"/>
      <point x="32.63636363636364" y="-212.0" type="line" smooth="yes"/>
      <point x="32.63636363636364" y="-234.0"/>
      <point x="36.63636363636364" y="-241.0"/>
    </contour>
  </outline>
</glyph>
<glyph name="z" format="2">
  <advance width="469.72727272727275"/>
  <unicode hex="007A"/>
  <anchor x="235.63636363636363" y="510.0" name="top"/>
  <anchor x="235.63636363636363" y="0.0" name="bottom"/>
  <outline>
    <contour>
      <point x="70.0" y="0.0" type="line"/>
      <point x="394.72727272727275" y="0.0" type="line"/>
      <point x="394.72727272727275" y="138.72727272727272" type="line"/>
      <point x="378.3181818181818" y="138.72727272727272" type="line"/>
      <point x="335.45454545454544" y="8.0" type="line"/>
      <point x="368.72727272727275" y="35.81818181818182" type="line"/>
      <point x="140.63636363636363" y="35.81818181818182" type="line"/>
      <point x="140.63636363636363" y="9.5" type="line"/>
      <point x="386.72727272727275" y="432.40909090909093" type="line"/>
      <point x="386.72727272727275" y="450.0" type="line"/>
      <point x="144.3181818181818" y="450.0" type="line" smooth="yes"/>
      <point x="128.3181818181818" y="450.0"/>
      <point x="100.77272727272727" y="455.59090909090907"/>
      <point x="84.5909090909091" y="459.1818181818182" type="curve"/>
      <point x="80.0" y="459.1818181818182" type="line"/>
      <point x="69.0" y="314.1818181818182" type="line"/>
      <point x="85.0" y="314.1818181818182" type="line"/>
      <point x="140.0909090909091" y="440.0" type="line"/>
      <point x="105.0" y="414.1818181818182" type="line"/>
      <point x="315.6818181818182" y="414.1818181818182" type="line"/>
      <point x="315.6818181818182" y="440.09090909090907" type="line"/>
      <point x="70.0" y="17.59090909090909" type="line"/>
    </contour>
  </outline>
</glyph>
<glyph name="braceleft" format="2">
  <advance width="241.8181818181818"/>
  <unicode hex="007B"/>
  <outline>
    <contour>
      <point x="217.8181818181818" y="-150.0" type="curve" smooth="yes"/>
      <point x="236.8181818181818" y="-150.0" type="line"/>
      <point x="236.8181818181818" y="-129.04545454545453" type="line"/>
      <point x="209.8181818181818" y="-129.04545454545453" type="line" smooth="yes"/>
      <point x="148.54545454545456" y="-129.04545454545453"/>
      <point x="118.9090909090909" y="-91.22727272727273"/>
      <point x="118.9090909090909" y="-35.0" type="curve" smooth="yes"/>
      <point x="118.9090909090909" y="43.0"/>
      <point x="162.72727272727272" y="108.0"/>
      <point x="162.72727272727272" y="177.0" type="curve" smooth="yes"/>
      <point x="162.72727272727272" y="226.0"/>
      <point x="144.4090909090909" y="266.8636363636364"/>
      <point x="85.72727272727273" y="295.0" type="curve"/>
      <point x="144.4090909090909" y="323.1363636363636"/>
      <point x="162.72727272727272" y="364.0"/>
      <point x="162.72727272727272" y="413.0" type="curve" smooth="yes"/>
      <point x="162.72727272727272" y="482.0"/>
      <point x="118.9090909090909" y="547.0"/>
      <point x="118.9090909090909" y="625.0" type="curve" smooth="yes"/>
      <point x="118.9090909090909" y="681.2272727272727"/>
      <point x="148.54545454545456" y="719.0454545454545"/>
      <point x="209.8181818181818" y="719.0454545454545" type="curve" smooth="yes"/>
      <point x="236.8181818181818" y="719.0454545454545" type="line"/>
      <point x="236.8181818181818" y="740.0" type="line"/>
      <point x="217.8181818181818" y="740.0" type="line" smooth="yes"/>
      <point x="110.9090909090909" y="740.0"/>
      <point x="65.95454545454545" y="686.0"/>
      <point x="65.95454545454545" y="607.0" type="curve" smooth="yes"/>
      <point x="65.95454545454545" y="524.0"/>
      <point x="112.72727272727273" y="459.0"/>
      <point x="112.72727272727273" y="391.0" type="curve" smooth="yes"/>
      <point x="112.72727272727273" y="346.59090909090907"/>
      <point x="91.72727272727273" y="306.1818181818182"/>
      <point x="26.727272727272727" y="306.1818181818182" type="curve" smooth="yes"/>
      <point x="5.0" y="306.1818181818182" type="line"/>
      <point x="5.0" y="284.8181818181818" type="line"/>
      <point x="26.727272727272727" y="284.8181818181818" type="line" smooth="yes"/>
      <point x="91.72727272727273" y="284.8181818181818"/>
      <point x="112.72727272727273" y="244.4090909090909"/>
      <point x="112.72727272727273" y="199.0" type="curve" smooth="yes"/>
      <point x="112.72727272727273" y="131.0"/>
      <point x="65.95454545454545" y="66.0"/>
      <point x="65.95454545454545" y="-17.0" type="curve" smooth="yes"/>
      <point x="65.95454545454545" y="-96.0"/>
      <point x="110.9090909090909" y="-150.0"/>
    </contour>
  </outline>
</glyph>
<glyph name="bar" format="2">
  <advance width="241.8181818181818"/>
  <unicode hex="007C"/>
  <outline>
    <contour>
      <point x="100.0" y="-250.0" type="line"/>
      <point x="141.8181818181818" y="-250.0" type="line"/>
      <point x="141.8181818181818" y="750.0" type="line"/>
      <point x="100.0" y="750.0" type="line"/>
    </contour>
  </outline>
</glyph>
<glyph name="braceright" format="2">
  <advance width="241.8181818181818"/>
  <unicode hex="007D"/>
  <outline>
    <contour>
      <point x="24.0" y="-150.0" type="line" smooth="yes"/>
      <point x="130.9090909090909" y="-150.0"/>
      <point x="175.86363636363637" y="-96.0"/>
      <point x="175.86363636363637" y="-17.0" type="curve" smooth="yes"/>
      <point x="175.86363636363637" y="66.0"/>
      <point x="129.0909090909091" y="131.0"/>
      <point x="129.0909090909091" y="199.0" type="curve" smooth="yes"/>
      <point x="129.0909090909091" y="244.4090909090909"/>
      <point x="150.0909090909091" y="284.8181818181818"/>
      <point x="215.0909090909091" y="284.8181818181818" type="curve" smooth="yes"/>
      <point x="236.8181818181818" y="284.8181818181818" type="line"/>
      <point x="236.8181818181818" y="306.1818181818182" type="line"/>
      <point x="215.0909090909091" y="306.1818181818182" type="line" smooth="yes"/>
      <point x="150.0909090909091" y="306.1818181818182"/>
      <point x="129.0909090909091" y="346.59090909090907"/>
      <point x="129.0909090909091" y="391.0" type="curve" smooth="yes"/>
      <point x="129.0909090909091" y="459.0"/>
      <point x="175.86363636363637" y="524.0"/>
      <point x="175.86363636363637" y="607.0" type="curve" smooth="yes"/>
      <point x="175.86363636363637" y="686.0"/>
      <point x="130.9090909090909" y="740.0"/>
      <point x="24.0" y="740.0" type="curve" smooth="yes"/>
      <point x="5.0" y="740.0" type="line"/>
      <point x="5.0" y="719.0454545454545" type="line"/>
      <point x="32.0" y="719.0454545454545" type="line" smooth="yes"/>
      <point x="93.27272727272727" y="719.0454545454545"/>
      <point x="122.9090909090909" y="681.2272727272727"/>
      <point x="122.9090909090909" y="625.0" type="curve" smooth="yes"/>
      <point x="122.9090909090909" y="547.0"/>
      <point x="79.0909090909091" y="482.0"/>
      <point x="79.0909090909091" y="413.0" type="curve" smooth="yes"/>
      <point x="79.0909090909091" y="364.0"/>
      <point x="97.4090909090909" y="323.1363636363636"/>
      <point x="156.0909090909091" y="295.0" type="curve"/>
      <point x="97.4090909090909" y="266.8636363636364"/>
      <point x="79.0909090909091" y="226.0"/>
      <point x="79.0909090909091" y="177.0" type="curve" smooth="yes"/>
      <point x="79.0909090909091" y="108.0"/>
      <point x="122.9090909090909" y="43.0"/>
      <point x="122.9090909090909" y="-35.0" type="curve" smooth="yes"/>
      <point x="122.9090909090909" y="-91.22727272727273"/>
      <point x="93.27272727272727" y="-129.04545454545453"/>
      <point x="32.0" y="-129.04545454545453" type="curve" smooth="yes"/>
      <point x="5.0" y="-129.04545454545453" type="line"/>
      <point x="5.0" y="-150.0" type="line"/>
    </contour>
  </outline>
</glyph>
<glyph name="asciitilde" format="2">
  <advance width="500.0"/>
  <unicode hex="007E"/>
  <outline>
    <contour>
      <point x="40.0" y="201.0" type="curve"/>
      <point x="83.4090909090909" y="201.0" type="line"/>
      <point x="83.4090909090909" y="265.3181818181818"/>
      <point x="107.86363636363636" y="300.59090909090907"/>
      <point x="151.36363636363637" y="300.59090909090907" type="curve" smooth="yes"/>
      <point x="224.13636363636363" y="300.59090909090907"/>
      <point x="248.95454545454547" y="201.0"/>
      <point x="347.6363636363636" y="201.0" type="curve" smooth="yes"/>
      <point x="415.8181818181818" y="201.0"/>
      <point x="460.0" y="253.0"/>
      <point x="460.0" y="343.0" type="curve"/>
      <point x="416.59090909090907" y="343.0" type="line"/>
      <point x="416.59090909090907" y="276.90909090909093"/>
      <point x="394.5" y="243.4090909090909"/>
      <point x="348.6363636363636" y="243.4090909090909" type="curve" smooth="yes"/>
      <point x="275.27272727272725" y="243.4090909090909"/>
      <point x="251.04545454545453" y="343.0"/>
      <point x="152.36363636363637" y="343.0" type="curve" smooth="yes"/>
      <point x="84.18181818181819" y="343.0"/>
      <point x="40.0" y="291.0"/>
    </contour>
  </outline>
</glyph>
<glyph name="exclamdown" format="2">
  <advance width="250.0"/>
  <unicode hex="00A1"/>
  <outline>
    <contour>
      <point x="78.18181818181819" y="-205.0" type="line"/>
      <point x="171.8181818181818" y="-205.0" type="line"/>
      <point x="135.4090909090909" y="263.1818181818182" type="line"/>
      <point x="114.5909090909091" y="263.1818181818182" type="line"/>
    </contour>
    <contour>
      <point x="125.0" y="350.27272727272725" type="curve" smooth="yes"/>
      <point x="154.13636363636363" y="350.27272727272725"/>
      <point x="179.45454545454547" y="375.8181818181818"/>
      <point x="179.45454545454547" y="405.1363636363636" type="curve" smooth="yes"/>
      <point x="179.45454545454547" y="433.45454545454544"/>
      <point x="154.13636363636363" y="460.0"/>
      <point x="125.0" y="460.0" type="curve" smooth="yes"/>
      <point x="95.27272727272727" y="460.0"/>
      <point x="70.54545454545455" y="433.45454545454544"/>
      <point x="70.54545454545455" y="405.1363636363636" type="curve" smooth="yes"/>
      <point x="70.54545454545455" y="375.8181818181818"/>
      <point x="95.27272727272727" y="350.27272727272725"/>
    </contour>
  </outline>
</glyph>
<glyph name="cent" format="2">
  <advance width="500.0"/>
  <unicode hex="00A2"/>
  <outline>
    <contour>
      <point x="270.6818181818182" y="95.5909090909091" type="curve" smooth="yes"/>
      <point x="345.4935861685909" y="95.5909090909091"/>
      <point x="405.07005382981816" y="132.35344079254546"/>
      <point x="440.3636363636364" y="183.0" type="curve"/>
      <point x="440.3636363636364" y="205.5909090909091" type="line"/>
      <point x="437.3636363636364" y="205.5909090909091" type="line"/>
      <point x="395.1770084222273" y="176.1796306663182"/>
      <point x="348.8717310088182" y="159.45454545454547"/>
      <point x="301.8181818181818" y="159.45454545454547" type="curve" smooth="yes"/>
      <point x="185.86363636363637" y="159.45454545454547"/>
      <point x="129.13636363636363" y="231.77272727272728"/>
      <point x="129.13636363636363" y="347.59090909090907" type="curve" smooth="yes"/>
      <point x="129.13636363636363" y="463.18834275786367"/>
      <point x="182.36363636363637" y="524.7272727272727"/>
      <point x="263.54545454545456" y="524.7272727272727" type="curve" smooth="yes"/>
      <point x="311.22727272727275" y="524.7272727272727"/>
      <point x="341.09090909090907" y="506.45454545454544"/>
      <point x="363.54545454545456" y="475.77272727272725" type="curve" smooth="yes"/>
      <point x="388.95454545454544" y="441.22727272727275" type="line"/>
      <point x="394.72727272727275" y="441.22727272727275" type="line"/>
      <point x="428.22727272727275" y="469.54545454545456" type="line" smooth="yes"/>
      <point x="436.1818181818182" y="475.90909090909093"/>
      <point x="438.77272727272725" y="481.09090909090907"/>
      <point x="438.77272727272725" y="489.04545454545456" type="curve" smooth="yes"/>
      <point x="438.77272727272725" y="498.27272727272725"/>
      <point x="430.90909090909093" y="508.90909090909093"/>
      <point x="416.22727272727275" y="522.3181818181819" type="curve" smooth="yes"/>
      <point x="390.22727272727275" y="546.8181818181819"/>
      <point x="339.95454545454544" y="565.0"/>
      <point x="286.3636363636364" y="565.0" type="curve" smooth="yes"/>
      <point x="156.77272727272728" y="565.0"/>
      <point x="59.63636363636363" y="460.8181818181818"/>
      <point x="59.63636363636363" y="315.09090909090907" type="curve" smooth="yes"/>
      <point x="59.63636363636363" y="185.9090909090909"/>
      <point x="137.1818181818182" y="95.5909090909091"/>
    </contour>
    <contour>
      <point x="170.86363636363637" y="26.0" type="line"/>
      <point x="206.63636363636363" y="26.0" type="line"/>
      <point x="356.6363636363636" y="635.0" type="line"/>
      <point x="320.8636363636364" y="635.0" type="line"/>
    </contour>
  </outline>
</glyph>
<glyph name="sterling" format="2">
  <advance width="500.0"/>
  <unicode hex="00A3"/>
  <outline>
    <contour>
      <point x="53.13636363636364" y="0.0" type="line"/>
      <point x="440.8636363636364" y="0.0" type="line"/>
      <point x="450.8636363636364" y="164.27272727272728" type="line"/>
      <point x="419.3636363636364" y="164.27272727272728" type="line"/>
      <point x="389.3636363636364" y="67.27272727272728" type="line"/>
      <point x="111.95454545454545" y="67.27272727272728" type="line"/>
      <point x="127.0909090909091" y="56.90909090909091" type="line"/>
      <point x="217.54545454545456" y="120.45454545454545"/>
      <point x="261.22727272727275" y="176.95454545454547"/>
      <point x="261.22727272727275" y="240.0909090909091" type="curve" smooth="yes"/>
      <point x="261.22727272727275" y="327.04545454545456"/>
      <point x="155.63636363636363" y="428.8181818181818"/>
      <point x="155.63636363636363" y="520.0" type="curve" smooth="yes"/>
      <point x="155.63636363636363" y="581.4090909090909"/>
      <point x="193.13636363636363" y="627.3181818181819"/>
      <point x="263.40909090909093" y="627.3181818181819" type="curve" smooth="yes"/>
      <point x="317.95454545454544" y="627.3181818181819"/>
      <point x="339.54545454545456" y="606.8636363636364"/>
      <point x="365.8636363636364" y="558.4090909090909" type="curve" smooth="yes"/>
      <point x="379.8636363636364" y="532.4090909090909" type="line"/>
      <point x="386.8636363636364" y="532.4090909090909" type="line"/>
      <point x="422.8636363636364" y="559.0" type="line" smooth="yes"/>
      <point x="432.8636363636364" y="566.1818181818181"/>
      <point x="435.8636363636364" y="573.0"/>
      <point x="435.8636363636364" y="583.0" type="curve" smooth="yes"/>
      <point x="435.8636363636364" y="591.0"/>
      <point x="430.8636363636364" y="600.0"/>
      <point x="419.8636363636364" y="613.0" type="curve" smooth="yes"/>
      <point x="395.3181818181818" y="643.1363636363636"/>
      <point x="349.59090909090907" y="670.0"/>
      <point x="282.22727272727275" y="670.0" type="curve" smooth="yes"/>
      <point x="165.27272727272728" y="670.0"/>
      <point x="91.13636363636364" y="572.2272727272727"/>
      <point x="91.13636363636364" y="471.8181818181818" type="curve" smooth="yes"/>
      <point x="91.13636363636364" y="383.3181818181818"/>
      <point x="183.4090909090909" y="297.1363636363636"/>
      <point x="183.4090909090909" y="218.0" type="curve" smooth="yes"/>
      <point x="183.4090909090909" y="163.6818181818182"/>
      <point x="147.36363636363637" y="110.04545454545455"/>
      <point x="53.13636363636364" y="31.81818181818182" type="curve"/>
    </contour>
    <contour>
      <point x="49.13636363636364" y="316.6363636363636" type="line"/>
      <point x="399.1363636363636" y="316.6363636363636" type="line"/>
      <point x="399.1363636363636" y="351.3636363636364" type="line"/>
      <point x="49.13636363636364" y="351.3636363636364" type="line"/>
    </contour>
  </outline>
</glyph>
<glyph name="currency" format="2">
  <advance width="500.0"/>
  <unicode hex="00A4"/>
  <outline>
    <contour>
      <point x="40.0" y="91.86363636363636" type="line"/>
      <point x="69.86363636363636" y="62.0" type="line"/>
      <point x="153.77272727272728" y="145.9090909090909" type="line"/>
      <point x="180.77272727272728" y="125.68181818181819"/>
      <point x="214.1818181818182" y="113.27272727272727"/>
      <point x="250.0" y="113.27272727272727" type="curve" smooth="yes"/>
      <point x="285.8181818181818" y="113.27272727272727"/>
      <point x="319.22727272727275" y="125.68181818181819"/>
      <point x="346.22727272727275" y="145.9090909090909" type="curve"/>
      <point x="430.1363636363636" y="62.0" type="line"/>
      <point x="460.0" y="91.86363636363636" type="line"/>
      <point x="376.09090909090907" y="175.77272727272728" type="line"/>
      <point x="396.3181818181818" y="202.77272727272728"/>
      <point x="408.72727272727275" y="236.1818181818182"/>
      <point x="408.72727272727275" y="272.0" type="curve" smooth="yes"/>
      <point x="408.72727272727275" y="307.8181818181818"/>
      <point x="396.3181818181818" y="341.22727272727275"/>
      <point x="376.09090909090907" y="368.22727272727275" type="curve"/>
      <point x="460.0" y="452.1363636363636" type="line"/>
      <point x="430.1363636363636" y="482.0" type="line"/>
      <point x="346.22727272727275" y="398.09090909090907" type="line"/>
      <point x="319.22727272727275" y="418.3181818181818"/>
      <point x="285.8181818181818" y="430.72727272727275"/>
      <point x="250.0" y="430.72727272727275" type="curve" smooth="yes"/>
      <point x="214.1818181818182" y="430.72727272727275"/>
      <point x="180.77272727272728" y="418.3181818181818"/>
      <point x="153.77272727272728" y="398.09090909090907" type="curve"/>
      <point x="69.86363636363636" y="482.0" type="line"/>
      <point x="40.0" y="452.1363636363636" type="line"/>
      <point x="123.9090909090909" y="368.22727272727275" type="line"/>
      <point x="103.68181818181819" y="341.22727272727275"/>
      <point x="91.27272727272727" y="307.8181818181818"/>
      <point x="91.27272727272727" y="272.0" type="curve" smooth="yes"/>
      <point x="91.27272727272727" y="236.1818181818182"/>
      <point x="103.68181818181819" y="202.77272727272728"/>
      <point x="123.9090909090909" y="175.77272727272728" type="curve"/>
    </contour>
    <contour>
      <point x="250.0" y="151.6818181818182" type="curve" smooth="yes"/>
      <point x="184.13636363636363" y="151.6818181818182"/>
      <point x="134.6818181818182" y="203.72727272727272"/>
      <point x="134.6818181818182" y="272.0" type="curve" smooth="yes"/>
      <point x="134.6818181818182" y="340.27272727272725"/>
      <point x="184.13636363636363" y="392.3181818181818"/>
      <point x="250.0" y="392.3181818181818" type="curve" smooth="yes"/>
      <point x="315.8636363636364" y="392.3181818181818"/>
      <point x="365.3181818181818" y="340.27272727272725"/>
      <point x="365.3181818181818" y="272.0" type="curve" smooth="yes"/>
      <point x="365.3181818181818" y="203.72727272727272"/>
      <point x="315.8636363636364" y="151.6818181818182"/>
    </contour>
  </outline>
</glyph>
<glyph name="yen" format="2">
  <advance width="500.0"/>
  <unicode hex="00A5"/>
  <outline>
    <contour>
      <point x="126.54545454545455" y="0.0" type="line"/>
      <point x="368.45454545454544" y="0.0" type="line"/>
      <point x="368.45454545454544" y="19.68181818181818" type="line"/>
      <point x="283.45454545454544" y="50.27272727272727" type="line"/>
      <point x="283.45454545454544" y="426.0" type="line"/>
      <point x="266.45454545454544" y="369.04545454545456" type="line"/>
      <point x="455.45454545454544" y="639.0" type="line"/>
      <point x="413.54545454545456" y="610.0909090909091" type="line"/>
      <point x="491.45454545454544" y="640.3181818181819" type="line"/>
      <point x="491.45454545454544" y="660.0" type="line"/>
      <point x="321.59090909090907" y="660.0" type="line"/>
      <point x="321.59090909090907" y="640.3181818181819" type="line"/>
      <point x="383.59090909090907" y="618.4090909090909" type="line"/>
      <point x="383.59090909090907" y="615.4090909090909" type="line"/>
      <point x="257.09090909090907" y="417.09090909090907" type="line"/>
      <point x="279.09090909090907" y="417.09090909090907" type="line"/>
      <point x="139.5909090909091" y="620.4090909090909" type="line"/>
      <point x="139.5909090909091" y="622.4090909090909" type="line"/>
      <point x="200.5909090909091" y="640.3181818181819" type="line"/>
      <point x="200.5909090909091" y="660.0" type="line"/>
      <point x="8.545454545454545" y="660.0" type="line"/>
      <point x="8.545454545454545" y="640.3181818181819" type="line"/>
      <point x="81.54545454545455" y="610.0909090909091" type="line"/>
      <point x="32.54545454545455" y="639.0" type="line"/>
      <point x="233.22727272727272" y="364.1363636363636" type="line"/>
      <point x="211.54545454545453" y="426.0" type="line"/>
      <point x="211.54545454545453" y="50.27272727272727" type="line"/>
      <point x="126.54545454545455" y="19.68181818181818" type="line"/>
    </contour>
    <contour>
      <point x="78.54545454545455" y="391.04545454545456" type="line"/>
      <point x="415.45454545454544" y="391.04545454545456" type="line"/>
      <point x="415.45454545454544" y="425.77272727272725" type="line"/>
      <point x="78.54545454545455" y="425.77272727272725" type="line"/>
    </contour>
    <contour>
      <point x="78.54545454545455" y="241.04545454545453" type="line"/>
      <point x="415.45454545454544" y="241.04545454545453" type="line"/>
      <point x="415.45454545454544" y="275.77272727272725" type="line"/>
      <point x="78.54545454545455" y="275.77272727272725" type="line"/>
    </contour>
  </outline>
</glyph>
<glyph name="section" format="2">
  <advance width="484.8636363636364"/>
  <unicode hex="00A7"/>
  <outline>
    <contour>
      <point x="449.8636363636364" y="287.72727272727275" type="curve" smooth="yes"/>
      <point x="449.8636363636364" y="476.27272727272725"/>
      <point x="150.86363636363637" y="373.90909090909093"/>
      <point x="150.86363636363637" y="539.3181818181819" type="curve" smooth="yes"/>
      <point x="150.86363636363637" y="587.6994134895909"/>
      <point x="194.54411764722727" y="624.0909090909091"/>
      <point x="244.63636363636363" y="624.0909090909091" type="curve" smooth="yes"/>
      <point x="280.48051948063636" y="624.0909090909091"/>
      <point x="306.7651715701818" y="609.3354066004091"/>
      <point x="327.0909090909091" y="589.0909090909091" type="curve" smooth="yes"/>
      <point x="351.3636363636364" y="566.2727272727273" type="line"/>
      <point x="355.3636363636364" y="566.2727272727273" type="line"/>
      <point x="383.40909090909093" y="593.1363636363636" type="line" smooth="yes"/>
      <point x="391.5380666336818" y="601.2653393609545"/>
      <point x="394.77272727272725" y="607.0537190082273"/>
      <point x="394.77272727272725" y="612.2727272727273" type="curve" smooth="yes"/>
      <point x="394.77272727272725" y="620.8636363636364"/>
      <point x="387.77272727272725" y="628.8636363636364"/>
      <point x="378.3636363636364" y="638.4545454545455" type="curve" smooth="yes"/>
      <point x="360.0" y="655.4090909090909"/>
      <point x="332.8181818181818" y="669.5909090909091"/>
      <point x="299.27272727272725" y="669.5909090909091" type="curve" smooth="yes"/>
      <point x="180.0" y="669.5909090909091"/>
      <point x="94.31818181818181" y="589.7727272727273"/>
      <point x="94.31818181818181" y="504.22727272727275" type="curve" smooth="yes"/>
      <point x="94.31818181818181" y="305.09090909090907"/>
      <point x="393.3181818181818" y="416.5"/>
      <point x="393.3181818181818" y="257.09090909090907" type="curve" smooth="yes"/>
      <point x="393.3181818181818" y="203.95454545454547"/>
      <point x="336.3636363636364" y="169.1818181818182"/>
      <point x="286.77272727272725" y="167.95454545454547" type="curve"/>
      <point x="275.72727272727275" y="136.1818181818182" type="line"/>
      <point x="379.1363636363636" y="152.13636363636363"/>
      <point x="449.8636363636364" y="201.04545454545456"/>
    </contour>
    <contour>
      <point x="183.9090909090909" y="-119.5909090909091" type="curve" smooth="yes"/>
      <point x="296.1363636363636" y="-119.5909090909091"/>
      <point x="393.6363636363636" y="-35.95454545454545"/>
      <point x="393.6363636363636" y="50.45454545454545" type="curve" smooth="yes"/>
      <point x="393.6363636363636" y="249.36363636363637"/>
      <point x="91.5" y="139.4090909090909"/>
      <point x="91.5" y="299.95454545454544" type="curve" smooth="yes"/>
      <point x="91.5" y="356.04545454545456"/>
      <point x="136.04545454545453" y="389.6363636363636"/>
      <point x="199.22727272727272" y="392.04545454545456" type="curve"/>
      <point x="210.27272727272728" y="423.22727272727275" type="line"/>
      <point x="105.68181818181819" y="409.04545454545456"/>
      <point x="32.0" y="358.27272727272725"/>
      <point x="32.0" y="274.22727272727275" type="curve" smooth="yes"/>
      <point x="32.0" y="77.77272727272727"/>
      <point x="337.90909090909093" y="185.63636363636363"/>
      <point x="337.90909090909093" y="18.954545454545453" type="curve" smooth="yes"/>
      <point x="337.90909090909093" y="-32.652115211504544"/>
      <point x="295.3636363636364" y="-71.72727272727272"/>
      <point x="233.77272727272728" y="-71.72727272727272" type="curve" smooth="yes"/>
      <point x="193.04545454545456" y="-71.72727272727272"/>
      <point x="165.6818181818182" y="-54.27272727272727"/>
      <point x="142.9090909090909" y="-31.136363636363637" type="curve" smooth="yes"/>
      <point x="120.0909090909091" y="-8.363636363636363" type="line"/>
      <point x="115.5" y="-8.363636363636363" type="line"/>
      <point x="87.31818181818181" y="-34.95454545454545" type="line" smooth="yes"/>
      <point x="76.5" y="-44.18181818181818"/>
      <point x="74.31818181818181" y="-52.13636363636364"/>
      <point x="74.31818181818181" y="-57.54545454545455" type="curve" smooth="yes"/>
      <point x="74.31818181818181" y="-66.13636363636364"/>
      <point x="80.72727272727272" y="-74.72727272727272"/>
      <point x="91.31818181818181" y="-85.5" type="curve" smooth="yes"/>
      <point x="110.14118004236363" y="-103.49890217627272"/>
      <point x="147.77272727272728" y="-119.5909090909091"/>
    </contour>
  </outline>
</glyph>
<glyph name="copyright" format="2">
  <advance width="806.0"/>
  <unicode hex="00A9"/>
  <outline>
    <contour>
      <point x="403.0" y="-10.0" type="curve" smooth="yes"/>
      <point x="594.0" y="-10.0"/>
      <point x="736.0" y="134.0"/>
      <point x="736.0" y="330.0" type="curve" smooth="yes"/>
      <point x="736.0" y="526.0"/>
      <point x="594.0" y="670.0"/>
      <point x="403.0" y="670.0" type="curve" smooth="yes"/>
      <point x="212.0" y="670.0"/>
      <point x="70.0" y="526.0"/>
      <point x="70.0" y="330.0" type="curve" smooth="yes"/>
      <point x="70.0" y="134.0"/>
      <point x="212.0" y="-10.0"/>
    </contour>
    <contour>
      <point x="403.0" y="22.31818181818182" type="curve" smooth="yes"/>
      <point x="232.36363636363637" y="22.31818181818182"/>
      <point x="105.13636363636364" y="152.54545454545453"/>
      <point x="105.13636363636364" y="330.0" type="curve" smooth="yes"/>
      <point x="105.13636363636364" y="507.45454545454544"/>
      <point x="232.36363636363637" y="637.6818181818181"/>
      <point x="403.0" y="637.6818181818181" type="curve" smooth="yes"/>
      <point x="573.6363636363636" y="637.6818181818181"/>
      <point x="700.8636363636364" y="507.45454545454544"/>
      <point x="700.8636363636364" y="330.0" type="curve" smooth="yes"/>
      <point x="700.8636363636364" y="152.54545454545453"/>
      <point x="573.6363636363636" y="22.31818181818182"/>
    </contour>
    <contour>
      <point x="415.6363636363636" y="129.0" type="curve" smooth="yes"/>
      <point x="472.3636363636364" y="129.0"/>
      <point x="511.1818181818182" y="142.0"/>
      <point x="547.1363636363636" y="160.1818181818182" type="curve"/>
      <point x="554.3181818181819" y="259.04545454545456" type="line"/>
      <point x="530.2272727272727" y="259.04545454545456" type="line"/>
      <point x="488.6818181818182" y="171.5" type="line"/>
      <point x="515.8636363636364" y="201.4090909090909" type="line"/>
      <point x="485.3181818181818" y="179.45454545454547"/>
      <point x="457.90909090909093" y="166.8181818181818"/>
      <point x="415.8636363636364" y="166.8181818181818" type="curve" smooth="yes"/>
      <point x="335.09090909090907" y="166.8181818181818"/>
      <point x="273.54545454545456" y="233.96961462436363"/>
      <point x="273.54545454545456" y="339.77272727272725" type="curve" smooth="yes"/>
      <point x="273.54545454545456" y="434.4256198346364"/>
      <point x="334.22727272727275" y="501.95454545454544"/>
      <point x="419.54545454545456" y="501.95454545454544" type="curve" smooth="yes"/>
      <point x="452.8181818181818" y="501.95454545454544"/>
      <point x="474.90909090909093" y="488.72727272727275"/>
      <point x="512.1363636363636" y="461.27272727272725" type="curve"/>
      <point x="487.04545454545456" y="489.40909090909093" type="line"/>
      <point x="523.2272727272727" y="403.40909090909093" type="line"/>
      <point x="547.7272727272727" y="403.40909090909093" type="line"/>
      <point x="544.1363636363636" y="509.8181818181818" type="line"/>
      <point x="506.90909090909093" y="528.2272727272727"/>
      <point x="478.5" y="540.0"/>
      <point x="422.1818181818182" y="540.0" type="curve" smooth="yes"/>
      <point x="309.1818181818182" y="540.0"/>
      <point x="215.0" y="441.80681818200003"/>
      <point x="215.0" y="325.22727272727275" type="curve" smooth="yes"/>
      <point x="215.0" y="212.93776223763638"/>
      <point x="290.0" y="129.0"/>
    </contour>
  </outline>
</glyph>
<glyph name="ordfeminine" format="2">
  <advance width="391.8181818181818"/>
  <unicode hex="00AA"/>
  <outline>
    <contour>
      <point x="142.36363636363637" y="417.0" type="curve" smooth="yes"/>
      <point x="173.8181818181818" y="417.0"/>
      <point x="198.5909090909091" y="431.0"/>
      <point x="217.1818181818182" y="450.77272727272725" type="curve"/>
      <point x="226.36363636363637" y="450.77272727272725" type="line"/>
      <point x="226.36363636363637" y="468.77272727272725" type="line"/>
      <point x="206.5" y="458.3181818181818"/>
      <point x="193.0909090909091" y="452.6818181818182"/>
      <point x="177.45454545454547" y="452.6818181818182" type="curve" smooth="yes"/>
      <point x="151.5909090909091" y="452.6818181818182"/>
      <point x="137.77272727272728" y="464.5"/>
      <point x="137.77272727272728" y="487.3181818181818" type="curve" smooth="yes"/>
      <point x="137.77272727272728" y="516.1363636363636"/>
      <point x="152.5909090909091" y="531.5454545454545"/>
      <point x="233.77272727272728" y="546.0" type="curve"/>
      <point x="233.77272727272728" y="567.7727272727273" type="line"/>
      <point x="165.54545454545453" y="550.3636363636364" type="line" smooth="yes"/>
      <point x="102.63636363636364" y="534.1818181818181"/>
      <point x="82.0" y="512.5454545454545"/>
      <point x="82.0" y="475.3636363636364" type="curve" smooth="yes"/>
      <point x="82.0" y="438.59090909090907"/>
      <point x="108.77272727272727" y="417.0"/>
    </contour>
    <contour>
      <point x="271.5" y="417.0" type="curve" smooth="yes"/>
      <point x="298.8636363636364" y="417.0"/>
      <point x="314.8181818181818" y="429.1818181818182"/>
      <point x="322.40909090909093" y="441.95454545454544" type="curve"/>
      <point x="322.40909090909093" y="446.3181818181818" type="line"/>
      <point x="320.8181818181818" y="447.90909090909093" type="line"/>
      <point x="300.5" y="447.90909090909093" type="line" smooth="yes"/>
      <point x="288.72727272727275" y="447.90909090909093"/>
      <point x="280.1363636363636" y="451.09090909090907"/>
      <point x="275.1363636363636" y="456.09090909090907" type="curve"/>
      <point x="275.1363636363636" y="605.6818181818181" type="line" smooth="yes"/>
      <point x="275.1363636363636" y="649.0454545454545"/>
      <point x="241.77272727272728" y="669.4090909090909"/>
      <point x="186.8181818181818" y="669.4090909090909" type="curve" smooth="yes"/>
      <point x="163.6818181818182" y="669.4090909090909"/>
      <point x="141.86363636363637" y="661.4090909090909"/>
      <point x="119.5" y="646.8181818181819" type="curve" smooth="yes"/>
      <point x="99.72727272727273" y="635.0454545454545"/>
      <point x="89.36363636363636" y="619.2272727272727"/>
      <point x="89.36363636363636" y="604.0454545454545" type="curve" smooth="yes"/>
      <point x="89.36363636363636" y="592.8636363636364"/>
      <point x="92.36363636363636" y="589.2727272727273"/>
      <point x="103.36363636363636" y="589.2727272727273" type="curve" smooth="yes"/>
      <point x="134.9090909090909" y="589.2727272727273" type="line"/>
      <point x="137.3181818181818" y="591.6818181818181" type="line"/>
      <point x="137.3181818181818" y="614.2727272727273" type="line" smooth="yes"/>
      <point x="137.3181818181818" y="633.8636363636364"/>
      <point x="146.3181818181818" y="645.6818181818181"/>
      <point x="171.54545454545453" y="645.6818181818181" type="curve" smooth="yes"/>
      <point x="198.5909090909091" y="645.6818181818181"/>
      <point x="217.5909090909091" y="627.4545454545455"/>
      <point x="217.5909090909091" y="599.6363636363636" type="curve" smooth="yes"/>
      <point x="217.5909090909091" y="456.1363636363636" type="line"/>
      <point x="218.5909090909091" y="456.1363636363636" type="line"/>
      <point x="223.54545454545453" y="433.40909090909093"/>
      <point x="239.9090909090909" y="417.0"/>
    </contour>
    <contour>
      <point x="84.18181818181819" y="296.5" type="line"/>
      <point x="307.6363636363636" y="296.5" type="line"/>
      <point x="307.6363636363636" y="338.3181818181818" type="line"/>
      <point x="84.18181818181819" y="338.3181818181818" type="line"/>
    </contour>
  </outline>
</glyph>
<glyph name="logicalnot" format="2">
  <advance width="500.0"/>
  <unicode hex="00AC"/>
  <outline>
    <contour>
      <point x="418.1818181818182" y="62.0" type="line"/>
      <point x="460.0" y="62.0" type="line"/>
      <point x="460.0" y="292.5" type="line"/>
      <point x="40.0" y="292.5" type="line"/>
      <point x="40.0" y="251.5" type="line"/>
      <point x="418.1818181818182" y="251.5" type="line"/>
    </contour>
  </outline>
</glyph>
<glyph name="registered" format="2">
  <advance width="540.0"/>
  <unicode hex="00AE"/>
  <outline>
    <contour>
      <point x="270.0" y="238.0" type="curve" smooth="yes"/>
      <point x="392.0" y="238.0"/>
      <point x="481.59090909090907" y="331.0"/>
      <point x="482.0" y="454.0" type="curve" smooth="yes"/>
      <point x="482.40909090909093" y="577.0"/>
      <point x="392.0" y="670.0"/>
      <point x="270.0" y="670.0" type="curve" smooth="yes"/>
      <point x="148.0" y="670.0"/>
      <point x="58.0" y="577.0"/>
      <point x="58.0" y="454.0" type="curve" smooth="yes"/>
      <point x="58.0" y="331.0"/>
      <point x="148.0" y="238.0"/>
    </contour>
    <contour>
      <point x="270.0" y="265.1363636363636" type="curve" smooth="yes"/>
      <point x="162.77272727272728" y="265.1363636363636"/>
      <point x="88.54545454545455" y="346.3636363636364"/>
      <point x="88.54545454545455" y="454.0" type="curve" smooth="yes"/>
      <point x="88.54545454545455" y="561.6363636363636"/>
      <point x="162.77272727272728" y="642.8636363636364"/>
      <point x="270.0" y="642.8636363636364" type="curve" smooth="yes"/>
      <point x="377.22727272727275" y="642.8636363636364"/>
      <point x="451.45454545454544" y="561.6363636363636"/>
      <point x="451.45454545454544" y="454.0" type="curve" smooth="yes"/>
      <point x="451.45454545454544" y="346.3636363636364"/>
      <point x="377.22727272727275" y="265.1363636363636"/>
    </contour>
    <contour>
      <point x="164.45454545454547" y="329.0" type="line"/>
      <point x="262.54545454545456" y="329.0" type="line"/>
      <point x="262.54545454545456" y="338.04545454545456" type="line"/>
      <point x="232.95454545454547" y="350.3636363636364" type="line"/>
      <point x="232.95454545454547" y="584.0" type="line"/>
      <point x="164.45454545454547" y="584.0" type="line"/>
      <point x="164.45454545454547" y="575.5454545454545" type="line"/>
      <point x="195.45454545454547" y="563.6363636363636" type="line"/>
      <point x="195.45454545454547" y="350.3636363636364" type="line"/>
      <point x="164.45454545454547" y="338.04545454545456" type="line"/>
    </contour>
    <contour>
      <point x="349.04545454545456" y="521.0" type="curve" smooth="yes"/>
      <point x="349.04545454545456" y="560.0"/>
      <point x="316.04545454545456" y="584.0"/>
      <point x="262.04545454545456" y="584.0" type="curve" smooth="yes"/>
      <point x="210.8181818181818" y="584.0" type="line"/>
      <point x="210.8181818181818" y="563.0454545454545" type="line"/>
      <point x="252.5" y="563.0454545454545" type="line" smooth="yes"/>
      <point x="285.95454545454544" y="563.0454545454545"/>
      <point x="308.54545454545456" y="546.5122377623636"/>
      <point x="308.54545454545456" y="516.0" type="curve" smooth="yes"/>
      <point x="308.54545454545456" y="486.68545454545455"/>
      <point x="285.54545454545456" y="468.59090909090907"/>
      <point x="254.9090909090909" y="468.59090909090907" type="curve"/>
      <point x="213.8181818181818" y="468.59090909090907" type="line"/>
      <point x="213.8181818181818" y="447.6363636363636" type="line"/>
      <point x="271.3636363636364" y="447.6363636363636" type="line"/>
      <point x="271.3636363636364" y="450.6363636363636" type="line"/>
      <point x="316.5" y="457.27272727272725"/>
      <point x="349.04545454545456" y="484.40909090909093"/>
    </contour>
    <contour>
      <point x="319.6363636363636" y="329.0" type="line"/>
      <point x="379.54545454545456" y="329.0" type="line"/>
      <point x="379.54545454545456" y="338.04545454545456" type="line"/>
      <point x="353.1363636363636" y="347.77272727272725" type="line"/>
      <point x="292.8636363636364" y="461.0" type="line"/>
      <point x="250.95454545454547" y="461.0" type="line"/>
    </contour>
  </outline>
</glyph>
<glyph name="degree" format="2">
  <advance width="500.0"/>
  <unicode hex="00B0"/>
  <outline>
    <contour>
      <point x="250.0" y="410.0" type="curve" smooth="yes"/>
      <point x="325.0" y="410.0"/>
      <point x="380.0" y="470.0"/>
      <point x="380.0" y="540.0" type="curve" smooth="yes"/>
      <point x="380.0" y="610.0"/>
      <point x="325.0" y="670.0"/>
      <point x="250.0" y="670.0" type="curve" smooth="yes"/>
      <point x="175.0" y="670.0"/>
      <point x="120.0" y="610.0"/>
      <point x="120.0" y="540.0" type="curve" smooth="yes"/>
      <point x="120.0" y="470.0"/>
      <point x="175.0" y="410.0"/>
    </contour>
    <contour>
      <point x="250.0" y="444.90909090909093" type="curve" smooth="yes"/>
      <point x="198.95454545454547" y="444.90909090909093"/>
      <point x="158.3181818181818" y="481.54545454545456"/>
      <point x="158.3181818181818" y="540.0" type="curve" smooth="yes"/>
      <point x="158.3181818181818" y="598.4545454545455"/>
      <point x="198.95454545454547" y="635.0909090909091"/>
      <point x="250.0" y="635.0909090909091" type="curve" smooth="yes"/>
      <point x="301.04545454545456" y="635.0909090909091"/>
      <point x="341.6818181818182" y="598.4545454545455"/>
      <point x="341.6818181818182" y="540.0" type="curve" smooth="yes"/>
      <point x="341.6818181818182" y="481.54545454545456"/>
      <point x="301.04545454545456" y="444.90909090909093"/>
    </contour>
  </outline>
</glyph>
<glyph name="plusminus" format="2">
  <advance width="500.0"/>
  <unicode hex="00B1"/>
  <outline>
    <contour>
      <point x="40.0" y="291.5" type="line"/>
      <point x="460.0" y="291.5" type="line"/>
      <point x="460.0" y="332.5" type="line"/>
      <point x="40.0" y="332.5" type="line"/>
    </contour>
    <contour>
      <point x="228.5" y="152.0" type="line"/>
      <point x="271.5" y="152.0" type="line"/>
      <point x="271.5" y="482.0" type="line"/>
      <point x="228.5" y="482.0" type="line"/>
    </contour>
    <contour>
      <point x="40.0" y="66.5" type="line"/>
      <point x="460.0" y="66.5" type="line"/>
      <point x="460.0" y="107.5" type="line"/>
      <point x="40.0" y="107.5" type="line"/>
    </contour>
  </outline>
</glyph>
<glyph name="paragraph" format="2">
  <advance width="471.04545454545456"/>
  <unicode hex="00B6"/>
  <outline>
    <contour>
      <point x="256.59090909090907" y="-110.0" type="line"/>
      <point x="300.04545454545456" y="-110.0" type="line"/>
      <point x="300.04545454545456" y="660.0" type="line"/>
      <point x="207.0" y="660.0" type="line" smooth="yes"/>
      <point x="104.0" y="660.0"/>
      <point x="35.0" y="615.0"/>
      <point x="35.0" y="514.0" type="curve" smooth="yes"/>
      <point x="35.0" y="425.0"/>
      <point x="112.54545454545455" y="359.0"/>
      <point x="217.6818181818182" y="359.0" type="curve" smooth="yes"/>
      <point x="256.59090909090907" y="359.0" type="line"/>
    </contour>
    <contour>
      <point x="358.40909090909093" y="-110.0" type="line"/>
      <point x="401.8636363636364" y="-110.0" type="line"/>
      <point x="401.8636363636364" y="609.7272727272727" type="line"/>
      <point x="481.04545454545456" y="640.3181818181819" type="line"/>
      <point x="481.04545454545456" y="660.0" type="line"/>
      <point x="358.40909090909093" y="660.0" type="line"/>
    </contour>
  </outline>
</glyph>
<glyph name="periodcentered" format="2">
  <advance width="250.0"/>
  <unicode hex="00B7"/>
  <outline>
    <contour>
      <point x="125.0" y="216.95454545454544" type="curve" smooth="yes"/>
      <point x="154.72727272727272" y="216.95454545454544"/>
      <point x="179.45454545454547" y="242.0909090909091"/>
      <point x="179.45454545454547" y="271.40909090909093" type="curve" smooth="yes"/>
      <point x="179.45454545454547" y="300.72727272727275"/>
      <point x="154.72727272727272" y="325.8636363636364"/>
      <point x="125.0" y="325.8636363636364" type="curve" smooth="yes"/>
      <point x="95.27272727272727" y="325.8636363636364"/>
      <point x="70.54545454545455" y="300.72727272727275"/>
      <point x="70.54545454545455" y="271.40909090909093" type="curve" smooth="yes"/>
      <point x="70.54545454545455" y="242.0909090909091"/>
      <point x="95.27272727272727" y="216.95454545454544"/>
    </contour>
  </outline>
</glyph>
<glyph name="ordmasculine" format="2">
  <advance width="393.45454545454544"/>
  <unicode hex="00BA"/>
  <outline>
    <contour>
      <point x="196.72727272727272" y="417.0" type="curve" smooth="yes"/>
      <point x="267.45454545454544" y="417.0"/>
      <point x="318.45454545454544" y="472.1818181818182"/>
      <point x="318.45454545454544" y="543.0" type="curve" smooth="yes"/>
      <point x="318.45454545454544" y="613.6363636363636"/>
      <point x="269.09090909090907" y="669.4090909090909"/>
      <point x="196.72727272727272" y="669.4090909090909" type="curve" smooth="yes"/>
      <point x="124.18181818181819" y="669.4090909090909"/>
      <point x="75.0" y="613.6363636363636"/>
      <point x="75.0" y="543.0" type="curve" smooth="yes"/>
      <point x="75.0" y="472.1818181818182"/>
      <point x="125.81818181818181" y="417.0"/>
    </contour>
    <contour>
      <point x="203.13636363636363" y="439.54545454545456" type="curve" smooth="yes"/>
      <point x="162.0" y="439.95454545454544"/>
      <point x="135.13636363636363" y="487.27272727272725"/>
      <point x="135.13636363636363" y="554.4090909090909" type="curve" smooth="yes"/>
      <point x="135.13636363636363" y="610.6818181818181"/>
      <point x="156.4090909090909" y="646.8636363636364"/>
      <point x="191.3181818181818" y="646.8636363636364" type="curve" smooth="yes"/>
      <point x="233.27272727272728" y="646.4545454545455"/>
      <point x="258.3181818181818" y="597.9545454545455"/>
      <point x="258.3181818181818" y="532.4090909090909" type="curve" smooth="yes"/>
      <point x="258.3181818181818" y="475.59090909090907"/>
      <point x="238.86363636363637" y="439.54545454545456"/>
    </contour>
    <contour>
      <point x="85.0" y="296.5" type="line"/>
      <point x="308.45454545454544" y="296.5" type="line"/>
      <point x="308.45454545454544" y="338.3181818181818" type="line"/>
      <point x="85.0" y="338.3181818181818" type="line"/>
    </contour>
  </outline>
</glyph>
<glyph name="questiondown" format="2">
  <advance width="475.3181818181818"/>
  <unicode hex="00BF"/>
  <outline>
    <contour>
      <point x="227.6818181818182" y="-215.0" type="curve" smooth="yes"/>
      <point x="292.6363636363636" y="-215.0"/>
      <point x="329.95454545454544" y="-187.36363636363637"/>
      <point x="373.90909090909093" y="-152.3181818181818" type="curve" smooth="yes"/>
      <point x="410.0" y="-124.72727272727273"/>
      <point x="428.59090909090907" y="-86.13636363636364"/>
      <point x="428.59090909090907" y="-48.5" type="curve" smooth="yes"/>
      <point x="428.59090909090907" y="-18.40909090909091"/>
      <point x="419.04545454545456" y="-13.0"/>
      <point x="395.90909090909093" y="-13.0" type="curve" smooth="yes"/>
      <point x="361.45454545454544" y="-13.0" type="line"/>
      <point x="354.27272727272725" y="-21.363636363636363" type="line"/>
      <point x="354.27272727272725" y="-58.90909090909091" type="line" smooth="yes"/>
      <point x="354.27272727272725" y="-133.1818181818182"/>
      <point x="313.6818181818182" y="-172.45454545454547"/>
      <point x="251.13636363636363" y="-172.45454545454547" type="curve" smooth="yes"/>
      <point x="184.6818181818182" y="-172.45454545454547"/>
      <point x="133.6818181818182" y="-132.04545454545453"/>
      <point x="133.6818181818182" y="-40.09090909090909" type="curve" smooth="yes"/>
      <point x="133.6818181818182" y="32.45454545454545"/>
      <point x="188.0" y="79.0909090909091"/>
      <point x="291.5" y="115.31818181818181" type="curve"/>
      <point x="270.0" y="263.1818181818182" type="line"/>
      <point x="249.1818181818182" y="263.1818181818182" type="line"/>
      <point x="237.6818181818182" y="119.81818181818181" type="line"/>
      <point x="262.77272727272725" y="178.6818181818182" type="line"/>
      <point x="108.0909090909091" y="114.9090909090909"/>
      <point x="54.77272727272727" y="45.09090909090909"/>
      <point x="54.77272727272727" y="-40.86363636363636" type="curve" smooth="yes"/>
      <point x="54.77272727272727" y="-145.63636363636363"/>
      <point x="130.5909090909091" y="-215.0"/>
    </contour>
    <contour>
      <point x="259.59090909090907" y="350.27272727272725" type="curve" smooth="yes"/>
      <point x="289.3181818181818" y="350.27272727272725"/>
      <point x="314.04545454545456" y="375.8181818181818"/>
      <point x="314.04545454545456" y="405.1363636363636" type="curve" smooth="yes"/>
      <point x="314.04545454545456" y="433.45454545454544"/>
      <point x="289.3181818181818" y="460.0"/>
      <point x="259.59090909090907" y="460.0" type="curve" smooth="yes"/>
      <point x="230.45454545454547" y="460.0"/>
      <point x="205.13636363636363" y="433.45454545454544"/>
      <point x="205.13636363636363" y="405.1363636363636" type="curve" smooth="yes"/>
      <point x="205.13636363636363" y="375.8181818181818"/>
      <point x="230.45454545454547" y="350.27272727272725"/>
    </contour>
  </outline>
</glyph>
<glyph name="AE" format="2">
  <advance width="956.2272727272727"/>
  <unicode hex="00C6"/>
  <anchor x="514.9545454545455" y="710.0" name="top"/>
  <outline>
    <contour>
      <point x="455.0" y="660.0" type="line"/>
      <point x="80.22727272727273" y="28.0" type="line"/>
      <point x="126.27272727272728" y="61.5" type="line"/>
      <point x="30.045454545454547" y="19.68181818181818" type="line"/>
      <point x="30.045454545454547" y="0.0" type="line"/>
      <point x="233.1818181818182" y="0.0" type="line"/>
      <point x="233.1818181818182" y="19.68181818181818" type="line"/>
      <point x="135.86363636363637" y="50.40909090909091" type="line"/>
      <point x="140.1818181818182" y="28.0" type="line"/>
      <point x="481.40909090909093" y="618.1363636363636" type="line"/>
      <point x="465.1818181818182" y="618.1363636363636" type="line"/>
      <point x="465.1818181818182" y="50.27272727272727" type="line"/>
      <point x="386.0" y="19.68181818181818" type="line"/>
      <point x="386.0" y="0.0" type="line"/>
      <point x="542.9090909090909" y="0.0" type="line"/>
      <point x="542.9090909090909" y="660.0" type="line"/>
    </contour>
    <contour>
      <point x="249.8181818181818" y="241.13636363636363" type="line"/>
      <point x="498.1818181818182" y="241.13636363636363" type="line"/>
      <point x="498.1818181818182" y="287.95454545454544" type="line"/>
      <point x="249.8181818181818" y="287.95454545454544" type="line"/>
    </contour>
    <contour>
      <point x="858.2272727272727" y="660.0" type="line"/>
      <point x="498.90909090909093" y="660.0" type="line"/>
      <point x="498.90909090909093" y="613.1818181818181" type="line"/>
      <point x="786.7727272727273" y="613.1818181818181" type="line"/>
      <point x="840.5909090909091" y="492.09090909090907" type="line"/>
      <point x="858.2272727272727" y="492.09090909090907" type="line"/>
    </contour>
    <contour>
      <point x="503.6363636363636" y="317.09090909090907" type="line"/>
      <point x="717.8181818181819" y="317.09090909090907" type="line"/>
      <point x="757.5909090909091" y="236.0909090909091" type="line"/>
      <point x="775.2272727272727" y="236.0909090909091" type="line"/>
      <point x="775.2272727272727" y="446.90909090909093" type="line"/>
      <point x="757.5909090909091" y="446.90909090909093" type="line"/>
      <point x="717.8181818181819" y="363.90909090909093" type="line"/>
      <point x="503.6363636363636" y="363.90909090909093" type="line"/>
    </contour>
    <contour>
      <point x="886.2272727272727" y="0.0" type="line"/>
      <point x="886.2272727272727" y="177.9090909090909" type="line"/>
      <point x="868.5909090909091" y="177.9090909090909" type="line"/>
      <point x="814.7727272727273" y="46.81818181818182" type="line"/>
      <point x="515.4545454545455" y="46.81818181818182" type="line"/>
      <point x="515.4545454545455" y="0.0" type="line"/>
    </contour>
  </outline>
</glyph>
